  0
SECTION
  2
HEADER
  9
$ANGBASE
  50
0.0
  9
$ANGDIR
  70
  1
  9
$MEASUREMENT
  70
0
  0
ENDSEC
  0
SECTION
  2
TABLES
  0
TABLE
  2
LTYPE
  70
4
  0
LTYPE
  5
40F
  2
CONTINUOUS
  70
0
  3
Solid line
  72
65
  73
0
  40
0.0
  0
LTYPE
  5
410
  2
DASHDOT
 70
0
  3
Dash Dot ____ _ ____ _
 72
65
 73
4
 40
2.0
 49
1.25
 49
-0.25
 49
0.25
 49
-0.25
  0
LTYPE
  5
411
  2
DASHED
 70
0
  3
Dashed __ __ __ __ __
 72
65
 73
2
 40
0.75
 49
0.5
 49
-0.25
  0
LTYPE
  5
43B
  2
DOTTED
 70
0
  3
Dotted .  .  .  .
 72
65
 73
2
 40
0.2
 49
0.0
 49
-0.2
  0
ENDTAB
  0
TABLE
  2
STYLE
  70
4
  0
STYLE
  2
KICAD
  70
0
  40
0
  41
1
  42
1
  50
0
  71
0
  3
isocp.shx
  0
STYLE
  2
KICADB
  70
0
  40
0
  41
1
  42
1
  50
0
  71
0
  3
isocp.shx
  0
STYLE
  2
KICADI
  70
0
  40
0
  41
1
  42
1
  50
15
  71
0
  3
isocp.shx
  0
STYLE
  2
KICADBI
  70
0
  40
0
  41
1
  42
1
  50
15
  71
0
  3
isocp.shx
  0
ENDTAB
  0
TABLE
  2
LAYER
  70
30
  0
LAYER
  2
BLACK
  70
0
  62
7
  6
CONTINUOUS
  0
LAYER
  2
GRAY1
  70
0
  62
251
  6
CONTINUOUS
  0
LAYER
  2
GRAY2
  70
0
  62
8
  6
CONTINUOUS
  0
LAYER
  2
GRAY3
  70
0
  62
9
  6
CONTINUOUS
  0
LAYER
  2
WHITE
  70
0
  62
7
  6
CONTINUOUS
  0
LAYER
  2
LYELLOW
  70
0
  62
51
  6
CONTINUOUS
  0
LAYER
  2
BLUE1
  70
0
  62
178
  6
CONTINUOUS
  0
LAYER
  2
GREEN1
  70
0
  62
98
  6
CONTINUOUS
  0
LAYER
  2
CYAN1
  70
0
  62
138
  6
CONTINUOUS
  0
LAYER
  2
RED1
  70
0
  62
18
  6
CONTINUOUS
  0
LAYER
  2
MAGENTA1
  70
0
  62
228
  6
CONTINUOUS
  0
LAYER
  2
BROWN1
  70
0
  62
58
  6
CONTINUOUS
  0
LAYER
  2
BLUE2
  70
0
  62
5
  6
CONTINUOUS
  0
LAYER
  2
GREEN2
  70
0
  62
3
  6
CONTINUOUS
  0
LAYER
  2
CYAN2
  70
0
  62
4
  6
CONTINUOUS
  0
LAYER
  2
RED2
  70
0
  62
1
  6
CONTINUOUS
  0
LAYER
  2
MAGENTA2
  70
0
  62
6
  6
CONTINUOUS
  0
LAYER
  2
BROWN2
  70
0
  62
54
  6
CONTINUOUS
  0
LAYER
  2
BLUE3
  70
0
  62
171
  6
CONTINUOUS
  0
LAYER
  2
GREEN3
  70
0
  62
91
  6
CONTINUOUS
  0
LAYER
  2
CYAN3
  70
0
  62
131
  6
CONTINUOUS
  0
LAYER
  2
RED3
  70
0
  62
11
  6
CONTINUOUS
  0
LAYER
  2
MAGENTA3
  70
0
  62
221
  6
CONTINUOUS
  0
LAYER
  2
YELLOW3
  70
0
  62
2
  6
CONTINUOUS
  0
LAYER
  2
BLUE4
  70
0
  62
5
  6
CONTINUOUS
  0
LAYER
  2
GREEN4
  70
0
  62
3
  6
CONTINUOUS
  0
LAYER
  2
CYAN4
  70
0
  62
4
  6
CONTINUOUS
  0
LAYER
  2
RED4
  70
0
  62
1
  6
CONTINUOUS
  0
LAYER
  2
MAGENTA4
  70
0
  62
6
  6
CONTINUOUS
  0
LAYER
  2
YELLOW4
  70
0
  62
2
  6
CONTINUOUS
  0
ENDTAB
  0
ENDSEC
  0
SECTION
  2
ENTITIES
0
LINE
8
BLACK
6
CONTINUOUS
10
202.333
20
-139.064
11
202.104
21
-139.494
0
LINE
8
BLACK
6
CONTINUOUS
10
202.104
20
-139.494
11
201.796
21
-139.871
0
LINE
8
BLACK
6
CONTINUOUS
10
201.796
20
-139.871
11
201.421
21
-140.182
0
LINE
8
BLACK
6
CONTINUOUS
10
201.421
20
-140.182
11
200.993
21
-140.413
0
LINE
8
BLACK
6
CONTINUOUS
10
200.993
20
-140.413
11
200.528
21
-140.557
0
LINE
8
BLACK
6
CONTINUOUS
10
200.528
20
-140.557
11
200.043
21
-140.608
0
LINE
8
BLACK
6
CONTINUOUS
10
200.043
20
-140.608
11
199.558
21
-140.564
0
LINE
8
BLACK
6
CONTINUOUS
10
199.558
20
-140.564
11
199.091
21
-140.426
0
LINE
8
BLACK
6
CONTINUOUS
10
199.091
20
-140.426
11
198.66
21
-140.201
0
LINE
8
BLACK
6
CONTINUOUS
10
198.66
20
-140.201
11
198.28
21
-139.896
0
LINE
8
BLACK
6
CONTINUOUS
10
198.28
20
-139.896
11
197.967
21
-139.523
0
LINE
8
BLACK
6
CONTINUOUS
10
197.967
20
-139.523
11
197.733
21
-139.096
0
LINE
8
BLACK
6
CONTINUOUS
10
197.733
20
-139.096
11
197.585
21
-138.632
0
LINE
8
BLACK
6
CONTINUOUS
10
197.585
20
-138.632
11
197.531
21
-138.148
0
LINE
8
BLACK
6
CONTINUOUS
10
197.531
20
-138.148
11
197.572
21
-137.663
0
LINE
8
BLACK
6
CONTINUOUS
10
197.572
20
-137.663
11
197.706
21
-137.195
0
LINE
8
BLACK
6
CONTINUOUS
10
197.706
20
-137.195
11
197.929
21
-136.762
0
LINE
8
BLACK
6
CONTINUOUS
10
197.929
20
-136.762
11
198.231
21
-136.38
0
LINE
8
BLACK
6
CONTINUOUS
10
198.231
20
-136.38
11
198.602
21
-136.064
0
LINE
8
BLACK
6
CONTINUOUS
10
198.602
20
-136.064
11
199.027
21
-135.827
0
LINE
8
BLACK
6
CONTINUOUS
10
199.027
20
-135.827
11
199.49
21
-135.676
0
LINE
8
BLACK
6
CONTINUOUS
10
199.49
20
-135.676
11
199.974
21
-135.619
0
LINE
8
BLACK
6
CONTINUOUS
10
199.974
20
-135.619
11
200.459
21
-135.656
0
LINE
8
BLACK
6
CONTINUOUS
10
200.459
20
-135.656
11
200.928
21
-135.787
0
LINE
8
BLACK
6
CONTINUOUS
10
200.928
20
-135.787
11
201.363
21
-136.006
0
LINE
8
BLACK
6
CONTINUOUS
10
201.363
20
-136.006
11
201.746
21
-136.306
0
LINE
8
BLACK
6
CONTINUOUS
10
201.746
20
-136.306
11
202.065
21
-136.675
0
LINE
8
BLACK
6
CONTINUOUS
10
202.065
20
-136.675
11
202.305
21
-137.098
0
LINE
8
BLACK
6
CONTINUOUS
10
202.305
20
-137.098
11
202.459
21
-137.56
0
LINE
8
BLACK
6
CONTINUOUS
10
202.459
20
-137.56
11
202.52
21
-138.043
0
LINE
8
BLACK
6
CONTINUOUS
10
202.52
20
-138.043
11
202.521
21
-138.113
0
LINE
8
BLACK
6
CONTINUOUS
10
202.521
20
-138.113
11
202.473
21
-138.598
0
LINE
8
BLACK
6
CONTINUOUS
10
202.473
20
-138.598
11
202.333
21
-139.064
0
LINE
8
BLACK
6
CONTINUOUS
10
202.268
20
-137.189
11
202.046
21
-136.771
0
LINE
8
BLACK
6
CONTINUOUS
10
202.046
20
-136.771
11
201.747
21
-136.404
0
LINE
8
BLACK
6
CONTINUOUS
10
201.747
20
-136.404
11
201.382
21
-136.103
0
LINE
8
BLACK
6
CONTINUOUS
10
201.382
20
-136.103
11
200.966
21
-135.878
0
LINE
8
BLACK
6
CONTINUOUS
10
200.966
20
-135.878
11
200.513
21
-135.738
0
LINE
8
BLACK
6
CONTINUOUS
10
200.513
20
-135.738
11
200.043
21
-135.688
0
LINE
8
BLACK
6
CONTINUOUS
10
200.043
20
-135.688
11
199.571
21
-135.731
0
LINE
8
BLACK
6
CONTINUOUS
10
199.571
20
-135.731
11
199.117
21
-135.865
0
LINE
8
BLACK
6
CONTINUOUS
10
199.117
20
-135.865
11
198.698
21
-136.084
0
LINE
8
BLACK
6
CONTINUOUS
10
198.698
20
-136.084
11
198.329
21
-136.38
0
LINE
8
BLACK
6
CONTINUOUS
10
198.329
20
-136.38
11
198.025
21
-136.743
0
LINE
8
BLACK
6
CONTINUOUS
10
198.025
20
-136.743
11
197.797
21
-137.158
0
LINE
8
BLACK
6
CONTINUOUS
10
197.797
20
-137.158
11
197.654
21
-137.609
0
LINE
8
BLACK
6
CONTINUOUS
10
197.654
20
-137.609
11
197.601
21
-138.079
0
LINE
8
BLACK
6
CONTINUOUS
10
197.601
20
-138.079
11
197.641
21
-138.551
0
LINE
8
BLACK
6
CONTINUOUS
10
197.641
20
-138.551
11
197.771
21
-139.006
0
LINE
8
BLACK
6
CONTINUOUS
10
197.771
20
-139.006
11
197.987
21
-139.427
0
LINE
8
BLACK
6
CONTINUOUS
10
197.987
20
-139.427
11
198.281
21
-139.798
0
LINE
8
BLACK
6
CONTINUOUS
10
198.281
20
-139.798
11
198.642
21
-140.104
0
LINE
8
BLACK
6
CONTINUOUS
10
198.642
20
-140.104
11
199.055
21
-140.335
0
LINE
8
BLACK
6
CONTINUOUS
10
199.055
20
-140.335
11
199.505
21
-140.482
0
LINE
8
BLACK
6
CONTINUOUS
10
199.505
20
-140.482
11
199.975
21
-140.538
0
LINE
8
BLACK
6
CONTINUOUS
10
199.975
20
-140.538
11
200.447
21
-140.501
0
LINE
8
BLACK
6
CONTINUOUS
10
200.447
20
-140.501
11
200.903
21
-140.374
0
LINE
8
BLACK
6
CONTINUOUS
10
200.903
20
-140.374
11
201.325
21
-140.161
0
LINE
8
BLACK
6
CONTINUOUS
10
201.325
20
-140.161
11
201.698
21
-139.869
0
LINE
8
BLACK
6
CONTINUOUS
10
201.698
20
-139.869
11
202.007
21
-139.511
0
LINE
8
BLACK
6
CONTINUOUS
10
202.007
20
-139.511
11
202.241
21
-139.099
0
LINE
8
BLACK
6
CONTINUOUS
10
202.241
20
-139.099
11
202.391
21
-138.65
0
LINE
8
BLACK
6
CONTINUOUS
10
202.391
20
-138.65
11
202.45
21
-138.181
0
LINE
8
BLACK
6
CONTINUOUS
10
202.45
20
-138.181
11
202.451
21
-138.113
0
LINE
8
BLACK
6
CONTINUOUS
10
202.451
20
-138.113
11
202.405
21
-137.642
0
LINE
8
BLACK
6
CONTINUOUS
10
202.405
20
-137.642
11
202.268
21
-137.189
0
LINE
8
BLACK
6
CONTINUOUS
10
107.082
20
-122.826
11
106.854
21
-123.256
0
LINE
8
BLACK
6
CONTINUOUS
10
106.854
20
-123.256
11
106.546
21
-123.633
0
LINE
8
BLACK
6
CONTINUOUS
10
106.546
20
-123.633
11
106.171
21
-123.943
0
LINE
8
BLACK
6
CONTINUOUS
10
106.171
20
-123.943
11
105.742
21
-124.175
0
LINE
8
BLACK
6
CONTINUOUS
10
105.742
20
-124.175
11
105.277
21
-124.319
0
LINE
8
BLACK
6
CONTINUOUS
10
105.277
20
-124.319
11
104.793
21
-124.37
0
LINE
8
BLACK
6
CONTINUOUS
10
104.793
20
-124.37
11
104.308
21
-124.326
0
LINE
8
BLACK
6
CONTINUOUS
10
104.308
20
-124.326
11
103.841
21
-124.188
0
LINE
8
BLACK
6
CONTINUOUS
10
103.841
20
-124.188
11
103.409
21
-123.963
0
LINE
8
BLACK
6
CONTINUOUS
10
103.409
20
-123.963
11
103.03
21
-123.658
0
LINE
8
BLACK
6
CONTINUOUS
10
103.03
20
-123.658
11
102.717
21
-123.285
0
LINE
8
BLACK
6
CONTINUOUS
10
102.717
20
-123.285
11
102.482
21
-122.858
0
LINE
8
BLACK
6
CONTINUOUS
10
102.482
20
-122.858
11
102.335
21
-122.394
0
LINE
8
BLACK
6
CONTINUOUS
10
102.335
20
-122.394
11
102.281
21
-121.91
0
LINE
8
BLACK
6
CONTINUOUS
10
102.281
20
-121.91
11
102.321
21
-121.425
0
LINE
8
BLACK
6
CONTINUOUS
10
102.321
20
-121.425
11
102.456
21
-120.957
0
LINE
8
BLACK
6
CONTINUOUS
10
102.456
20
-120.957
11
102.678
21
-120.523
0
LINE
8
BLACK
6
CONTINUOUS
10
102.678
20
-120.523
11
102.981
21
-120.142
0
LINE
8
BLACK
6
CONTINUOUS
10
102.981
20
-120.142
11
103.352
21
-119.826
0
LINE
8
BLACK
6
CONTINUOUS
10
103.352
20
-119.826
11
103.777
21
-119.589
0
LINE
8
BLACK
6
CONTINUOUS
10
103.777
20
-119.589
11
104.24
21
-119.438
0
LINE
8
BLACK
6
CONTINUOUS
10
104.24
20
-119.438
11
104.723
21
-119.381
0
LINE
8
BLACK
6
CONTINUOUS
10
104.723
20
-119.381
11
105.209
21
-119.418
0
LINE
8
BLACK
6
CONTINUOUS
10
105.209
20
-119.418
11
105.678
21
-119.549
0
LINE
8
BLACK
6
CONTINUOUS
10
105.678
20
-119.549
11
106.112
21
-119.768
0
LINE
8
BLACK
6
CONTINUOUS
10
106.112
20
-119.768
11
106.496
21
-120.068
0
LINE
8
BLACK
6
CONTINUOUS
10
106.496
20
-120.068
11
106.814
21
-120.437
0
LINE
8
BLACK
6
CONTINUOUS
10
106.814
20
-120.437
11
107.055
21
-120.86
0
LINE
8
BLACK
6
CONTINUOUS
10
107.055
20
-120.86
11
107.208
21
-121.322
0
LINE
8
BLACK
6
CONTINUOUS
10
107.208
20
-121.322
11
107.269
21
-121.805
0
LINE
8
BLACK
6
CONTINUOUS
10
107.269
20
-121.805
11
107.27
21
-121.875
0
LINE
8
BLACK
6
CONTINUOUS
10
107.27
20
-121.875
11
107.223
21
-122.36
0
LINE
8
BLACK
6
CONTINUOUS
10
107.223
20
-122.36
11
107.082
21
-122.826
0
LINE
8
BLACK
6
CONTINUOUS
10
107.017
20
-120.951
11
106.795
21
-120.533
0
LINE
8
BLACK
6
CONTINUOUS
10
106.795
20
-120.533
11
106.496
21
-120.166
0
LINE
8
BLACK
6
CONTINUOUS
10
106.496
20
-120.166
11
106.131
21
-119.865
0
LINE
8
BLACK
6
CONTINUOUS
10
106.131
20
-119.865
11
105.715
21
-119.639
0
LINE
8
BLACK
6
CONTINUOUS
10
105.715
20
-119.639
11
105.263
21
-119.5
0
LINE
8
BLACK
6
CONTINUOUS
10
105.263
20
-119.5
11
104.792
21
-119.45
0
LINE
8
BLACK
6
CONTINUOUS
10
104.792
20
-119.45
11
104.321
21
-119.493
0
LINE
8
BLACK
6
CONTINUOUS
10
104.321
20
-119.493
11
103.867
21
-119.627
0
LINE
8
BLACK
6
CONTINUOUS
10
103.867
20
-119.627
11
103.448
21
-119.846
0
LINE
8
BLACK
6
CONTINUOUS
10
103.448
20
-119.846
11
103.079
21
-120.142
0
LINE
8
BLACK
6
CONTINUOUS
10
103.079
20
-120.142
11
102.775
21
-120.505
0
LINE
8
BLACK
6
CONTINUOUS
10
102.775
20
-120.505
11
102.547
21
-120.92
0
LINE
8
BLACK
6
CONTINUOUS
10
102.547
20
-120.92
11
102.403
21
-121.371
0
LINE
8
BLACK
6
CONTINUOUS
10
102.403
20
-121.371
11
102.351
21
-121.841
0
LINE
8
BLACK
6
CONTINUOUS
10
102.351
20
-121.841
11
102.39
21
-122.313
0
LINE
8
BLACK
6
CONTINUOUS
10
102.39
20
-122.313
11
102.521
21
-122.768
0
LINE
8
BLACK
6
CONTINUOUS
10
102.521
20
-122.768
11
102.737
21
-123.189
0
LINE
8
BLACK
6
CONTINUOUS
10
102.737
20
-123.189
11
103.031
21
-123.56
0
LINE
8
BLACK
6
CONTINUOUS
10
103.031
20
-123.56
11
103.391
21
-123.866
0
LINE
8
BLACK
6
CONTINUOUS
10
103.391
20
-123.866
11
103.805
21
-124.097
0
LINE
8
BLACK
6
CONTINUOUS
10
103.805
20
-124.097
11
104.255
21
-124.243
0
LINE
8
BLACK
6
CONTINUOUS
10
104.255
20
-124.243
11
104.725
21
-124.299
0
LINE
8
BLACK
6
CONTINUOUS
10
104.725
20
-124.299
11
105.197
21
-124.263
0
LINE
8
BLACK
6
CONTINUOUS
10
105.197
20
-124.263
11
105.652
21
-124.136
0
LINE
8
BLACK
6
CONTINUOUS
10
105.652
20
-124.136
11
106.075
21
-123.922
0
LINE
8
BLACK
6
CONTINUOUS
10
106.075
20
-123.922
11
106.448
21
-123.631
0
LINE
8
BLACK
6
CONTINUOUS
10
106.448
20
-123.631
11
106.757
21
-123.273
0
LINE
8
BLACK
6
CONTINUOUS
10
106.757
20
-123.273
11
106.991
21
-122.861
0
LINE
8
BLACK
6
CONTINUOUS
10
106.991
20
-122.861
11
107.14
21
-122.412
0
LINE
8
BLACK
6
CONTINUOUS
10
107.14
20
-122.412
11
107.199
21
-121.943
0
LINE
8
BLACK
6
CONTINUOUS
10
107.199
20
-121.943
11
107.2
21
-121.875
0
LINE
8
BLACK
6
CONTINUOUS
10
107.2
20
-121.875
11
107.154
21
-121.404
0
LINE
8
BLACK
6
CONTINUOUS
10
107.154
20
-121.404
11
107.017
21
-120.951
0
LINE
8
BLACK
6
CONTINUOUS
10
145.182
20
-116.442
11
144.954
21
-116.872
0
LINE
8
BLACK
6
CONTINUOUS
10
144.954
20
-116.872
11
144.646
21
-117.249
0
LINE
8
BLACK
6
CONTINUOUS
10
144.646
20
-117.249
11
144.271
21
-117.56
0
LINE
8
BLACK
6
CONTINUOUS
10
144.271
20
-117.56
11
143.842
21
-117.791
0
LINE
8
BLACK
6
CONTINUOUS
10
143.842
20
-117.791
11
143.377
21
-117.935
0
LINE
8
BLACK
6
CONTINUOUS
10
143.377
20
-117.935
11
142.893
21
-117.986
0
LINE
8
BLACK
6
CONTINUOUS
10
142.893
20
-117.986
11
142.408
21
-117.942
0
LINE
8
BLACK
6
CONTINUOUS
10
142.408
20
-117.942
11
141.941
21
-117.804
0
LINE
8
BLACK
6
CONTINUOUS
10
141.941
20
-117.804
11
141.509
21
-117.579
0
LINE
8
BLACK
6
CONTINUOUS
10
141.509
20
-117.579
11
141.13
21
-117.274
0
LINE
8
BLACK
6
CONTINUOUS
10
141.13
20
-117.274
11
140.817
21
-116.901
0
LINE
8
BLACK
6
CONTINUOUS
10
140.817
20
-116.901
11
140.582
21
-116.474
0
LINE
8
BLACK
6
CONTINUOUS
10
140.582
20
-116.474
11
140.435
21
-116.01
0
LINE
8
BLACK
6
CONTINUOUS
10
140.435
20
-116.01
11
140.381
21
-115.526
0
LINE
8
BLACK
6
CONTINUOUS
10
140.381
20
-115.526
11
140.422
21
-115.041
0
LINE
8
BLACK
6
CONTINUOUS
10
140.422
20
-115.041
11
140.556
21
-114.573
0
LINE
8
BLACK
6
CONTINUOUS
10
140.556
20
-114.573
11
140.778
21
-114.14
0
LINE
8
BLACK
6
CONTINUOUS
10
140.778
20
-114.14
11
141.081
21
-113.758
0
LINE
8
BLACK
6
CONTINUOUS
10
141.081
20
-113.758
11
141.452
21
-113.442
0
LINE
8
BLACK
6
CONTINUOUS
10
141.452
20
-113.442
11
141.877
21
-113.205
0
LINE
8
BLACK
6
CONTINUOUS
10
141.877
20
-113.205
11
142.34
21
-113.054
0
LINE
8
BLACK
6
CONTINUOUS
10
142.34
20
-113.054
11
142.823
21
-112.997
0
LINE
8
BLACK
6
CONTINUOUS
10
142.823
20
-112.997
11
143.309
21
-113.034
0
LINE
8
BLACK
6
CONTINUOUS
10
143.309
20
-113.034
11
143.778
21
-113.165
0
LINE
8
BLACK
6
CONTINUOUS
10
143.778
20
-113.165
11
144.212
21
-113.385
0
LINE
8
BLACK
6
CONTINUOUS
10
144.212
20
-113.385
11
144.596
21
-113.684
0
LINE
8
BLACK
6
CONTINUOUS
10
144.596
20
-113.684
11
144.914
21
-114.053
0
LINE
8
BLACK
6
CONTINUOUS
10
144.914
20
-114.053
11
145.155
21
-114.476
0
LINE
8
BLACK
6
CONTINUOUS
10
145.155
20
-114.476
11
145.309
21
-114.938
0
LINE
8
BLACK
6
CONTINUOUS
10
145.309
20
-114.938
11
145.37
21
-115.421
0
LINE
8
BLACK
6
CONTINUOUS
10
145.37
20
-115.421
11
145.371
21
-115.491
0
LINE
8
BLACK
6
CONTINUOUS
10
145.371
20
-115.491
11
145.323
21
-115.976
0
LINE
8
BLACK
6
CONTINUOUS
10
145.323
20
-115.976
11
145.182
21
-116.442
0
LINE
8
BLACK
6
CONTINUOUS
10
145.118
20
-114.567
11
144.895
21
-114.149
0
LINE
8
BLACK
6
CONTINUOUS
10
144.895
20
-114.149
11
144.596
21
-113.782
0
LINE
8
BLACK
6
CONTINUOUS
10
144.596
20
-113.782
11
144.232
21
-113.481
0
LINE
8
BLACK
6
CONTINUOUS
10
144.232
20
-113.481
11
143.815
21
-113.256
0
LINE
8
BLACK
6
CONTINUOUS
10
143.815
20
-113.256
11
143.363
21
-113.116
0
LINE
8
BLACK
6
CONTINUOUS
10
143.363
20
-113.116
11
142.893
21
-113.066
0
LINE
8
BLACK
6
CONTINUOUS
10
142.893
20
-113.066
11
142.421
21
-113.109
0
LINE
8
BLACK
6
CONTINUOUS
10
142.421
20
-113.109
11
141.967
21
-113.243
0
LINE
8
BLACK
6
CONTINUOUS
10
141.967
20
-113.243
11
141.548
21
-113.462
0
LINE
8
BLACK
6
CONTINUOUS
10
141.548
20
-113.462
11
141.179
21
-113.759
0
LINE
8
BLACK
6
CONTINUOUS
10
141.179
20
-113.759
11
140.875
21
-114.121
0
LINE
8
BLACK
6
CONTINUOUS
10
140.875
20
-114.121
11
140.647
21
-114.536
0
LINE
8
BLACK
6
CONTINUOUS
10
140.647
20
-114.536
11
140.504
21
-114.987
0
LINE
8
BLACK
6
CONTINUOUS
10
140.504
20
-114.987
11
140.451
21
-115.457
0
LINE
8
BLACK
6
CONTINUOUS
10
140.451
20
-115.457
11
140.49
21
-115.929
0
LINE
8
BLACK
6
CONTINUOUS
10
140.49
20
-115.929
11
140.621
21
-116.384
0
LINE
8
BLACK
6
CONTINUOUS
10
140.621
20
-116.384
11
140.837
21
-116.805
0
LINE
8
BLACK
6
CONTINUOUS
10
140.837
20
-116.805
11
141.131
21
-117.176
0
LINE
8
BLACK
6
CONTINUOUS
10
141.131
20
-117.176
11
141.492
21
-117.482
0
LINE
8
BLACK
6
CONTINUOUS
10
141.492
20
-117.482
11
141.905
21
-117.713
0
LINE
8
BLACK
6
CONTINUOUS
10
141.905
20
-117.713
11
142.355
21
-117.86
0
LINE
8
BLACK
6
CONTINUOUS
10
142.355
20
-117.86
11
142.825
21
-117.916
0
LINE
8
BLACK
6
CONTINUOUS
10
142.825
20
-117.916
11
143.297
21
-117.879
0
LINE
8
BLACK
6
CONTINUOUS
10
143.297
20
-117.879
11
143.753
21
-117.752
0
LINE
8
BLACK
6
CONTINUOUS
10
143.753
20
-117.752
11
144.175
21
-117.539
0
LINE
8
BLACK
6
CONTINUOUS
10
144.175
20
-117.539
11
144.548
21
-117.247
0
LINE
8
BLACK
6
CONTINUOUS
10
144.548
20
-117.247
11
144.857
21
-116.889
0
LINE
8
BLACK
6
CONTINUOUS
10
144.857
20
-116.889
11
145.091
21
-116.477
0
LINE
8
BLACK
6
CONTINUOUS
10
145.091
20
-116.477
11
145.24
21
-116.028
0
LINE
8
BLACK
6
CONTINUOUS
10
145.24
20
-116.028
11
145.3
21
-115.559
0
LINE
8
BLACK
6
CONTINUOUS
10
145.3
20
-115.559
11
145.301
21
-115.491
0
LINE
8
BLACK
6
CONTINUOUS
10
145.301
20
-115.491
11
145.254
21
-115.02
0
LINE
8
BLACK
6
CONTINUOUS
10
145.254
20
-115.02
11
145.118
21
-114.567
0
LINE
8
BLACK
6
CONTINUOUS
10
107.082
20
-103.776
11
106.854
21
-104.206
0
LINE
8
BLACK
6
CONTINUOUS
10
106.854
20
-104.206
11
106.546
21
-104.583
0
LINE
8
BLACK
6
CONTINUOUS
10
106.546
20
-104.583
11
106.171
21
-104.893
0
LINE
8
BLACK
6
CONTINUOUS
10
106.171
20
-104.893
11
105.742
21
-105.125
0
LINE
8
BLACK
6
CONTINUOUS
10
105.742
20
-105.125
11
105.277
21
-105.269
0
LINE
8
BLACK
6
CONTINUOUS
10
105.277
20
-105.269
11
104.793
21
-105.32
0
LINE
8
BLACK
6
CONTINUOUS
10
104.793
20
-105.32
11
104.308
21
-105.276
0
LINE
8
BLACK
6
CONTINUOUS
10
104.308
20
-105.276
11
103.841
21
-105.138
0
LINE
8
BLACK
6
CONTINUOUS
10
103.841
20
-105.138
11
103.409
21
-104.913
0
LINE
8
BLACK
6
CONTINUOUS
10
103.409
20
-104.913
11
103.03
21
-104.608
0
LINE
8
BLACK
6
CONTINUOUS
10
103.03
20
-104.608
11
102.717
21
-104.235
0
LINE
8
BLACK
6
CONTINUOUS
10
102.717
20
-104.235
11
102.482
21
-103.808
0
LINE
8
BLACK
6
CONTINUOUS
10
102.482
20
-103.808
11
102.335
21
-103.344
0
LINE
8
BLACK
6
CONTINUOUS
10
102.335
20
-103.344
11
102.281
21
-102.86
0
LINE
8
BLACK
6
CONTINUOUS
10
102.281
20
-102.86
11
102.321
21
-102.375
0
LINE
8
BLACK
6
CONTINUOUS
10
102.321
20
-102.375
11
102.456
21
-101.907
0
LINE
8
BLACK
6
CONTINUOUS
10
102.456
20
-101.907
11
102.678
21
-101.473
0
LINE
8
BLACK
6
CONTINUOUS
10
102.678
20
-101.473
11
102.981
21
-101.092
0
LINE
8
BLACK
6
CONTINUOUS
10
102.981
20
-101.092
11
103.352
21
-100.776
0
LINE
8
BLACK
6
CONTINUOUS
10
103.352
20
-100.776
11
103.777
21
-100.539
0
LINE
8
BLACK
6
CONTINUOUS
10
103.777
20
-100.539
11
104.24
21
-100.388
0
LINE
8
BLACK
6
CONTINUOUS
10
104.24
20
-100.388
11
104.723
21
-100.331
0
LINE
8
BLACK
6
CONTINUOUS
10
104.723
20
-100.331
11
105.209
21
-100.368
0
LINE
8
BLACK
6
CONTINUOUS
10
105.209
20
-100.368
11
105.678
21
-100.499
0
LINE
8
BLACK
6
CONTINUOUS
10
105.678
20
-100.499
11
106.112
21
-100.718
0
LINE
8
BLACK
6
CONTINUOUS
10
106.112
20
-100.718
11
106.496
21
-101.018
0
LINE
8
BLACK
6
CONTINUOUS
10
106.496
20
-101.018
11
106.814
21
-101.387
0
LINE
8
BLACK
6
CONTINUOUS
10
106.814
20
-101.387
11
107.055
21
-101.81
0
LINE
8
BLACK
6
CONTINUOUS
10
107.055
20
-101.81
11
107.208
21
-102.272
0
LINE
8
BLACK
6
CONTINUOUS
10
107.208
20
-102.272
11
107.269
21
-102.755
0
LINE
8
BLACK
6
CONTINUOUS
10
107.269
20
-102.755
11
107.27
21
-102.825
0
LINE
8
BLACK
6
CONTINUOUS
10
107.27
20
-102.825
11
107.223
21
-103.31
0
LINE
8
BLACK
6
CONTINUOUS
10
107.223
20
-103.31
11
107.082
21
-103.776
0
LINE
8
BLACK
6
CONTINUOUS
10
107.017
20
-101.901
11
106.795
21
-101.483
0
LINE
8
BLACK
6
CONTINUOUS
10
106.795
20
-101.483
11
106.496
21
-101.116
0
LINE
8
BLACK
6
CONTINUOUS
10
106.496
20
-101.116
11
106.131
21
-100.815
0
LINE
8
BLACK
6
CONTINUOUS
10
106.131
20
-100.815
11
105.715
21
-100.589
0
LINE
8
BLACK
6
CONTINUOUS
10
105.715
20
-100.589
11
105.263
21
-100.45
0
LINE
8
BLACK
6
CONTINUOUS
10
105.263
20
-100.45
11
104.792
21
-100.4
0
LINE
8
BLACK
6
CONTINUOUS
10
104.792
20
-100.4
11
104.321
21
-100.443
0
LINE
8
BLACK
6
CONTINUOUS
10
104.321
20
-100.443
11
103.867
21
-100.577
0
LINE
8
BLACK
6
CONTINUOUS
10
103.867
20
-100.577
11
103.448
21
-100.796
0
LINE
8
BLACK
6
CONTINUOUS
10
103.448
20
-100.796
11
103.079
21
-101.092
0
LINE
8
BLACK
6
CONTINUOUS
10
103.079
20
-101.092
11
102.775
21
-101.455
0
LINE
8
BLACK
6
CONTINUOUS
10
102.775
20
-101.455
11
102.547
21
-101.87
0
LINE
8
BLACK
6
CONTINUOUS
10
102.547
20
-101.87
11
102.403
21
-102.321
0
LINE
8
BLACK
6
CONTINUOUS
10
102.403
20
-102.321
11
102.351
21
-102.791
0
LINE
8
BLACK
6
CONTINUOUS
10
102.351
20
-102.791
11
102.39
21
-103.263
0
LINE
8
BLACK
6
CONTINUOUS
10
102.39
20
-103.263
11
102.521
21
-103.718
0
LINE
8
BLACK
6
CONTINUOUS
10
102.521
20
-103.718
11
102.737
21
-104.139
0
LINE
8
BLACK
6
CONTINUOUS
10
102.737
20
-104.139
11
103.031
21
-104.51
0
LINE
8
BLACK
6
CONTINUOUS
10
103.031
20
-104.51
11
103.391
21
-104.816
0
LINE
8
BLACK
6
CONTINUOUS
10
103.391
20
-104.816
11
103.805
21
-105.047
0
LINE
8
BLACK
6
CONTINUOUS
10
103.805
20
-105.047
11
104.255
21
-105.193
0
LINE
8
BLACK
6
CONTINUOUS
10
104.255
20
-105.193
11
104.725
21
-105.249
0
LINE
8
BLACK
6
CONTINUOUS
10
104.725
20
-105.249
11
105.197
21
-105.213
0
LINE
8
BLACK
6
CONTINUOUS
10
105.197
20
-105.213
11
105.652
21
-105.086
0
LINE
8
BLACK
6
CONTINUOUS
10
105.652
20
-105.086
11
106.075
21
-104.872
0
LINE
8
BLACK
6
CONTINUOUS
10
106.075
20
-104.872
11
106.448
21
-104.581
0
LINE
8
BLACK
6
CONTINUOUS
10
106.448
20
-104.581
11
106.757
21
-104.223
0
LINE
8
BLACK
6
CONTINUOUS
10
106.757
20
-104.223
11
106.991
21
-103.811
0
LINE
8
BLACK
6
CONTINUOUS
10
106.991
20
-103.811
11
107.14
21
-103.362
0
LINE
8
BLACK
6
CONTINUOUS
10
107.14
20
-103.362
11
107.199
21
-102.893
0
LINE
8
BLACK
6
CONTINUOUS
10
107.199
20
-102.893
11
107.2
21
-102.825
0
LINE
8
BLACK
6
CONTINUOUS
10
107.2
20
-102.825
11
107.154
21
-102.354
0
LINE
8
BLACK
6
CONTINUOUS
10
107.154
20
-102.354
11
107.017
21
-101.901
0
LINE
8
BLACK
6
CONTINUOUS
10
183.283
20
-81.9136
11
183.054
21
-82.3436
0
LINE
8
BLACK
6
CONTINUOUS
10
183.054
20
-82.3436
11
182.746
21
-82.7209
0
LINE
8
BLACK
6
CONTINUOUS
10
182.746
20
-82.7209
11
182.371
21
-83.0313
0
LINE
8
BLACK
6
CONTINUOUS
10
182.371
20
-83.0313
11
181.943
21
-83.2629
0
LINE
8
BLACK
6
CONTINUOUS
10
181.943
20
-83.2629
11
181.477
21
-83.4069
0
LINE
8
BLACK
6
CONTINUOUS
10
181.477
20
-83.4069
11
180.993
21
-83.4578
0
LINE
8
BLACK
6
CONTINUOUS
10
180.993
20
-83.4578
11
180.508
21
-83.4136
0
LINE
8
BLACK
6
CONTINUOUS
10
180.508
20
-83.4136
11
180.041
21
-83.2762
0
LINE
8
BLACK
6
CONTINUOUS
10
180.041
20
-83.2762
11
179.61
21
-83.0506
0
LINE
8
BLACK
6
CONTINUOUS
10
179.61
20
-83.0506
11
179.23
21
-82.7454
0
LINE
8
BLACK
6
CONTINUOUS
10
179.23
20
-82.7454
11
178.917
21
-82.3724
0
LINE
8
BLACK
6
CONTINUOUS
10
178.917
20
-82.3724
11
178.683
21
-81.9457
0
LINE
8
BLACK
6
CONTINUOUS
10
178.683
20
-81.9457
11
178.535
21
-81.4816
0
LINE
8
BLACK
6
CONTINUOUS
10
178.535
20
-81.4816
11
178.481
21
-80.9977
0
LINE
8
BLACK
6
CONTINUOUS
10
178.481
20
-80.9977
11
178.522
21
-80.5124
0
LINE
8
BLACK
6
CONTINUOUS
10
178.522
20
-80.5124
11
178.656
21
-80.0444
0
LINE
8
BLACK
6
CONTINUOUS
10
178.656
20
-80.0444
11
178.879
21
-79.6113
0
LINE
8
BLACK
6
CONTINUOUS
10
178.879
20
-79.6113
11
179.181
21
-79.2297
0
LINE
8
BLACK
6
CONTINUOUS
10
179.181
20
-79.2297
11
179.552
21
-78.9141
0
LINE
8
BLACK
6
CONTINUOUS
10
179.552
20
-78.9141
11
179.977
21
-78.6765
0
LINE
8
BLACK
6
CONTINUOUS
10
179.977
20
-78.6765
11
180.44
21
-78.526
0
LINE
8
BLACK
6
CONTINUOUS
10
180.44
20
-78.526
11
180.924
21
-78.4684
0
LINE
8
BLACK
6
CONTINUOUS
10
180.924
20
-78.4684
11
181.409
21
-78.5057
0
LINE
8
BLACK
6
CONTINUOUS
10
181.409
20
-78.5057
11
181.878
21
-78.6367
0
LINE
8
BLACK
6
CONTINUOUS
10
181.878
20
-78.6367
11
182.313
21
-78.8562
0
LINE
8
BLACK
6
CONTINUOUS
10
182.313
20
-78.8562
11
182.696
21
-79.156
0
LINE
8
BLACK
6
CONTINUOUS
10
182.696
20
-79.156
11
183.015
21
-79.5246
0
LINE
8
BLACK
6
CONTINUOUS
10
183.015
20
-79.5246
11
183.255
21
-79.948
0
LINE
8
BLACK
6
CONTINUOUS
10
183.255
20
-79.948
11
183.409
21
-80.4101
0
LINE
8
BLACK
6
CONTINUOUS
10
183.409
20
-80.4101
11
183.47
21
-80.8932
0
LINE
8
BLACK
6
CONTINUOUS
10
183.47
20
-80.8932
11
183.471
21
-80.9628
0
LINE
8
BLACK
6
CONTINUOUS
10
183.471
20
-80.9628
11
183.423
21
-81.4475
0
LINE
8
BLACK
6
CONTINUOUS
10
183.423
20
-81.4475
11
183.283
21
-81.9136
0
LINE
8
BLACK
6
CONTINUOUS
10
183.218
20
-80.0387
11
182.996
21
-79.6209
0
LINE
8
BLACK
6
CONTINUOUS
10
182.996
20
-79.6209
11
182.696
21
-79.2541
0
LINE
8
BLACK
6
CONTINUOUS
10
182.696
20
-79.2541
11
182.332
21
-78.9524
0
LINE
8
BLACK
6
CONTINUOUS
10
182.332
20
-78.9524
11
181.915
21
-78.7273
0
LINE
8
BLACK
6
CONTINUOUS
10
181.915
20
-78.7273
11
181.463
21
-78.5874
0
LINE
8
BLACK
6
CONTINUOUS
10
181.463
20
-78.5874
11
180.993
21
-78.5379
0
LINE
8
BLACK
6
CONTINUOUS
10
180.993
20
-78.5379
11
180.521
21
-78.5808
0
LINE
8
BLACK
6
CONTINUOUS
10
180.521
20
-78.5808
11
180.067
21
-78.7144
0
LINE
8
BLACK
6
CONTINUOUS
10
180.067
20
-78.7144
11
179.648
21
-78.9337
0
LINE
8
BLACK
6
CONTINUOUS
10
179.648
20
-78.9337
11
179.279
21
-79.2302
0
LINE
8
BLACK
6
CONTINUOUS
10
179.279
20
-79.2302
11
178.975
21
-79.5928
0
LINE
8
BLACK
6
CONTINUOUS
10
178.975
20
-79.5928
11
178.747
21
-80.0075
0
LINE
8
BLACK
6
CONTINUOUS
10
178.747
20
-80.0075
11
178.604
21
-80.4587
0
LINE
8
BLACK
6
CONTINUOUS
10
178.604
20
-80.4587
11
178.551
21
-80.929
0
LINE
8
BLACK
6
CONTINUOUS
10
178.551
20
-80.929
11
178.591
21
-81.4006
0
LINE
8
BLACK
6
CONTINUOUS
10
178.591
20
-81.4006
11
178.721
21
-81.8555
0
LINE
8
BLACK
6
CONTINUOUS
10
178.721
20
-81.8555
11
178.937
21
-82.2765
0
LINE
8
BLACK
6
CONTINUOUS
10
178.937
20
-82.2765
11
179.231
21
-82.6474
0
LINE
8
BLACK
6
CONTINUOUS
10
179.231
20
-82.6474
11
179.592
21
-82.9541
0
LINE
8
BLACK
6
CONTINUOUS
10
179.592
20
-82.9541
11
180.005
21
-83.185
0
LINE
8
BLACK
6
CONTINUOUS
10
180.005
20
-83.185
11
180.455
21
-83.3313
0
LINE
8
BLACK
6
CONTINUOUS
10
180.455
20
-83.3313
11
180.925
21
-83.3873
0
LINE
8
BLACK
6
CONTINUOUS
10
180.925
20
-83.3873
11
181.397
21
-83.351
0
LINE
8
BLACK
6
CONTINUOUS
10
181.397
20
-83.351
11
181.853
21
-83.2237
0
LINE
8
BLACK
6
CONTINUOUS
10
181.853
20
-83.2237
11
182.275
21
-83.0103
0
LINE
8
BLACK
6
CONTINUOUS
10
182.275
20
-83.0103
11
182.648
21
-82.719
0
LINE
8
BLACK
6
CONTINUOUS
10
182.648
20
-82.719
11
182.957
21
-82.3607
0
LINE
8
BLACK
6
CONTINUOUS
10
182.957
20
-82.3607
11
183.191
21
-81.9492
0
LINE
8
BLACK
6
CONTINUOUS
10
183.191
20
-81.9492
11
183.34
21
-81.5001
0
LINE
8
BLACK
6
CONTINUOUS
10
183.34
20
-81.5001
11
183.4
21
-81.0305
0
LINE
8
BLACK
6
CONTINUOUS
10
183.4
20
-81.0305
11
183.401
21
-80.9628
0
LINE
8
BLACK
6
CONTINUOUS
10
183.401
20
-80.9628
11
183.355
21
-80.4918
0
LINE
8
BLACK
6
CONTINUOUS
10
183.355
20
-80.4918
11
183.218
21
-80.0387
  0
ENDSEC
  0
EOF
