0
SECTION
2
HEADER
9
$INSUNITS
70
4
9
$ACADVER
1
AC1014
9
$HANDSEED
5
FFFF
0
ENDSEC
0
SECTION
2
TABLES
0
TABLE
2
VPORT
5
8
100
AcDbSymbolTable
0
ENDTAB
0
TABLE
2
LTYPE
5
5
100
AcDbSymbolTable
0
LTYPE
5
14
100
AcDbSymbolTableRecord
100
AcDbLinetypeTableRecord
2
BYBLOCK
70
0
0
LTYPE
5
15
100
AcDbSymbolTableRecord
100
AcDbLinetypeTableRecord
2
BYLAYER
70
0
0
ENDTAB
0
TABLE
2
LAYER
5
2
100
AcDbSymbolTable
70
2
0
LAYER
5
50
100
AcDbSymbolTableRecord
100
AcDbLayerTableRecord
2
0
70
0
6
CONTINUOUS
0
ENDTAB
0
TABLE
2
STYLE
5
3
100
AcDbSymbolTable
70
1
0
STYLE
5
11
100
AcDbSymbolTableRecord
100
AcDbTextStyleTableRecord
2
STANDARD
70
0
0
ENDTAB
0
TABLE
2
VIEW
5
6
100
AcDbSymbolTable
70
0
0
ENDTAB
0
TABLE
2
UCS
5
7
100
AcDbSymbolTable
70
0
0
ENDTAB
0
TABLE
2
APPID
5
9
100
AcDbSymbolTable
70
2
0
APPID
5
12
100
AcDbSymbolTableRecord
100
AcDbRegAppTableRecord
2
ACAD
70
0
0
ENDTAB
0
TABLE
2
DIMSTYLE
5
A
100
AcDbSymbolTable
70
1
0
ENDTAB
0
TABLE
2
BLOCK_RECORD
5
1
100
AcDbSymbolTable
70
1
0
BLOCK_RECORD
5
1F
100
AcDbSymbolTableRecord
100
AcDbBlockTableRecord
2
*MODEL_SPACE
0
BLOCK_RECORD
5
1B
100
AcDbSymbolTableRecord
100
AcDbBlockTableRecord
2
*PAPER_SPACE
0
ENDTAB
0
ENDSEC
0
SECTION
2
BLOCKS
0
BLOCK
5
20
100
AcDbEntity
100
AcDbBlockBegin
2
*MODEL_SPACE
0
ENDBLK
5
21
100
AcDbEntity
100
AcDbBlockEnd
0
BLOCK
5
1C
100
AcDbEntity
100
AcDbBlockBegin
2
*PAPER_SPACE
0
ENDBLK
5
1D
100
AcDbEntity
100
AcDbBlockEnd
0
ENDSEC
0
SECTION
2
ENTITIES
0
LWPOLYLINE
5
100
100
AcDbEntity
8
0
100
AcDbPolyline
90
16
70
1
43
0.0
10
116.419
20
-68.7941
10
116.419
20
-74.747200000000007
10
81.747200000000007
20
-74.747200000000021
10
74.747200000000021
20
-74.747200000000021
10
74.747200000000021
20
-81.747200000000007
10
74.747200000000021
20
-143.28200000000004
10
74.747200000000021
20
-150.28200000000001
10
81.747200000000007
20
-150.28200000000001
10
131.71634444605019
20
-150.28200000000001
10
157.54111538161956
20
-169.05988794696731
10
205.58190854578558
20
-177.26478084763141
10
212.48194049153241
20
-178.44323814188445
10
213.65468931370793
20
-171.57663009693442
10
218.52024991543882
20
-144.32900000000001
10
234.767
20
-144.32900000000001
10
234.767
20
-68.7941
0
LWPOLYLINE
5
101
100
AcDbEntity
8
0
100
AcDbPolyline
90
30
70
1
43
0.0
10
163.00000001490116
20
-75.124999985098839
10
163.00000001490116
20
-79.887499985098856
10
201.10000001490118
20
-79.887499985098856
10
201.10000001490118
20
-139.18800001490115
10
167.31988526360686
20
-139.18800001490115
10
182.59006947678631
20
-139.98776373869993
10
181.84544123290547
20
-154.20448129456187
10
184.39948607126379
20
-139.72049387029739
10
187.64935570229454
20
-140.29356208100072
10
206.55728914183456
20
-143.62788310675376
10
209.80714988704793
20
-144.20094962506562
10
206.12551481936742
20
-165.07950543434117
10
202.87564516672401
20
-164.50643734528973
10
183.96771082129302
20
-161.17211688674428
10
181.50325925930517
20
-160.73754596321982
10
181.48118056635599
20
-161.15908052659478
10
160.30995087196976
20
-160.04990007709739
10
161.40257625528767
20
-139.18800001490115
10
160.84999998509883
20
-139.18800001490115
10
160.84999998509883
20
-134.42492923206026
10
143.95000001490115
20
-134.42373295972965
10
143.95000001490115
20
-136.80600001490117
10
124.89999777615488
20
-136.80600001490117
10
124.90000054553569
20
-142.02500001490117
10
84.649999985098844
20
-142.02500001490117
10
84.649999985098844
20
-82.724999985098847
10
122.74999998509884
20
-82.724999985098847
10
122.74999998509884
20
-77.506199985098846
10
141.79999998509885
20
-77.506199985098846
10
141.79999998509885
20
-75.124999985098839
0
ENDSEC
0
SECTION
2
OBJECTS
0
DICTIONARY
5
C
100
AcDbDictionary
3
ACAD_GROUP
350
D
3
ACAD_MLINESTYLE
350
17
0
DICTIONARY
5
D
100
AcDbDictionary
0
DICTIONARY
5
1A
330
C
100
AcDbDictionary
0
DICTIONARY
5
17
100
AcDbDictionary
0
ENDSEC
0
EOF
