  0
SECTION
  2
HEADER
  9
$ANGBASE
  50
0.0
  9
$ANGDIR
  70
  1
  9
$MEASUREMENT
  70
0
  0
ENDSEC
  0
SECTION
  2
TABLES
  0
TABLE
  2
LTYPE
  70
4
  0
LTYPE
  5
40F
  2
CONTINUOUS
  70
0
  3
Solid line
  72
65
  73
0
  40
0.0
  0
LTYPE
  5
410
  2
DASHDOT
 70
0
  3
Dash Dot ____ _ ____ _
 72
65
 73
4
 40
2.0
 49
1.25
 49
-0.25
 49
0.25
 49
-0.25
  0
LTYPE
  5
411
  2
DASHED
 70
0
  3
Dashed __ __ __ __ __
 72
65
 73
2
 40
0.75
 49
0.5
 49
-0.25
  0
LTYPE
  5
43B
  2
DOTTED
 70
0
  3
Dotted .  .  .  .
 72
65
 73
2
 40
0.2
 49
0.0
 49
-0.2
  0
ENDTAB
  0
TABLE
  2
STYLE
  70
4
  0
STYLE
  2
KICAD
  70
0
  40
0
  41
1
  42
1
  50
0
  71
0
  3
isocp.shx
  0
STYLE
  2
KICADB
  70
0
  40
0
  41
1
  42
1
  50
0
  71
0
  3
isocp.shx
  0
STYLE
  2
KICADI
  70
0
  40
0
  41
1
  42
1
  50
15
  71
0
  3
isocp.shx
  0
STYLE
  2
KICADBI
  70
0
  40
0
  41
1
  42
1
  50
15
  71
0
  3
isocp.shx
  0
ENDTAB
  0
TABLE
  2
LAYER
  70
30
  0
LAYER
  2
BLACK
  70
0
  62
7
  6
CONTINUOUS
  0
LAYER
  2
GRAY1
  70
0
  62
251
  6
CONTINUOUS
  0
LAYER
  2
GRAY2
  70
0
  62
8
  6
CONTINUOUS
  0
LAYER
  2
GRAY3
  70
0
  62
9
  6
CONTINUOUS
  0
LAYER
  2
WHITE
  70
0
  62
7
  6
CONTINUOUS
  0
LAYER
  2
LYELLOW
  70
0
  62
51
  6
CONTINUOUS
  0
LAYER
  2
BLUE1
  70
0
  62
178
  6
CONTINUOUS
  0
LAYER
  2
GREEN1
  70
0
  62
98
  6
CONTINUOUS
  0
LAYER
  2
CYAN1
  70
0
  62
138
  6
CONTINUOUS
  0
LAYER
  2
RED1
  70
0
  62
18
  6
CONTINUOUS
  0
LAYER
  2
MAGENTA1
  70
0
  62
228
  6
CONTINUOUS
  0
LAYER
  2
BROWN1
  70
0
  62
58
  6
CONTINUOUS
  0
LAYER
  2
BLUE2
  70
0
  62
5
  6
CONTINUOUS
  0
LAYER
  2
GREEN2
  70
0
  62
3
  6
CONTINUOUS
  0
LAYER
  2
CYAN2
  70
0
  62
4
  6
CONTINUOUS
  0
LAYER
  2
RED2
  70
0
  62
1
  6
CONTINUOUS
  0
LAYER
  2
MAGENTA2
  70
0
  62
6
  6
CONTINUOUS
  0
LAYER
  2
BROWN2
  70
0
  62
54
  6
CONTINUOUS
  0
LAYER
  2
BLUE3
  70
0
  62
171
  6
CONTINUOUS
  0
LAYER
  2
GREEN3
  70
0
  62
91
  6
CONTINUOUS
  0
LAYER
  2
CYAN3
  70
0
  62
131
  6
CONTINUOUS
  0
LAYER
  2
RED3
  70
0
  62
11
  6
CONTINUOUS
  0
LAYER
  2
MAGENTA3
  70
0
  62
221
  6
CONTINUOUS
  0
LAYER
  2
YELLOW3
  70
0
  62
2
  6
CONTINUOUS
  0
LAYER
  2
BLUE4
  70
0
  62
5
  6
CONTINUOUS
  0
LAYER
  2
GREEN4
  70
0
  62
3
  6
CONTINUOUS
  0
LAYER
  2
CYAN4
  70
0
  62
4
  6
CONTINUOUS
  0
LAYER
  2
RED4
  70
0
  62
1
  6
CONTINUOUS
  0
LAYER
  2
MAGENTA4
  70
0
  62
6
  6
CONTINUOUS
  0
LAYER
  2
YELLOW4
  70
0
  62
2
  6
CONTINUOUS
  0
ENDTAB
  0
ENDSEC
  0
SECTION
  2
ENTITIES
0
LINE
8
BLACK
6
CONTINUOUS
10
208.385
20
-172.644
11
208.385
21
-172.646
0
LINE
8
BLACK
6
CONTINUOUS
10
208.385
20
-172.646
11
208.385
21
-172.647
0
LINE
8
BLACK
6
CONTINUOUS
10
208.385
20
-172.647
11
208.385
21
-172.647
0
LINE
8
BLACK
6
CONTINUOUS
10
208.385
20
-172.647
11
208.384
21
-172.648
0
LINE
8
BLACK
6
CONTINUOUS
10
208.384
20
-172.648
11
208.384
21
-172.65
0
LINE
8
BLACK
6
CONTINUOUS
10
208.384
20
-172.65
11
208.384
21
-172.65
0
LINE
8
BLACK
6
CONTINUOUS
10
208.384
20
-172.65
11
208.384
21
-172.651
0
LINE
8
BLACK
6
CONTINUOUS
10
208.384
20
-172.651
11
208.383
21
-172.653
0
LINE
8
BLACK
6
CONTINUOUS
10
208.383
20
-172.653
11
208.382
21
-172.655
0
LINE
8
BLACK
6
CONTINUOUS
10
208.382
20
-172.655
11
208.381
21
-172.655
0
LINE
8
BLACK
6
CONTINUOUS
10
208.381
20
-172.655
11
208.381
21
-172.655
0
LINE
8
BLACK
6
CONTINUOUS
10
208.381
20
-172.655
11
208.38
21
-172.657
0
LINE
8
BLACK
6
CONTINUOUS
10
208.38
20
-172.657
11
208.378
21
-172.659
0
LINE
8
BLACK
6
CONTINUOUS
10
208.378
20
-172.659
11
208.378
21
-172.659
0
LINE
8
BLACK
6
CONTINUOUS
10
208.378
20
-172.659
11
208.378
21
-172.659
0
LINE
8
BLACK
6
CONTINUOUS
10
208.378
20
-172.659
11
208.377
21
-172.66
0
LINE
8
BLACK
6
CONTINUOUS
10
208.377
20
-172.66
11
208.375
21
-172.662
0
LINE
8
BLACK
6
CONTINUOUS
10
208.375
20
-172.662
11
208.375
21
-172.662
0
LINE
8
BLACK
6
CONTINUOUS
10
208.375
20
-172.662
11
208.375
21
-172.662
0
LINE
8
BLACK
6
CONTINUOUS
10
208.375
20
-172.662
11
208.373
21
-172.663
0
LINE
8
BLACK
6
CONTINUOUS
10
208.373
20
-172.663
11
208.37
21
-172.664
0
LINE
8
BLACK
6
CONTINUOUS
10
208.37
20
-172.664
11
208.37
21
-172.664
0
LINE
8
BLACK
6
CONTINUOUS
10
208.37
20
-172.664
11
208.37
21
-172.664
0
LINE
8
BLACK
6
CONTINUOUS
10
208.37
20
-172.664
11
208.368
21
-172.665
0
LINE
8
BLACK
6
CONTINUOUS
10
208.368
20
-172.665
11
208.366
21
-172.666
0
LINE
8
BLACK
6
CONTINUOUS
10
208.366
20
-172.666
11
208.366
21
-172.666
0
LINE
8
BLACK
6
CONTINUOUS
10
208.366
20
-172.666
11
208.366
21
-172.666
0
LINE
8
BLACK
6
CONTINUOUS
10
208.366
20
-172.666
11
208.363
21
-172.666
0
LINE
8
BLACK
6
CONTINUOUS
10
208.363
20
-172.666
11
208.361
21
-172.666
0
LINE
8
BLACK
6
CONTINUOUS
10
208.361
20
-172.666
11
208.361
21
-172.666
0
LINE
8
BLACK
6
CONTINUOUS
10
208.361
20
-172.666
11
208.361
21
-172.666
0
LINE
8
BLACK
6
CONTINUOUS
10
208.361
20
-172.666
11
208.358
21
-172.666
0
LINE
8
BLACK
6
CONTINUOUS
10
208.358
20
-172.666
11
208.357
21
-172.666
0
LINE
8
BLACK
6
CONTINUOUS
10
208.357
20
-172.666
11
208.357
21
-172.666
0
LINE
8
BLACK
6
CONTINUOUS
10
208.357
20
-172.666
11
208.356
21
-172.666
0
LINE
8
BLACK
6
CONTINUOUS
10
208.356
20
-172.666
11
208.355
21
-172.666
0
LINE
8
BLACK
6
CONTINUOUS
10
208.355
20
-172.666
11
159.541
21
-164.332
0
LINE
8
BLACK
6
CONTINUOUS
10
159.541
20
-164.332
11
159.539
21
-164.331
0
LINE
8
BLACK
6
CONTINUOUS
10
159.539
20
-164.331
11
159.537
21
-164.331
0
LINE
8
BLACK
6
CONTINUOUS
10
159.537
20
-164.331
11
159.535
21
-164.33
0
LINE
8
BLACK
6
CONTINUOUS
10
159.535
20
-164.33
11
159.535
21
-164.33
0
LINE
8
BLACK
6
CONTINUOUS
10
159.535
20
-164.33
11
159.534
21
-164.33
0
LINE
8
BLACK
6
CONTINUOUS
10
159.534
20
-164.33
11
159.532
21
-164.329
0
LINE
8
BLACK
6
CONTINUOUS
10
159.532
20
-164.329
11
159.531
21
-164.328
0
LINE
8
BLACK
6
CONTINUOUS
10
159.531
20
-164.328
11
159.529
21
-164.327
0
LINE
8
BLACK
6
CONTINUOUS
10
159.529
20
-164.327
11
133.342
21
-145.282
0
LINE
8
BLACK
6
CONTINUOUS
10
133.342
20
-145.282
11
80.9616
21
-145.282
0
LINE
8
BLACK
6
CONTINUOUS
10
80.9616
20
-145.282
11
80.9604
21
-145.282
0
LINE
8
BLACK
6
CONTINUOUS
10
80.9604
20
-145.282
11
80.9604
21
-145.282
0
LINE
8
BLACK
6
CONTINUOUS
10
80.9604
20
-145.282
11
80.7291
21
-145.259
0
LINE
8
BLACK
6
CONTINUOUS
10
80.7291
20
-145.259
11
80.7288
21
-145.259
0
LINE
8
BLACK
6
CONTINUOUS
10
80.7288
20
-145.259
11
80.7265
21
-145.259
0
LINE
8
BLACK
6
CONTINUOUS
10
80.7265
20
-145.259
11
80.7244
21
-145.258
0
LINE
8
BLACK
6
CONTINUOUS
10
80.7244
20
-145.258
11
80.5019
21
-145.191
0
LINE
8
BLACK
6
CONTINUOUS
10
80.5019
20
-145.191
11
80.5016
21
-145.191
0
LINE
8
BLACK
6
CONTINUOUS
10
80.5016
20
-145.191
11
80.4995
21
-145.19
0
LINE
8
BLACK
6
CONTINUOUS
10
80.4995
20
-145.19
11
80.4974
21
-145.189
0
LINE
8
BLACK
6
CONTINUOUS
10
80.4974
20
-145.189
11
80.2922
21
-145.08
0
LINE
8
BLACK
6
CONTINUOUS
10
80.2922
20
-145.08
11
80.2919
21
-145.08
0
LINE
8
BLACK
6
CONTINUOUS
10
80.2919
20
-145.08
11
80.29
21
-145.079
0
LINE
8
BLACK
6
CONTINUOUS
10
80.29
20
-145.079
11
80.2882
21
-145.077
0
LINE
8
BLACK
6
CONTINUOUS
10
80.2882
20
-145.077
11
80.1081
21
-144.93
0
LINE
8
BLACK
6
CONTINUOUS
10
80.1081
20
-144.93
11
80.1078
21
-144.93
0
LINE
8
BLACK
6
CONTINUOUS
10
80.1078
20
-144.93
11
80.1062
21
-144.929
0
LINE
8
BLACK
6
CONTINUOUS
10
80.1062
20
-144.929
11
80.1046
21
-144.927
0
LINE
8
BLACK
6
CONTINUOUS
10
80.1046
20
-144.927
11
79.9565
21
-144.748
0
LINE
8
BLACK
6
CONTINUOUS
10
79.9565
20
-144.748
11
79.9563
21
-144.748
0
LINE
8
BLACK
6
CONTINUOUS
10
79.9563
20
-144.748
11
79.955
21
-144.746
0
LINE
8
BLACK
6
CONTINUOUS
10
79.955
20
-144.746
11
79.9538
21
-144.744
0
LINE
8
BLACK
6
CONTINUOUS
10
79.9538
20
-144.744
11
79.8433
21
-144.54
0
LINE
8
BLACK
6
CONTINUOUS
10
79.8433
20
-144.54
11
79.8431
21
-144.539
0
LINE
8
BLACK
6
CONTINUOUS
10
79.8431
20
-144.539
11
79.8422
21
-144.537
0
LINE
8
BLACK
6
CONTINUOUS
10
79.8422
20
-144.537
11
79.8414
21
-144.535
0
LINE
8
BLACK
6
CONTINUOUS
10
79.8414
20
-144.535
11
79.7726
21
-144.313
0
LINE
8
BLACK
6
CONTINUOUS
10
79.7726
20
-144.313
11
79.7725
21
-144.313
0
LINE
8
BLACK
6
CONTINUOUS
10
79.7725
20
-144.313
11
79.7721
21
-144.31
0
LINE
8
BLACK
6
CONTINUOUS
10
79.7721
20
-144.31
11
79.7717
21
-144.308
0
LINE
8
BLACK
6
CONTINUOUS
10
79.7717
20
-144.308
11
79.7474
21
-144.077
0
LINE
8
BLACK
6
CONTINUOUS
10
79.7474
20
-144.077
11
79.7473
21
-144.077
0
LINE
8
BLACK
6
CONTINUOUS
10
79.7473
20
-144.077
11
79.7473
21
-144.076
0
LINE
8
BLACK
6
CONTINUOUS
10
79.7473
20
-144.076
11
79.7472
21
-144.075
0
LINE
8
BLACK
6
CONTINUOUS
10
79.7472
20
-144.075
11
79.7472
21
-144.067
0
LINE
8
BLACK
6
CONTINUOUS
10
79.7472
20
-144.067
11
79.7472
21
-144.067
0
LINE
8
BLACK
6
CONTINUOUS
10
79.7472
20
-144.067
11
79.7472
21
-144.067
0
LINE
8
BLACK
6
CONTINUOUS
10
79.7472
20
-144.067
11
79.7472
21
-144.066
0
LINE
8
BLACK
6
CONTINUOUS
10
79.7472
20
-144.066
11
79.7472
21
-144.066
0
LINE
8
BLACK
6
CONTINUOUS
10
79.7472
20
-144.066
11
79.7472
21
-80.9616
0
LINE
8
BLACK
6
CONTINUOUS
10
79.7472
20
-80.9616
11
79.7473
21
-80.9604
0
LINE
8
BLACK
6
CONTINUOUS
10
79.7473
20
-80.9604
11
79.7473
21
-80.9604
0
LINE
8
BLACK
6
CONTINUOUS
10
79.7473
20
-80.9604
11
79.77
21
-80.7291
0
LINE
8
BLACK
6
CONTINUOUS
10
79.77
20
-80.7291
11
79.77
21
-80.7288
0
LINE
8
BLACK
6
CONTINUOUS
10
79.77
20
-80.7288
11
79.7705
21
-80.7266
0
LINE
8
BLACK
6
CONTINUOUS
10
79.7705
20
-80.7266
11
79.771
21
-80.7244
0
LINE
8
BLACK
6
CONTINUOUS
10
79.771
20
-80.7244
11
79.8381
21
-80.5019
0
LINE
8
BLACK
6
CONTINUOUS
10
79.8381
20
-80.5019
11
79.8382
21
-80.5016
0
LINE
8
BLACK
6
CONTINUOUS
10
79.8382
20
-80.5016
11
79.8391
21
-80.4995
0
LINE
8
BLACK
6
CONTINUOUS
10
79.8391
20
-80.4995
11
79.84
21
-80.4974
0
LINE
8
BLACK
6
CONTINUOUS
10
79.84
20
-80.4974
11
79.9491
21
-80.2922
0
LINE
8
BLACK
6
CONTINUOUS
10
79.9491
20
-80.2922
11
79.9491
21
-80.2922
0
LINE
8
BLACK
6
CONTINUOUS
10
79.9491
20
-80.2922
11
79.9491
21
-80.2922
0
LINE
8
BLACK
6
CONTINUOUS
10
79.9491
20
-80.2922
11
79.9492
21
-80.2919
0
LINE
8
BLACK
6
CONTINUOUS
10
79.9492
20
-80.2919
11
79.9505
21
-80.2901
0
LINE
8
BLACK
6
CONTINUOUS
10
79.9505
20
-80.2901
11
79.9518
21
-80.2882
0
LINE
8
BLACK
6
CONTINUOUS
10
79.9518
20
-80.2882
11
80.0986
21
-80.1081
0
LINE
8
BLACK
6
CONTINUOUS
10
80.0986
20
-80.1081
11
80.0986
21
-80.1081
0
LINE
8
BLACK
6
CONTINUOUS
10
80.0986
20
-80.1081
11
80.0986
21
-80.1081
0
LINE
8
BLACK
6
CONTINUOUS
10
80.0986
20
-80.1081
11
80.0989
21
-80.1078
0
LINE
8
BLACK
6
CONTINUOUS
10
80.0989
20
-80.1078
11
80.1005
21
-80.1062
0
LINE
8
BLACK
6
CONTINUOUS
10
80.1005
20
-80.1062
11
80.1021
21
-80.1046
0
LINE
8
BLACK
6
CONTINUOUS
10
80.1021
20
-80.1046
11
80.2811
21
-79.9565
0
LINE
8
BLACK
6
CONTINUOUS
10
80.2811
20
-79.9565
11
80.2811
21
-79.9565
0
LINE
8
BLACK
6
CONTINUOUS
10
80.2811
20
-79.9565
11
80.2811
21
-79.9565
0
LINE
8
BLACK
6
CONTINUOUS
10
80.2811
20
-79.9565
11
80.2814
21
-79.9563
0
LINE
8
BLACK
6
CONTINUOUS
10
80.2814
20
-79.9563
11
80.2833
21
-79.955
0
LINE
8
BLACK
6
CONTINUOUS
10
80.2833
20
-79.955
11
80.2852
21
-79.9538
0
LINE
8
BLACK
6
CONTINUOUS
10
80.2852
20
-79.9538
11
80.4896
21
-79.8433
0
LINE
8
BLACK
6
CONTINUOUS
10
80.4896
20
-79.8433
11
80.4899
21
-79.8431
0
LINE
8
BLACK
6
CONTINUOUS
10
80.4899
20
-79.8431
11
80.492
21
-79.8422
0
LINE
8
BLACK
6
CONTINUOUS
10
80.492
20
-79.8422
11
80.4941
21
-79.8414
0
LINE
8
BLACK
6
CONTINUOUS
10
80.4941
20
-79.8414
11
80.716
21
-79.7726
0
LINE
8
BLACK
6
CONTINUOUS
10
80.716
20
-79.7726
11
80.7164
21
-79.7725
0
LINE
8
BLACK
6
CONTINUOUS
10
80.7164
20
-79.7725
11
80.7186
21
-79.7721
0
LINE
8
BLACK
6
CONTINUOUS
10
80.7186
20
-79.7721
11
80.7208
21
-79.7717
0
LINE
8
BLACK
6
CONTINUOUS
10
80.7208
20
-79.7717
11
80.9519
21
-79.7474
0
LINE
8
BLACK
6
CONTINUOUS
10
80.9519
20
-79.7474
11
80.9523
21
-79.7473
0
LINE
8
BLACK
6
CONTINUOUS
10
80.9523
20
-79.7473
11
80.9534
21
-79.7473
0
LINE
8
BLACK
6
CONTINUOUS
10
80.9534
20
-79.7473
11
80.9544
21
-79.7472
0
LINE
8
BLACK
6
CONTINUOUS
10
80.9544
20
-79.7472
11
80.9616
21
-79.7472
0
LINE
8
BLACK
6
CONTINUOUS
10
80.9616
20
-79.7472
11
80.9616
21
-79.7472
0
LINE
8
BLACK
6
CONTINUOUS
10
80.9616
20
-79.7472
11
120.254
21
-79.7472
0
LINE
8
BLACK
6
CONTINUOUS
10
120.254
20
-79.7472
11
120.261
21
-79.7472
0
LINE
8
BLACK
6
CONTINUOUS
10
120.261
20
-79.7472
11
120.488
21
-79.7233
0
LINE
8
BLACK
6
CONTINUOUS
10
120.488
20
-79.7233
11
120.705
21
-79.656
0
LINE
8
BLACK
6
CONTINUOUS
10
120.705
20
-79.656
11
120.905
21
-79.5478
0
LINE
8
BLACK
6
CONTINUOUS
10
120.905
20
-79.5478
11
121.081
21
-79.4028
0
LINE
8
BLACK
6
CONTINUOUS
10
121.081
20
-79.4028
11
121.224
21
-79.2266
0
LINE
8
BLACK
6
CONTINUOUS
10
121.224
20
-79.2266
11
121.331
21
-79.0257
0
LINE
8
BLACK
6
CONTINUOUS
10
121.331
20
-79.0257
11
121.397
21
-78.808
0
LINE
8
BLACK
6
CONTINUOUS
10
121.397
20
-78.808
11
121.419
21
-78.5803
0
LINE
8
BLACK
6
CONTINUOUS
10
121.419
20
-78.5803
11
121.419
21
-75.0085
0
LINE
8
BLACK
6
CONTINUOUS
10
121.419
20
-75.0085
11
121.419
21
-75.0073
0
LINE
8
BLACK
6
CONTINUOUS
10
121.419
20
-75.0073
11
121.419
21
-75.0072
0
LINE
8
BLACK
6
CONTINUOUS
10
121.419
20
-75.0072
11
121.442
21
-74.776
0
LINE
8
BLACK
6
CONTINUOUS
10
121.442
20
-74.776
11
121.442
21
-74.7756
0
LINE
8
BLACK
6
CONTINUOUS
10
121.442
20
-74.7756
11
121.443
21
-74.7734
0
LINE
8
BLACK
6
CONTINUOUS
10
121.443
20
-74.7734
11
121.443
21
-74.7712
0
LINE
8
BLACK
6
CONTINUOUS
10
121.443
20
-74.7712
11
121.51
21
-74.5487
0
LINE
8
BLACK
6
CONTINUOUS
10
121.51
20
-74.5487
11
121.51
21
-74.5484
0
LINE
8
BLACK
6
CONTINUOUS
10
121.51
20
-74.5484
11
121.511
21
-74.5463
0
LINE
8
BLACK
6
CONTINUOUS
10
121.511
20
-74.5463
11
121.512
21
-74.5442
0
LINE
8
BLACK
6
CONTINUOUS
10
121.512
20
-74.5442
11
121.621
21
-74.3391
0
LINE
8
BLACK
6
CONTINUOUS
10
121.621
20
-74.3391
11
121.621
21
-74.3391
0
LINE
8
BLACK
6
CONTINUOUS
10
121.621
20
-74.3391
11
121.621
21
-74.3391
0
LINE
8
BLACK
6
CONTINUOUS
10
121.621
20
-74.3391
11
121.621
21
-74.3388
0
LINE
8
BLACK
6
CONTINUOUS
10
121.621
20
-74.3388
11
121.623
21
-74.3369
0
LINE
8
BLACK
6
CONTINUOUS
10
121.623
20
-74.3369
11
121.624
21
-74.335
0
LINE
8
BLACK
6
CONTINUOUS
10
121.624
20
-74.335
11
121.771
21
-74.1549
0
LINE
8
BLACK
6
CONTINUOUS
10
121.771
20
-74.1549
11
121.771
21
-74.1549
0
LINE
8
BLACK
6
CONTINUOUS
10
121.771
20
-74.1549
11
121.771
21
-74.1549
0
LINE
8
BLACK
6
CONTINUOUS
10
121.771
20
-74.1549
11
121.771
21
-74.1547
0
LINE
8
BLACK
6
CONTINUOUS
10
121.771
20
-74.1547
11
121.773
21
-74.1531
0
LINE
8
BLACK
6
CONTINUOUS
10
121.773
20
-74.1531
11
121.774
21
-74.1515
0
LINE
8
BLACK
6
CONTINUOUS
10
121.774
20
-74.1515
11
121.953
21
-74.0034
0
LINE
8
BLACK
6
CONTINUOUS
10
121.953
20
-74.0034
11
121.953
21
-74.0033
0
LINE
8
BLACK
6
CONTINUOUS
10
121.953
20
-74.0033
11
121.953
21
-74.0033
0
LINE
8
BLACK
6
CONTINUOUS
10
121.953
20
-74.0033
11
121.953
21
-74.0031
0
LINE
8
BLACK
6
CONTINUOUS
10
121.953
20
-74.0031
11
121.955
21
-74.0019
0
LINE
8
BLACK
6
CONTINUOUS
10
121.955
20
-74.0019
11
121.957
21
-74.0006
0
LINE
8
BLACK
6
CONTINUOUS
10
121.957
20
-74.0006
11
122.162
21
-73.8901
0
LINE
8
BLACK
6
CONTINUOUS
10
122.162
20
-73.8901
11
122.162
21
-73.8899
0
LINE
8
BLACK
6
CONTINUOUS
10
122.162
20
-73.8899
11
122.164
21
-73.8891
0
LINE
8
BLACK
6
CONTINUOUS
10
122.164
20
-73.8891
11
122.166
21
-73.8882
0
LINE
8
BLACK
6
CONTINUOUS
10
122.166
20
-73.8882
11
122.388
21
-73.8195
0
LINE
8
BLACK
6
CONTINUOUS
10
122.388
20
-73.8195
11
122.388
21
-73.8194
0
LINE
8
BLACK
6
CONTINUOUS
10
122.388
20
-73.8194
11
122.391
21
-73.819
0
LINE
8
BLACK
6
CONTINUOUS
10
122.391
20
-73.819
11
122.393
21
-73.8185
0
LINE
8
BLACK
6
CONTINUOUS
10
122.393
20
-73.8185
11
122.624
21
-73.7942
0
LINE
8
BLACK
6
CONTINUOUS
10
122.624
20
-73.7942
11
122.624
21
-73.7942
0
LINE
8
BLACK
6
CONTINUOUS
10
122.624
20
-73.7942
11
122.625
21
-73.7942
0
LINE
8
BLACK
6
CONTINUOUS
10
122.625
20
-73.7942
11
122.626
21
-73.7941
0
LINE
8
BLACK
6
CONTINUOUS
10
122.626
20
-73.7941
11
122.634
21
-73.7941
0
LINE
8
BLACK
6
CONTINUOUS
10
122.634
20
-73.7941
11
122.634
21
-73.7941
0
LINE
8
BLACK
6
CONTINUOUS
10
122.634
20
-73.7941
11
228.602
21
-73.7941
0
LINE
8
BLACK
6
CONTINUOUS
10
228.602
20
-73.7941
11
228.603
21
-73.7942
0
LINE
8
BLACK
6
CONTINUOUS
10
228.603
20
-73.7942
11
228.603
21
-73.7942
0
LINE
8
BLACK
6
CONTINUOUS
10
228.603
20
-73.7942
11
228.835
21
-73.8169
0
LINE
8
BLACK
6
CONTINUOUS
10
228.835
20
-73.8169
11
228.835
21
-73.8169
0
LINE
8
BLACK
6
CONTINUOUS
10
228.835
20
-73.8169
11
228.837
21
-73.8174
0
LINE
8
BLACK
6
CONTINUOUS
10
228.837
20
-73.8174
11
228.839
21
-73.8178
0
LINE
8
BLACK
6
CONTINUOUS
10
228.839
20
-73.8178
11
229.062
21
-73.885
0
LINE
8
BLACK
6
CONTINUOUS
10
229.062
20
-73.885
11
229.062
21
-73.8851
0
LINE
8
BLACK
6
CONTINUOUS
10
229.062
20
-73.8851
11
229.064
21
-73.886
0
LINE
8
BLACK
6
CONTINUOUS
10
229.064
20
-73.886
11
229.066
21
-73.8868
0
LINE
8
BLACK
6
CONTINUOUS
10
229.066
20
-73.8868
11
229.272
21
-73.9959
0
LINE
8
BLACK
6
CONTINUOUS
10
229.272
20
-73.9959
11
229.272
21
-73.9959
0
LINE
8
BLACK
6
CONTINUOUS
10
229.272
20
-73.9959
11
229.272
21
-73.9959
0
LINE
8
BLACK
6
CONTINUOUS
10
229.272
20
-73.9959
11
229.272
21
-73.9961
0
LINE
8
BLACK
6
CONTINUOUS
10
229.272
20
-73.9961
11
229.274
21
-73.9974
0
LINE
8
BLACK
6
CONTINUOUS
10
229.274
20
-73.9974
11
229.276
21
-73.9986
0
LINE
8
BLACK
6
CONTINUOUS
10
229.276
20
-73.9986
11
229.456
21
-74.1455
0
LINE
8
BLACK
6
CONTINUOUS
10
229.456
20
-74.1455
11
229.456
21
-74.1455
0
LINE
8
BLACK
6
CONTINUOUS
10
229.456
20
-74.1455
11
229.456
21
-74.1455
0
LINE
8
BLACK
6
CONTINUOUS
10
229.456
20
-74.1455
11
229.456
21
-74.1457
0
LINE
8
BLACK
6
CONTINUOUS
10
229.456
20
-74.1457
11
229.458
21
-74.1473
0
LINE
8
BLACK
6
CONTINUOUS
10
229.458
20
-74.1473
11
229.459
21
-74.1489
0
LINE
8
BLACK
6
CONTINUOUS
10
229.459
20
-74.1489
11
229.607
21
-74.328
0
LINE
8
BLACK
6
CONTINUOUS
10
229.607
20
-74.328
11
229.607
21
-74.328
0
LINE
8
BLACK
6
CONTINUOUS
10
229.607
20
-74.328
11
229.607
21
-74.328
0
LINE
8
BLACK
6
CONTINUOUS
10
229.607
20
-74.328
11
229.608
21
-74.3282
0
LINE
8
BLACK
6
CONTINUOUS
10
229.608
20
-74.3282
11
229.609
21
-74.3301
0
LINE
8
BLACK
6
CONTINUOUS
10
229.609
20
-74.3301
11
229.61
21
-74.332
0
LINE
8
BLACK
6
CONTINUOUS
10
229.61
20
-74.332
11
229.721
21
-74.5364
0
LINE
8
BLACK
6
CONTINUOUS
10
229.721
20
-74.5364
11
229.721
21
-74.5367
0
LINE
8
BLACK
6
CONTINUOUS
10
229.721
20
-74.5367
11
229.722
21
-74.5388
0
LINE
8
BLACK
6
CONTINUOUS
10
229.722
20
-74.5388
11
229.722
21
-74.5409
0
LINE
8
BLACK
6
CONTINUOUS
10
229.722
20
-74.5409
11
229.791
21
-74.7629
0
LINE
8
BLACK
6
CONTINUOUS
10
229.791
20
-74.7629
11
229.791
21
-74.7632
0
LINE
8
BLACK
6
CONTINUOUS
10
229.791
20
-74.7632
11
229.792
21
-74.7655
0
LINE
8
BLACK
6
CONTINUOUS
10
229.792
20
-74.7655
11
229.792
21
-74.7677
0
LINE
8
BLACK
6
CONTINUOUS
10
229.792
20
-74.7677
11
229.816
21
-74.9988
0
LINE
8
BLACK
6
CONTINUOUS
10
229.816
20
-74.9988
11
229.816
21
-74.9991
0
LINE
8
BLACK
6
CONTINUOUS
10
229.816
20
-74.9991
11
229.816
21
-75.0002
0
LINE
8
BLACK
6
CONTINUOUS
10
229.816
20
-75.0002
11
229.817
21
-75.0013
0
LINE
8
BLACK
6
CONTINUOUS
10
229.817
20
-75.0013
11
229.817
21
-75.0084
0
LINE
8
BLACK
6
CONTINUOUS
10
229.817
20
-75.0084
11
229.817
21
-75.0085
0
LINE
8
BLACK
6
CONTINUOUS
10
229.817
20
-75.0085
11
229.817
21
-138.114
0
LINE
8
BLACK
6
CONTINUOUS
10
229.817
20
-138.114
11
229.816
21
-138.116
0
LINE
8
BLACK
6
CONTINUOUS
10
229.816
20
-138.116
11
229.816
21
-138.116
0
LINE
8
BLACK
6
CONTINUOUS
10
229.816
20
-138.116
11
229.794
21
-138.347
0
LINE
8
BLACK
6
CONTINUOUS
10
229.794
20
-138.347
11
229.794
21
-138.347
0
LINE
8
BLACK
6
CONTINUOUS
10
229.794
20
-138.347
11
229.793
21
-138.349
0
LINE
8
BLACK
6
CONTINUOUS
10
229.793
20
-138.349
11
229.793
21
-138.352
0
LINE
8
BLACK
6
CONTINUOUS
10
229.793
20
-138.352
11
229.726
21
-138.574
0
LINE
8
BLACK
6
CONTINUOUS
10
229.726
20
-138.574
11
229.726
21
-138.574
0
LINE
8
BLACK
6
CONTINUOUS
10
229.726
20
-138.574
11
229.725
21
-138.576
0
LINE
8
BLACK
6
CONTINUOUS
10
229.725
20
-138.576
11
229.724
21
-138.579
0
LINE
8
BLACK
6
CONTINUOUS
10
229.724
20
-138.579
11
229.615
21
-138.784
0
LINE
8
BLACK
6
CONTINUOUS
10
229.615
20
-138.784
11
229.615
21
-138.784
0
LINE
8
BLACK
6
CONTINUOUS
10
229.615
20
-138.784
11
229.613
21
-138.786
0
LINE
8
BLACK
6
CONTINUOUS
10
229.613
20
-138.786
11
229.612
21
-138.788
0
LINE
8
BLACK
6
CONTINUOUS
10
229.612
20
-138.788
11
229.465
21
-138.968
0
LINE
8
BLACK
6
CONTINUOUS
10
229.465
20
-138.968
11
229.465
21
-138.968
0
LINE
8
BLACK
6
CONTINUOUS
10
229.465
20
-138.968
11
229.463
21
-138.97
0
LINE
8
BLACK
6
CONTINUOUS
10
229.463
20
-138.97
11
229.462
21
-138.971
0
LINE
8
BLACK
6
CONTINUOUS
10
229.462
20
-138.971
11
229.283
21
-139.119
0
LINE
8
BLACK
6
CONTINUOUS
10
229.283
20
-139.119
11
229.282
21
-139.12
0
LINE
8
BLACK
6
CONTINUOUS
10
229.282
20
-139.12
11
229.281
21
-139.121
0
LINE
8
BLACK
6
CONTINUOUS
10
229.281
20
-139.121
11
229.279
21
-139.122
0
LINE
8
BLACK
6
CONTINUOUS
10
229.279
20
-139.122
11
229.074
21
-139.233
0
LINE
8
BLACK
6
CONTINUOUS
10
229.074
20
-139.233
11
229.074
21
-139.233
0
LINE
8
BLACK
6
CONTINUOUS
10
229.074
20
-139.233
11
229.072
21
-139.234
0
LINE
8
BLACK
6
CONTINUOUS
10
229.072
20
-139.234
11
229.07
21
-139.235
0
LINE
8
BLACK
6
CONTINUOUS
10
229.07
20
-139.235
11
228.848
21
-139.303
0
LINE
8
BLACK
6
CONTINUOUS
10
228.848
20
-139.303
11
228.847
21
-139.303
0
LINE
8
BLACK
6
CONTINUOUS
10
228.847
20
-139.303
11
228.845
21
-139.304
0
LINE
8
BLACK
6
CONTINUOUS
10
228.845
20
-139.304
11
228.843
21
-139.304
0
LINE
8
BLACK
6
CONTINUOUS
10
228.843
20
-139.304
11
228.612
21
-139.329
0
LINE
8
BLACK
6
CONTINUOUS
10
228.612
20
-139.329
11
228.612
21
-139.329
0
LINE
8
BLACK
6
CONTINUOUS
10
228.612
20
-139.329
11
228.61
21
-139.329
0
LINE
8
BLACK
6
CONTINUOUS
10
228.61
20
-139.329
11
228.609
21
-139.329
0
LINE
8
BLACK
6
CONTINUOUS
10
228.609
20
-139.329
11
228.602
21
-139.329
0
LINE
8
BLACK
6
CONTINUOUS
10
228.602
20
-139.329
11
228.602
21
-139.329
0
LINE
8
BLACK
6
CONTINUOUS
10
228.602
20
-139.329
11
214.334
21
-139.329
0
LINE
8
BLACK
6
CONTINUOUS
10
214.334
20
-139.329
11
208.385
21
-172.644
0
LINE
8
BLACK
6
CONTINUOUS
10
80.9559
20
-79.7972
11
80.7285
21
-79.8211
0
LINE
8
BLACK
6
CONTINUOUS
10
80.7285
20
-79.8211
11
80.5112
21
-79.8884
0
LINE
8
BLACK
6
CONTINUOUS
10
80.5112
20
-79.8884
11
80.3111
21
-79.9966
0
LINE
8
BLACK
6
CONTINUOUS
10
80.3111
20
-79.9966
11
80.1358
21
-80.1416
0
LINE
8
BLACK
6
CONTINUOUS
10
80.1358
20
-80.1416
11
79.9921
21
-80.3179
0
LINE
8
BLACK
6
CONTINUOUS
10
79.9921
20
-80.3179
11
79.8853
21
-80.5187
0
LINE
8
BLACK
6
CONTINUOUS
10
79.8853
20
-80.5187
11
79.8195
21
-80.7365
0
LINE
8
BLACK
6
CONTINUOUS
10
79.8195
20
-80.7365
11
79.7972
21
-80.9641
0
LINE
8
BLACK
6
CONTINUOUS
10
79.7972
20
-80.9641
11
79.7972
21
-144.066
0
LINE
8
BLACK
6
CONTINUOUS
10
79.7972
20
-144.066
11
79.7972
21
-144.073
0
LINE
8
BLACK
6
CONTINUOUS
10
79.7972
20
-144.073
11
79.8211
21
-144.301
0
LINE
8
BLACK
6
CONTINUOUS
10
79.8211
20
-144.301
11
79.8884
21
-144.518
0
LINE
8
BLACK
6
CONTINUOUS
10
79.8884
20
-144.518
11
79.9966
21
-144.718
0
LINE
8
BLACK
6
CONTINUOUS
10
79.9966
20
-144.718
11
80.1416
21
-144.893
0
LINE
8
BLACK
6
CONTINUOUS
10
80.1416
20
-144.893
11
80.3179
21
-145.037
0
LINE
8
BLACK
6
CONTINUOUS
10
80.3179
20
-145.037
11
80.5187
21
-145.144
0
LINE
8
BLACK
6
CONTINUOUS
10
80.5187
20
-145.144
11
80.7365
21
-145.21
0
LINE
8
BLACK
6
CONTINUOUS
10
80.7365
20
-145.21
11
80.9641
21
-145.232
0
LINE
8
BLACK
6
CONTINUOUS
10
80.9641
20
-145.232
11
133.35
21
-145.232
0
LINE
8
BLACK
6
CONTINUOUS
10
133.35
20
-145.232
11
133.352
21
-145.232
0
LINE
8
BLACK
6
CONTINUOUS
10
133.352
20
-145.232
11
133.354
21
-145.232
0
LINE
8
BLACK
6
CONTINUOUS
10
133.354
20
-145.232
11
133.355
21
-145.232
0
LINE
8
BLACK
6
CONTINUOUS
10
133.355
20
-145.232
11
133.356
21
-145.232
0
LINE
8
BLACK
6
CONTINUOUS
10
133.356
20
-145.232
11
133.356
21
-145.232
0
LINE
8
BLACK
6
CONTINUOUS
10
133.356
20
-145.232
11
133.358
21
-145.233
0
LINE
8
BLACK
6
CONTINUOUS
10
133.358
20
-145.233
11
133.36
21
-145.234
0
LINE
8
BLACK
6
CONTINUOUS
10
133.36
20
-145.234
11
133.361
21
-145.234
0
LINE
8
BLACK
6
CONTINUOUS
10
133.361
20
-145.234
11
133.361
21
-145.234
0
LINE
8
BLACK
6
CONTINUOUS
10
133.361
20
-145.234
11
133.363
21
-145.235
0
LINE
8
BLACK
6
CONTINUOUS
10
133.363
20
-145.235
11
133.365
21
-145.236
0
LINE
8
BLACK
6
CONTINUOUS
10
133.365
20
-145.236
11
133.366
21
-145.237
0
LINE
8
BLACK
6
CONTINUOUS
10
133.366
20
-145.237
11
159.554
21
-164.283
0
LINE
8
BLACK
6
CONTINUOUS
10
159.554
20
-164.283
11
208.34
21
-172.613
0
LINE
8
BLACK
6
CONTINUOUS
10
208.34
20
-172.613
11
214.289
21
-139.3
0
LINE
8
BLACK
6
CONTINUOUS
10
214.289
20
-139.3
11
214.289
21
-139.299
0
LINE
8
BLACK
6
CONTINUOUS
10
214.289
20
-139.299
11
214.289
21
-139.297
0
LINE
8
BLACK
6
CONTINUOUS
10
214.289
20
-139.297
11
214.29
21
-139.295
0
LINE
8
BLACK
6
CONTINUOUS
10
214.29
20
-139.295
11
214.29
21
-139.294
0
LINE
8
BLACK
6
CONTINUOUS
10
214.29
20
-139.294
11
214.29
21
-139.294
0
LINE
8
BLACK
6
CONTINUOUS
10
214.29
20
-139.294
11
214.291
21
-139.292
0
LINE
8
BLACK
6
CONTINUOUS
10
214.291
20
-139.292
11
214.292
21
-139.29
0
LINE
8
BLACK
6
CONTINUOUS
10
214.292
20
-139.29
11
214.292
21
-139.29
0
LINE
8
BLACK
6
CONTINUOUS
10
214.292
20
-139.29
11
214.293
21
-139.29
0
LINE
8
BLACK
6
CONTINUOUS
10
214.293
20
-139.29
11
214.294
21
-139.288
0
LINE
8
BLACK
6
CONTINUOUS
10
214.294
20
-139.288
11
214.295
21
-139.286
0
LINE
8
BLACK
6
CONTINUOUS
10
214.295
20
-139.286
11
214.295
21
-139.286
0
LINE
8
BLACK
6
CONTINUOUS
10
214.295
20
-139.286
11
214.296
21
-139.286
0
LINE
8
BLACK
6
CONTINUOUS
10
214.296
20
-139.286
11
214.297
21
-139.285
0
LINE
8
BLACK
6
CONTINUOUS
10
214.297
20
-139.285
11
214.299
21
-139.283
0
LINE
8
BLACK
6
CONTINUOUS
10
214.299
20
-139.283
11
214.299
21
-139.283
0
LINE
8
BLACK
6
CONTINUOUS
10
214.299
20
-139.283
11
214.299
21
-139.283
0
LINE
8
BLACK
6
CONTINUOUS
10
214.299
20
-139.283
11
214.301
21
-139.282
0
LINE
8
BLACK
6
CONTINUOUS
10
214.301
20
-139.282
11
214.303
21
-139.281
0
LINE
8
BLACK
6
CONTINUOUS
10
214.303
20
-139.281
11
214.304
21
-139.281
0
LINE
8
BLACK
6
CONTINUOUS
10
214.304
20
-139.281
11
214.304
21
-139.281
0
LINE
8
BLACK
6
CONTINUOUS
10
214.304
20
-139.281
11
214.306
21
-139.28
0
LINE
8
BLACK
6
CONTINUOUS
10
214.306
20
-139.28
11
214.308
21
-139.279
0
LINE
8
BLACK
6
CONTINUOUS
10
214.308
20
-139.279
11
214.308
21
-139.279
0
LINE
8
BLACK
6
CONTINUOUS
10
214.308
20
-139.279
11
214.308
21
-139.279
0
LINE
8
BLACK
6
CONTINUOUS
10
214.308
20
-139.279
11
214.311
21
-139.279
0
LINE
8
BLACK
6
CONTINUOUS
10
214.311
20
-139.279
11
214.313
21
-139.279
0
LINE
8
BLACK
6
CONTINUOUS
10
214.313
20
-139.279
11
214.314
21
-139.279
0
LINE
8
BLACK
6
CONTINUOUS
10
214.314
20
-139.279
11
228.601
21
-139.279
0
LINE
8
BLACK
6
CONTINUOUS
10
228.601
20
-139.279
11
228.608
21
-139.279
0
LINE
8
BLACK
6
CONTINUOUS
10
228.608
20
-139.279
11
228.835
21
-139.255
0
LINE
8
BLACK
6
CONTINUOUS
10
228.835
20
-139.255
11
229.053
21
-139.188
0
LINE
8
BLACK
6
CONTINUOUS
10
229.053
20
-139.188
11
229.253
21
-139.079
0
LINE
8
BLACK
6
CONTINUOUS
10
229.253
20
-139.079
11
229.428
21
-138.934
0
LINE
8
BLACK
6
CONTINUOUS
10
229.428
20
-138.934
11
229.572
21
-138.758
0
LINE
8
BLACK
6
CONTINUOUS
10
229.572
20
-138.758
11
229.679
21
-138.557
0
LINE
8
BLACK
6
CONTINUOUS
10
229.679
20
-138.557
11
229.744
21
-138.339
0
LINE
8
BLACK
6
CONTINUOUS
10
229.744
20
-138.339
11
229.767
21
-138.112
0
LINE
8
BLACK
6
CONTINUOUS
10
229.767
20
-138.112
11
229.767
21
-75.0098
0
LINE
8
BLACK
6
CONTINUOUS
10
229.767
20
-75.0098
11
229.767
21
-75.0027
0
LINE
8
BLACK
6
CONTINUOUS
10
229.767
20
-75.0027
11
229.743
21
-74.7753
0
LINE
8
BLACK
6
CONTINUOUS
10
229.743
20
-74.7753
11
229.675
21
-74.558
0
LINE
8
BLACK
6
CONTINUOUS
10
229.675
20
-74.558
11
229.567
21
-74.3579
0
LINE
8
BLACK
6
CONTINUOUS
10
229.567
20
-74.3579
11
229.422
21
-74.1827
0
LINE
8
BLACK
6
CONTINUOUS
10
229.422
20
-74.1827
11
229.246
21
-74.0389
0
LINE
8
BLACK
6
CONTINUOUS
10
229.246
20
-74.0389
11
229.045
21
-73.9321
0
LINE
8
BLACK
6
CONTINUOUS
10
229.045
20
-73.9321
11
228.827
21
-73.8664
0
LINE
8
BLACK
6
CONTINUOUS
10
228.827
20
-73.8664
11
228.6
21
-73.8441
0
LINE
8
BLACK
6
CONTINUOUS
10
228.6
20
-73.8441
11
122.635
21
-73.8441
0
LINE
8
BLACK
6
CONTINUOUS
10
122.635
20
-73.8441
11
122.628
21
-73.8441
0
LINE
8
BLACK
6
CONTINUOUS
10
122.628
20
-73.8441
11
122.401
21
-73.868
0
LINE
8
BLACK
6
CONTINUOUS
10
122.401
20
-73.868
11
122.183
21
-73.9352
0
LINE
8
BLACK
6
CONTINUOUS
10
122.183
20
-73.9352
11
121.983
21
-74.0434
0
LINE
8
BLACK
6
CONTINUOUS
10
121.983
20
-74.0434
11
121.808
21
-74.1884
0
LINE
8
BLACK
6
CONTINUOUS
10
121.808
20
-74.1884
11
121.664
21
-74.3647
0
LINE
8
BLACK
6
CONTINUOUS
10
121.664
20
-74.3647
11
121.557
21
-74.5656
0
LINE
8
BLACK
6
CONTINUOUS
10
121.557
20
-74.5656
11
121.492
21
-74.7833
0
LINE
8
BLACK
6
CONTINUOUS
10
121.492
20
-74.7833
11
121.469
21
-75.0109
0
LINE
8
BLACK
6
CONTINUOUS
10
121.469
20
-75.0109
11
121.469
21
-78.5828
0
LINE
8
BLACK
6
CONTINUOUS
10
121.469
20
-78.5828
11
121.469
21
-78.584
0
LINE
8
BLACK
6
CONTINUOUS
10
121.469
20
-78.584
11
121.469
21
-78.584
0
LINE
8
BLACK
6
CONTINUOUS
10
121.469
20
-78.584
11
121.446
21
-78.8153
0
LINE
8
BLACK
6
CONTINUOUS
10
121.446
20
-78.8153
11
121.446
21
-78.8156
0
LINE
8
BLACK
6
CONTINUOUS
10
121.446
20
-78.8156
11
121.446
21
-78.8179
0
LINE
8
BLACK
6
CONTINUOUS
10
121.446
20
-78.8179
11
121.446
21
-78.8201
0
LINE
8
BLACK
6
CONTINUOUS
10
121.446
20
-78.8201
11
121.378
21
-79.0425
0
LINE
8
BLACK
6
CONTINUOUS
10
121.378
20
-79.0425
11
121.378
21
-79.0429
0
LINE
8
BLACK
6
CONTINUOUS
10
121.378
20
-79.0429
11
121.377
21
-79.0449
0
LINE
8
BLACK
6
CONTINUOUS
10
121.377
20
-79.0449
11
121.376
21
-79.047
0
LINE
8
BLACK
6
CONTINUOUS
10
121.376
20
-79.047
11
121.267
21
-79.2522
0
LINE
8
BLACK
6
CONTINUOUS
10
121.267
20
-79.2522
11
121.267
21
-79.2525
0
LINE
8
BLACK
6
CONTINUOUS
10
121.267
20
-79.2525
11
121.266
21
-79.2544
0
LINE
8
BLACK
6
CONTINUOUS
10
121.266
20
-79.2544
11
121.265
21
-79.2563
0
LINE
8
BLACK
6
CONTINUOUS
10
121.265
20
-79.2563
11
121.118
21
-79.4363
0
LINE
8
BLACK
6
CONTINUOUS
10
121.118
20
-79.4363
11
121.118
21
-79.4366
0
LINE
8
BLACK
6
CONTINUOUS
10
121.118
20
-79.4366
11
121.116
21
-79.4382
0
LINE
8
BLACK
6
CONTINUOUS
10
121.116
20
-79.4382
11
121.114
21
-79.4398
0
LINE
8
BLACK
6
CONTINUOUS
10
121.114
20
-79.4398
11
120.935
21
-79.5879
0
LINE
8
BLACK
6
CONTINUOUS
10
120.935
20
-79.5879
11
120.935
21
-79.5881
0
LINE
8
BLACK
6
CONTINUOUS
10
120.935
20
-79.5881
11
120.933
21
-79.5894
0
LINE
8
BLACK
6
CONTINUOUS
10
120.933
20
-79.5894
11
120.931
21
-79.5906
0
LINE
8
BLACK
6
CONTINUOUS
10
120.931
20
-79.5906
11
120.727
21
-79.7012
0
LINE
8
BLACK
6
CONTINUOUS
10
120.727
20
-79.7012
11
120.727
21
-79.7013
0
LINE
8
BLACK
6
CONTINUOUS
10
120.727
20
-79.7013
11
120.724
21
-79.7022
0
LINE
8
BLACK
6
CONTINUOUS
10
120.724
20
-79.7022
11
120.722
21
-79.7031
0
LINE
8
BLACK
6
CONTINUOUS
10
120.722
20
-79.7031
11
120.5
21
-79.7718
0
LINE
8
BLACK
6
CONTINUOUS
10
120.5
20
-79.7718
11
120.5
21
-79.7719
0
LINE
8
BLACK
6
CONTINUOUS
10
120.5
20
-79.7719
11
120.498
21
-79.7723
0
LINE
8
BLACK
6
CONTINUOUS
10
120.498
20
-79.7723
11
120.496
21
-79.7728
0
LINE
8
BLACK
6
CONTINUOUS
10
120.496
20
-79.7728
11
120.265
21
-79.797
0
LINE
8
BLACK
6
CONTINUOUS
10
120.265
20
-79.797
11
120.264
21
-79.7971
0
LINE
8
BLACK
6
CONTINUOUS
10
120.264
20
-79.7971
11
120.263
21
-79.7971
0
LINE
8
BLACK
6
CONTINUOUS
10
120.263
20
-79.7971
11
120.262
21
-79.7972
0
LINE
8
BLACK
6
CONTINUOUS
10
120.262
20
-79.7972
11
120.255
21
-79.7972
0
LINE
8
BLACK
6
CONTINUOUS
10
120.255
20
-79.7972
11
120.255
21
-79.7972
0
LINE
8
BLACK
6
CONTINUOUS
10
120.255
20
-79.7972
11
80.9629
21
-79.7972
0
LINE
8
BLACK
6
CONTINUOUS
10
80.9629
20
-79.7972
11
80.9559
21
-79.7972
  0
ENDSEC
  0
EOF
