0
SECTION
2
HEADER
9
$INSUNITS
70
4
9
$ACADVER
1
AC1014
9
$HANDSEED
5
FFFF
0
ENDSEC
0
SECTION
2
TABLES
0
TABLE
2
VPORT
5
8
100
AcDbSymbolTable
0
ENDTAB
0
TABLE
2
LTYPE
5
5
100
AcDbSymbolTable
0
LTYPE
5
14
100
AcDbSymbolTableRecord
100
AcDbLinetypeTableRecord
2
BYBLOCK
70
0
0
LTYPE
5
15
100
AcDbSymbolTableRecord
100
AcDbLinetypeTableRecord
2
BYLAYER
70
0
0
ENDTAB
0
TABLE
2
LAYER
5
2
100
AcDbSymbolTable
70
2
0
LAYER
5
50
100
AcDbSymbolTableRecord
100
AcDbLayerTableRecord
2
0
70
0
6
CONTINUOUS
0
ENDTAB
0
TABLE
2
STYLE
5
3
100
AcDbSymbolTable
70
1
0
STYLE
5
11
100
AcDbSymbolTableRecord
100
AcDbTextStyleTableRecord
2
STANDARD
70
0
0
ENDTAB
0
TABLE
2
VIEW
5
6
100
AcDbSymbolTable
70
0
0
ENDTAB
0
TABLE
2
UCS
5
7
100
AcDbSymbolTable
70
0
0
ENDTAB
0
TABLE
2
APPID
5
9
100
AcDbSymbolTable
70
2
0
APPID
5
12
100
AcDbSymbolTableRecord
100
AcDbRegAppTableRecord
2
ACAD
70
0
0
ENDTAB
0
TABLE
2
DIMSTYLE
5
A
100
AcDbSymbolTable
70
1
0
ENDTAB
0
TABLE
2
BLOCK_RECORD
5
1
100
AcDbSymbolTable
70
1
0
BLOCK_RECORD
5
1F
100
AcDbSymbolTableRecord
100
AcDbBlockTableRecord
2
*MODEL_SPACE
0
BLOCK_RECORD
5
1B
100
AcDbSymbolTableRecord
100
AcDbBlockTableRecord
2
*PAPER_SPACE
0
ENDTAB
0
ENDSEC
0
SECTION
2
BLOCKS
0
BLOCK
5
20
100
AcDbEntity
100
AcDbBlockBegin
2
*MODEL_SPACE
0
ENDBLK
5
21
100
AcDbEntity
100
AcDbBlockEnd
0
BLOCK
5
1C
100
AcDbEntity
100
AcDbBlockBegin
2
*PAPER_SPACE
0
ENDBLK
5
1D
100
AcDbEntity
100
AcDbBlockEnd
0
ENDSEC
0
SECTION
2
ENTITIES
0
LINE
5
100
100
AcDbEntity
8
0
100
AcDbLine
10
203.42500000000004
20
-73.7941
30
0
11
123.41899999999998
21
-73.7941
31
0
0
LINE
5
101
100
AcDbEntity
8
0
100
AcDbLine
10
79.747200000000021
20
-81.747200000000007
30
0
11
79.747200000000021
21
-143.28200000000004
31
0
0
LINE
5
102
100
AcDbEntity
8
0
100
AcDbLine
10
81.747200000000007
20
-145.28200000000001
30
0
11
132.69173777842005
21
-145.28200000000001
31
0
0
LINE
5
103
100
AcDbEntity
8
0
100
AcDbLine
10
133.86792697975793
20
-145.66441570153015
30
0
11
159.53569652523248
21
-164.32814370035797
31
0
0
LINE
5
104
100
AcDbEntity
8
0
100
AcDbLine
10
121.419
20
-75.7941
30
0
11
121.419
21
-77.747200000000007
31
0
0
LINE
5
105
100
AcDbEntity
8
0
100
AcDbLine
10
119.41900000000001
20
-79.747200000000007
30
0
11
81.747200000000007
21
-79.747200000000021
31
0
0
LINE
5
106
100
AcDbEntity
8
0
100
AcDbLine
10
159.53569652523248
20
-164.32814370035797
30
0
11
206.42367060650548
21
-172.33614648980645
31
0
0
LINE
5
107
100
AcDbEntity
8
0
100
AcDbLine
10
208.72923167756457
20
-170.71626788736509
30
0
11
214.33400000000003
21
-139.32900000000001
31
0
0
LWPOLYLINE
5
108
100
AcDbEntity
8
0
100
AcDbPolyline
90
4
70
1
43
0.0
10
102.17500000000001
20
-86.400000000000006
10
88.325000000000017
20
-86.400000000000006
10
88.325000000000017
20
-100.25
10
102.17500000000001
20
-100.25
0
LWPOLYLINE
5
109
100
AcDbEntity
8
0
100
AcDbPolyline
90
4
70
1
43
0.0
10
102.17500000000001
20
-105.45000000000002
10
88.325000000000017
20
-105.45000000000002
10
88.325000000000017
20
-119.3
10
102.17500000000001
20
-119.3
0
LWPOLYLINE
5
110
100
AcDbEntity
8
0
100
AcDbPolyline
90
4
70
1
43
0.0
10
102.17500000000001
20
-124.50000000000001
10
88.325000000000017
20
-124.50000000000001
10
88.325000000000017
20
-138.35000000000002
10
102.17500000000001
20
-138.35000000000002
0
LWPOLYLINE
5
111
100
AcDbEntity
8
0
100
AcDbPolyline
90
4
70
1
43
0.0
10
121.22500000000001
20
-124.50000000000001
10
107.375
20
-124.50000000000001
10
107.375
20
-138.35000000000002
10
121.22500000000001
20
-138.35000000000002
0
LWPOLYLINE
5
112
100
AcDbEntity
8
0
100
AcDbPolyline
90
4
70
1
43
0.0
10
121.22500000000001
20
-105.45000000000002
10
107.375
20
-105.45000000000002
10
107.375
20
-119.3
10
121.22500000000001
20
-119.3
0
LWPOLYLINE
5
113
100
AcDbEntity
8
0
100
AcDbPolyline
90
4
70
1
43
0.0
10
121.22500000000001
20
-86.400000000000006
10
107.375
20
-86.400000000000006
10
107.375
20
-100.25
10
121.22500000000001
20
-100.25
0
LWPOLYLINE
5
114
100
AcDbEntity
8
0
100
AcDbPolyline
90
4
70
1
43
0.0
10
140.27500000000001
20
-119.28100000000001
10
126.425
20
-119.28100000000001
10
126.425
20
-133.131
10
140.27500000000001
20
-133.131
0
LWPOLYLINE
5
115
100
AcDbEntity
8
0
100
AcDbPolyline
90
4
70
1
43
0.0
10
140.27500000000001
20
-100.23100000000001
10
126.425
20
-100.23100000000001
10
126.425
20
-114.08100000000002
10
140.27500000000001
20
-114.08100000000002
0
LWPOLYLINE
5
116
100
AcDbEntity
8
0
100
AcDbPolyline
90
4
70
1
43
0.0
10
140.27500000000001
20
-81.181200000000018
10
126.425
20
-81.181200000000018
10
126.425
20
-95.031200000000013
10
140.27500000000001
20
-95.031200000000013
0
LWPOLYLINE
5
117
100
AcDbEntity
8
0
100
AcDbPolyline
90
4
70
1
43
0.0
10
159.32499999999999
20
-78.799999999999997
10
145.47499999999999
20
-78.799999999999997
10
145.47499999999999
20
-92.650000000000006
10
159.32499999999999
20
-92.650000000000006
0
LWPOLYLINE
5
118
100
AcDbEntity
8
0
100
AcDbPolyline
90
4
70
1
43
0.0
10
159.32499999999999
20
-97.849999999999994
10
145.47499999999999
20
-97.849999999999994
10
145.47499999999999
20
-111.70000000000002
10
159.32499999999999
20
-111.70000000000002
0
LWPOLYLINE
5
119
100
AcDbEntity
8
0
100
AcDbPolyline
90
4
70
1
43
0.0
10
159.32499999999999
20
-116.90000000000001
10
145.47499999999999
20
-116.90000000000001
10
145.47499999999999
20
-130.75
10
159.32499999999999
20
-130.75
0
LWPOLYLINE
5
120
100
AcDbEntity
8
0
100
AcDbPolyline
90
4
70
1
43
0.0
10
178.37500000000003
20
-83.562500000000014
10
164.52500000000001
20
-83.562500000000014
10
164.52500000000001
20
-97.412500000000009
10
178.37500000000003
20
-97.412500000000009
0
LWPOLYLINE
5
121
100
AcDbEntity
8
0
100
AcDbPolyline
90
4
70
1
43
0.0
10
178.37500000000003
20
-102.61200000000002
10
164.52500000000001
20
-102.61200000000002
10
164.52500000000001
20
-116.462
10
178.37500000000003
20
-116.462
0
LWPOLYLINE
5
122
100
AcDbEntity
8
0
100
AcDbPolyline
90
4
70
1
43
0.0
10
178.37500000000003
20
-121.66200000000002
10
164.52500000000001
20
-121.66200000000002
10
164.52500000000001
20
-135.512
10
178.37500000000003
20
-135.512
0
LWPOLYLINE
5
123
100
AcDbEntity
8
0
100
AcDbPolyline
90
4
70
1
43
0.0
10
197.42500000000004
20
-83.562500000000014
10
183.57499999999999
20
-83.562500000000014
10
183.57499999999999
20
-97.412500000000009
10
197.42500000000004
20
-97.412500000000009
0
LWPOLYLINE
5
124
100
AcDbEntity
8
0
100
AcDbPolyline
90
4
70
1
43
0.0
10
197.42500000000004
20
-102.61200000000002
10
183.57499999999999
20
-102.61200000000002
10
183.57499999999999
20
-116.462
10
197.42500000000004
20
-116.462
0
LWPOLYLINE
5
125
100
AcDbEntity
8
0
100
AcDbPolyline
90
4
70
1
43
0.0
10
197.42500000000004
20
-121.66200000000002
10
183.57499999999999
20
-121.66200000000002
10
183.57499999999999
20
-135.512
10
197.42500000000004
20
-135.512
0
LINE
5
126
100
AcDbEntity
8
0
100
AcDbLine
10
164.89700000000002
20
-142.74100000000001
30
0
11
164.17214700603526
21
-156.57201905635088
31
0
0
LINE
5
127
100
AcDbEntity
8
0
100
AcDbLine
10
164.17214700603526
20
-156.57201905635088
30
0
11
178.00299999999999
21
-157.29700000000003
31
0
0
LINE
5
128
100
AcDbEntity
8
0
100
AcDbLine
10
164.89700000000002
20
-142.74100000000001
30
0
11
178.72801905635089
21
-143.46585299396477
31
0
0
LINE
5
129
100
AcDbEntity
8
0
100
AcDbLine
10
178.00299999999999
20
-157.29700000000003
30
0
11
178.72801905635089
21
-143.46585299396477
31
0
0
LWPOLYLINE
5
130
100
AcDbEntity
8
0
100
AcDbPolyline
90
4
70
1
43
0.0
10
187.23997273931303
20
-158.01758737921909
10
189.64500000000001
20
-144.37799999999999
10
203.28458737921909
20
-146.78302726068696
10
200.88
20
-160.42200000000003
0
CIRCLE
5
131
100
AcDbEntity
8
0
100
AcDbCircle
10
104.77498983103365
20
-102.82508541481029
30
0
40
1.1000000000000003
0
CIRCLE
5
132
100
AcDbEntity
8
0
100
AcDbCircle
10
104.77553978082169
20
-121.87532988953889
30
0
40
1.0999999999999943
0
CIRCLE
5
133
100
AcDbEntity
8
0
100
AcDbCircle
10
142.87528126227656
20
-115.49109770903436
30
0
40
1.0999999999999943
0
CIRCLE
5
134
100
AcDbEntity
8
0
100
AcDbCircle
10
180.97539643162168
20
-80.962855877444539
30
0
40
1.0999999999999919
0
CIRCLE
5
135
100
AcDbEntity
8
0
100
AcDbCircle
10
200.02534034490395
20
-138.11343242606543
30
0
40
1.0999999999999943
0
LINE
5
136
100
AcDbEntity
8
0
100
AcDbLine
10
214.33400000000003
20
-139.32900000000001
30
0
11
207.42500000000004
21
-139.32900000000001
31
0
0
ARC
5
137
100
AcDbEntity
8
0
100
AcDbCircle
10
203.42500000000004
20
-75.794099999999986
30
0
40
1.9999999999999929
100
AcDbArc
50
0
51
90
0
ARC
5
138
100
AcDbEntity
8
0
100
AcDbCircle
10
123.41899999999997
20
-75.794099999999986
30
0
40
1.999999999999984
100
AcDbArc
50
89.999999999999588
51
180
0
ARC
5
139
100
AcDbEntity
8
0
100
AcDbCircle
10
119.41900000000003
20
-77.747200000000035
30
0
40
1.9999999999999751
100
AcDbArc
50
-90.000000000000398
51
0
0
ARC
5
140
100
AcDbEntity
8
0
100
AcDbCircle
10
81.747200000000007
20
-81.747200000000007
30
0
40
1.9999999999999929
100
AcDbArc
50
90
51
180
0
ARC
5
141
100
AcDbEntity
8
0
100
AcDbCircle
10
81.747200000000007
20
-143.28200000000004
30
0
40
1.9999999999999929
100
AcDbArc
50
180
51
270
0
ARC
5
142
100
AcDbEntity
8
0
100
AcDbCircle
10
132.69173777841999
20
-147.28200000000035
30
0
40
2.0000000000003313
100
AcDbArc
50
53.978088446068227
51
89.99999999999838
0
ARC
5
143
100
AcDbEntity
8
0
100
AcDbCircle
10
206.76037543079337
20
-170.36469274667638
30
0
40
2.0000000000000688
100
AcDbArc
50
260.30796138213282
51
349.87550691678848
0
LINE
5
144
100
AcDbEntity
8
0
100
AcDbLine
10
205.42500000000004
20
-75.7941
30
0
11
205.42500000000004
21
-137.32900000000004
31
0
0
ARC
5
145
100
AcDbEntity
8
0
100
AcDbCircle
10
207.42500000000004
20
-137.32900000000004
30
0
40
1.9999999999999929
100
AcDbArc
50
180
51
270
0
ARC
5
146
100
AcDbEntity
8
0
100
AcDbCircle
10
160.33218197854245
20
-162.4381390055751
30
0
40
1.9999999999511295
100
AcDbArc
50
233.9727567086853
51
237.10109301237344
0
ARC
5
147
100
AcDbEntity
8
0
100
AcDbCircle
10
160.33218197854245
20
-162.4381390055751
30
0
40
1.9999999999511155
100
AcDbArc
50
257.23206387346335
51
260.31132470938905
0
ENDSEC
0
SECTION
2
OBJECTS
0
DICTIONARY
5
C
100
AcDbDictionary
3
ACAD_GROUP
350
D
3
ACAD_MLINESTYLE
350
17
0
DICTIONARY
5
D
100
AcDbDictionary
0
DICTIONARY
5
1A
330
C
100
AcDbDictionary
0
DICTIONARY
5
17
100
AcDbDictionary
0
ENDSEC
0
EOF
