G04 #@! TF.GenerationSoftware,KiCad,Pcbnew,(5.1.0)-1*
G04 #@! TF.CreationDate,2019-05-16T00:58:07+08:00*
G04 #@! TF.ProjectId,ShinkaiTopPlate,5368696e-6b61-4695-946f-70506c617465,rev?*
G04 #@! TF.SameCoordinates,Original*
G04 #@! TF.FileFunction,Soldermask,Bot*
G04 #@! TF.FilePolarity,Negative*
%FSLAX46Y46*%
G04 Gerber Fmt 4.6, Leading zero omitted, Abs format (unit mm)*
G04 Created by KiCad (PCBNEW (5.1.0)-1) date 2019-05-16 00:58:07*
%MOMM*%
%LPD*%
G04 APERTURE LIST*
%ADD10C,0.150000*%
G04 APERTURE END LIST*
D10*
G36*
X199274549Y-106991116D02*
G01*
X199385734Y-107013232D01*
X199595203Y-107099997D01*
X199783720Y-107225960D01*
X199944040Y-107386280D01*
X200070003Y-107574797D01*
X200156768Y-107784266D01*
X200201000Y-108006636D01*
X200201000Y-108233364D01*
X200156768Y-108455734D01*
X200070003Y-108665203D01*
X199944040Y-108853720D01*
X199783720Y-109014040D01*
X199595203Y-109140003D01*
X199385734Y-109226768D01*
X199274549Y-109248884D01*
X199163365Y-109271000D01*
X198936635Y-109271000D01*
X198825451Y-109248884D01*
X198714266Y-109226768D01*
X198504797Y-109140003D01*
X198316280Y-109014040D01*
X198155960Y-108853720D01*
X198029997Y-108665203D01*
X197943232Y-108455734D01*
X197899000Y-108233364D01*
X197899000Y-108006636D01*
X197943232Y-107784266D01*
X198029997Y-107574797D01*
X198155960Y-107386280D01*
X198316280Y-107225960D01*
X198504797Y-107099997D01*
X198714266Y-107013232D01*
X198825451Y-106991116D01*
X198936635Y-106969000D01*
X199163365Y-106969000D01*
X199274549Y-106991116D01*
X199274549Y-106991116D01*
G37*
G36*
X104024549Y-90761116D02*
G01*
X104135734Y-90783232D01*
X104345203Y-90869997D01*
X104533720Y-90995960D01*
X104694040Y-91156280D01*
X104820003Y-91344797D01*
X104906768Y-91554266D01*
X104951000Y-91776636D01*
X104951000Y-92003364D01*
X104906768Y-92225734D01*
X104820003Y-92435203D01*
X104694040Y-92623720D01*
X104533720Y-92784040D01*
X104345203Y-92910003D01*
X104135734Y-92996768D01*
X104024549Y-93018884D01*
X103913365Y-93041000D01*
X103686635Y-93041000D01*
X103575451Y-93018884D01*
X103464266Y-92996768D01*
X103254797Y-92910003D01*
X103066280Y-92784040D01*
X102905960Y-92623720D01*
X102779997Y-92435203D01*
X102693232Y-92225734D01*
X102649000Y-92003364D01*
X102649000Y-91776636D01*
X102693232Y-91554266D01*
X102779997Y-91344797D01*
X102905960Y-91156280D01*
X103066280Y-90995960D01*
X103254797Y-90869997D01*
X103464266Y-90783232D01*
X103575451Y-90761116D01*
X103686635Y-90739000D01*
X103913365Y-90739000D01*
X104024549Y-90761116D01*
X104024549Y-90761116D01*
G37*
G36*
X142124549Y-84381116D02*
G01*
X142235734Y-84403232D01*
X142445203Y-84489997D01*
X142633720Y-84615960D01*
X142794040Y-84776280D01*
X142920003Y-84964797D01*
X143006768Y-85174266D01*
X143051000Y-85396636D01*
X143051000Y-85623364D01*
X143006768Y-85845734D01*
X142920003Y-86055203D01*
X142794040Y-86243720D01*
X142633720Y-86404040D01*
X142445203Y-86530003D01*
X142235734Y-86616768D01*
X142124549Y-86638884D01*
X142013365Y-86661000D01*
X141786635Y-86661000D01*
X141675451Y-86638884D01*
X141564266Y-86616768D01*
X141354797Y-86530003D01*
X141166280Y-86404040D01*
X141005960Y-86243720D01*
X140879997Y-86055203D01*
X140793232Y-85845734D01*
X140749000Y-85623364D01*
X140749000Y-85396636D01*
X140793232Y-85174266D01*
X140879997Y-84964797D01*
X141005960Y-84776280D01*
X141166280Y-84615960D01*
X141354797Y-84489997D01*
X141564266Y-84403232D01*
X141675451Y-84381116D01*
X141786635Y-84359000D01*
X142013365Y-84359000D01*
X142124549Y-84381116D01*
X142124549Y-84381116D01*
G37*
G36*
X104024549Y-71711116D02*
G01*
X104135734Y-71733232D01*
X104345203Y-71819997D01*
X104533720Y-71945960D01*
X104694040Y-72106280D01*
X104820003Y-72294797D01*
X104906768Y-72504266D01*
X104951000Y-72726636D01*
X104951000Y-72953364D01*
X104906768Y-73175734D01*
X104820003Y-73385203D01*
X104694040Y-73573720D01*
X104533720Y-73734040D01*
X104345203Y-73860003D01*
X104135734Y-73946768D01*
X104024549Y-73968884D01*
X103913365Y-73991000D01*
X103686635Y-73991000D01*
X103575451Y-73968884D01*
X103464266Y-73946768D01*
X103254797Y-73860003D01*
X103066280Y-73734040D01*
X102905960Y-73573720D01*
X102779997Y-73385203D01*
X102693232Y-73175734D01*
X102649000Y-72953364D01*
X102649000Y-72726636D01*
X102693232Y-72504266D01*
X102779997Y-72294797D01*
X102905960Y-72106280D01*
X103066280Y-71945960D01*
X103254797Y-71819997D01*
X103464266Y-71733232D01*
X103575451Y-71711116D01*
X103686635Y-71689000D01*
X103913365Y-71689000D01*
X104024549Y-71711116D01*
X104024549Y-71711116D01*
G37*
G36*
X180224549Y-49841116D02*
G01*
X180335734Y-49863232D01*
X180545203Y-49949997D01*
X180733720Y-50075960D01*
X180894040Y-50236280D01*
X181020003Y-50424797D01*
X181106768Y-50634266D01*
X181151000Y-50856636D01*
X181151000Y-51083364D01*
X181106768Y-51305734D01*
X181020003Y-51515203D01*
X180894040Y-51703720D01*
X180733720Y-51864040D01*
X180545203Y-51990003D01*
X180335734Y-52076768D01*
X180224549Y-52098884D01*
X180113365Y-52121000D01*
X179886635Y-52121000D01*
X179775451Y-52098884D01*
X179664266Y-52076768D01*
X179454797Y-51990003D01*
X179266280Y-51864040D01*
X179105960Y-51703720D01*
X178979997Y-51515203D01*
X178893232Y-51305734D01*
X178849000Y-51083364D01*
X178849000Y-50856636D01*
X178893232Y-50634266D01*
X178979997Y-50424797D01*
X179105960Y-50236280D01*
X179266280Y-50075960D01*
X179454797Y-49949997D01*
X179664266Y-49863232D01*
X179775451Y-49841116D01*
X179886635Y-49819000D01*
X180113365Y-49819000D01*
X180224549Y-49841116D01*
X180224549Y-49841116D01*
G37*
M02*
