G04 #@! TF.GenerationSoftware,KiCad,Pcbnew,(5.1.0)-1*
G04 #@! TF.CreationDate,2019-05-16T00:58:07+08:00*
G04 #@! TF.ProjectId,ShinkaiTopPlate,5368696e-6b61-4695-946f-70506c617465,rev?*
G04 #@! TF.SameCoordinates,Original*
G04 #@! TF.FileFunction,Profile,NP*
%FSLAX46Y46*%
G04 Gerber Fmt 4.6, Leading zero omitted, Abs format (unit mm)*
G04 Created by KiCad (PCBNEW (5.1.0)-1) date 2019-05-16 00:58:07*
%MOMM*%
%LPD*%
G04 APERTURE LIST*
%ADD10C,0.200000*%
G04 APERTURE END LIST*
D10*
X144503790Y-67865830D02*
X144503790Y-81715830D01*
X177403790Y-53578330D02*
X163553790Y-53578330D01*
X144503790Y-100765830D02*
X158353790Y-100765830D01*
X144503790Y-81715830D02*
X158353790Y-81715830D01*
X158353790Y-100765830D02*
X158353790Y-86915830D01*
X158353790Y-81715830D02*
X158353790Y-67865830D01*
X158353790Y-67865830D02*
X144503790Y-67865830D01*
X177403790Y-91677830D02*
X163553790Y-91677830D01*
X182603790Y-53578330D02*
X182603790Y-67428330D01*
X177403790Y-72627830D02*
X163553790Y-72627830D01*
X196453790Y-53578330D02*
X182603790Y-53578330D01*
X177403790Y-105527830D02*
X177403790Y-91677830D01*
X163553790Y-105527830D02*
X177403790Y-105527830D01*
X163553790Y-53578330D02*
X163553790Y-67428330D01*
X163553790Y-72627830D02*
X163553790Y-86477830D01*
X163553790Y-91677830D02*
X163553790Y-105527830D01*
X158353790Y-86915830D02*
X144503790Y-86915830D01*
X177403790Y-86477830D02*
X177403790Y-72627830D01*
X163553790Y-86477830D02*
X177403790Y-86477830D01*
X177403790Y-67428330D02*
X177403790Y-53578330D01*
X144503790Y-86915830D02*
X144503790Y-100765830D01*
X158353790Y-62665830D02*
X158353790Y-48815830D01*
X163553790Y-67428330D02*
X177403790Y-67428330D01*
X87353790Y-56415830D02*
X87353790Y-70265830D01*
X80775990Y-115297830D02*
X131720527Y-115297830D01*
X118447790Y-49763030D02*
X80775990Y-49763030D01*
X120447790Y-45809930D02*
X120447790Y-47763030D01*
X132896716Y-115680245D02*
X158564486Y-134343973D01*
X101203790Y-89315830D02*
X101203790Y-75465830D01*
X120253790Y-75465830D02*
X106403790Y-75465830D01*
X101203790Y-56415830D02*
X87353790Y-56415830D01*
X101203790Y-70265830D02*
X101203790Y-56415830D01*
X120253790Y-108365830D02*
X120253790Y-94515830D01*
X106403790Y-108365830D02*
X120253790Y-108365830D01*
X106403790Y-94515830D02*
X106403790Y-108365830D01*
X120253790Y-94515830D02*
X106403790Y-94515830D01*
X101203790Y-108365830D02*
X101203790Y-94515830D01*
X87353790Y-108365830D02*
X101203790Y-108365830D01*
X87353790Y-89315830D02*
X101203790Y-89315830D01*
X158564486Y-134343973D02*
X205452460Y-142351976D01*
X87353790Y-94515830D02*
X87353790Y-108365830D01*
X207758021Y-140732097D02*
X213362790Y-109344830D01*
X101203790Y-75465830D02*
X87353790Y-75465830D01*
X101203790Y-94515830D02*
X87353790Y-94515830D01*
X87353790Y-75465830D02*
X87353790Y-89315830D01*
X87353790Y-70265830D02*
X101203790Y-70265830D01*
X202313377Y-116798857D02*
X199908790Y-130437830D01*
X181104186Y-50978685D02*
G75*
G03X181104186Y-50978685I-1100000J0D01*
G01*
X80775990Y-115297830D02*
G75*
G02X78775990Y-113297830I0J2000000D01*
G01*
X78775990Y-51763030D02*
G75*
G02X80775990Y-49763030I2000000J0D01*
G01*
X200154130Y-108129262D02*
G75*
G03X200154130Y-108129262I-1100000J0D01*
G01*
X199908790Y-130437830D02*
X186268762Y-128033417D01*
X186268762Y-128033417D02*
X188673790Y-114393830D01*
X182603790Y-72627830D02*
X182603790Y-86477830D01*
X182603790Y-86477830D02*
X196453790Y-86477830D01*
X207758021Y-140732097D02*
G75*
G02X205452460Y-142351976I-1968856J351575D01*
G01*
X104903779Y-72840915D02*
G75*
G03X104903779Y-72840915I-1100000J0D01*
G01*
X163200937Y-126587849D02*
X177031790Y-127312830D01*
X206453790Y-109344830D02*
G75*
G02X204453790Y-107344830I0J2000000D01*
G01*
X120447790Y-45809929D02*
G75*
G02X122447789Y-43809930I1999999J0D01*
G01*
X202453790Y-43809929D02*
G75*
G02X204453790Y-45809929I0J-2000000D01*
G01*
X104904329Y-91891159D02*
G75*
G03X104904329Y-91891159I-1100000J0D01*
G01*
X196453790Y-105527830D02*
X196453790Y-91677830D01*
X182603790Y-91677830D02*
X182603790Y-105527830D01*
X213362790Y-109344830D02*
X206453790Y-109344830D01*
X163925790Y-112756830D02*
X163200937Y-126587849D01*
X196453790Y-67428330D02*
X196453790Y-53578330D01*
X182603790Y-67428330D02*
X196453790Y-67428330D01*
X131720526Y-115297830D02*
G75*
G02X132896716Y-115680245I1J-2000000D01*
G01*
X196453790Y-86477830D02*
X196453790Y-72627830D01*
X120447790Y-47763030D02*
G75*
G02X118447790Y-49763030I-2000000J0D01*
G01*
X143004071Y-85506927D02*
G75*
G03X143004071Y-85506927I-1100000J0D01*
G01*
X188673790Y-114393830D02*
X202313377Y-116798857D01*
X163925790Y-112756830D02*
X177756809Y-113481682D01*
X196453790Y-72627830D02*
X182603790Y-72627830D01*
X177031790Y-127312830D02*
X177756809Y-113481682D01*
X182603790Y-105527830D02*
X196453790Y-105527830D01*
X204453790Y-45809930D02*
X204453790Y-107344830D01*
X196453790Y-91677830D02*
X182603790Y-91677830D01*
X202453790Y-43809930D02*
X122447789Y-43809930D01*
X78775990Y-51763030D02*
X78775990Y-113297830D01*
X106403790Y-89315830D02*
X120253790Y-89315830D01*
X106403790Y-56415830D02*
X106403790Y-70265830D01*
X106403790Y-75465830D02*
X106403790Y-89315830D01*
X120253790Y-89315830D02*
X120253790Y-75465830D01*
X139303790Y-103146830D02*
X139303790Y-89296830D01*
X125453790Y-103146830D02*
X139303790Y-103146830D01*
X120253790Y-56415830D02*
X106403790Y-56415830D01*
X125453790Y-89296830D02*
X125453790Y-103146830D01*
X139303790Y-89296830D02*
X125453790Y-89296830D01*
X106403790Y-70265830D02*
X120253790Y-70265830D01*
X120253790Y-70265830D02*
X120253790Y-56415830D01*
X139303790Y-65047030D02*
X139303790Y-51197030D01*
X125453790Y-65047030D02*
X139303790Y-65047030D01*
X125453790Y-70246830D02*
X125453790Y-84096830D01*
X139303790Y-70246830D02*
X125453790Y-70246830D01*
X139303790Y-84096830D02*
X139303790Y-70246830D01*
X125453790Y-84096830D02*
X139303790Y-84096830D01*
X125453790Y-51197030D02*
X125453790Y-65047030D01*
X139303790Y-51197030D02*
X125453790Y-51197030D01*
X144503790Y-62665830D02*
X158353790Y-62665830D01*
X144503790Y-48815830D02*
X144503790Y-62665830D01*
X158353790Y-48815830D02*
X144503790Y-48815830D01*
M02*
