M48
; DRILL file {KiCad (5.1.0)-1} date 5/16/2019 1:00:05 AM
; FORMAT={-:-/ absolute / metric / decimal}
; #@! TF.CreationDate,2019-05-16T01:00:05+08:00
; #@! TF.GenerationSoftware,Kicad,Pcbnew,(5.1.0)-1
; #@! TF.FileFunction,NonPlated,1,2,NPTH
FMAT,2
METRIC
T1C1.200
T2C1.900
T3C3.000
T4C4.100
T5C4.800
%
G90
G05
T1
X221.292Y-126.838
X221.292Y-128.588
X228.292Y-126.838
X228.292Y-128.588
T2
X128.27Y-107.156
X138.43Y-107.156
X109.22Y-131.425
X119.38Y-131.425
X147.32Y-123.825
X157.48Y-123.825
X166.37Y-109.537
X176.53Y-109.537
X109.22Y-93.325
X119.38Y-93.325
X166.377Y-149.753
X176.523Y-150.285
X90.17Y-112.375
X100.33Y-112.375
X190.26Y-151.518
X200.265Y-153.282
X90.17Y-131.425
X100.33Y-131.425
X128.27Y-88.106
X138.43Y-88.106
X166.37Y-90.487
X176.53Y-90.487
X185.42Y-128.588
X195.58Y-128.588
X109.22Y-112.375
X119.38Y-112.375
X185.42Y-90.487
X195.58Y-90.487
X147.32Y-85.725
X157.48Y-85.725
X147.32Y-104.775
X157.48Y-104.775
X185.42Y-109.537
X195.58Y-109.537
X166.37Y-128.588
X176.53Y-128.588
X128.27Y-126.206
X138.43Y-126.206
X90.17Y-93.325
X100.33Y-93.325
T3
X110.49Y-128.885
X111.76Y-126.345
X116.84Y-126.345
X118.11Y-128.885
X148.59Y-121.285
X149.86Y-118.745
X154.94Y-118.745
X156.21Y-121.285
X167.64Y-106.997
X168.91Y-104.457
X173.99Y-104.457
X175.26Y-106.997
X110.49Y-90.785
X111.76Y-88.245
X116.84Y-88.245
X118.11Y-90.785
X167.778Y-147.283
X169.179Y-144.813
X174.252Y-145.079
X175.388Y-147.682
X91.44Y-109.835
X92.71Y-107.295
X97.79Y-107.295
X99.06Y-109.835
X191.951Y-149.237
X193.643Y-146.956
X198.646Y-147.838
X199.456Y-150.56
X91.44Y-128.885
X92.71Y-126.345
X97.79Y-126.345
X99.06Y-128.885
X129.54Y-85.566
X130.81Y-83.026
X135.89Y-83.026
X137.16Y-85.566
X167.64Y-87.947
X168.91Y-85.407
X173.99Y-85.407
X175.26Y-87.947
X186.69Y-126.047
X187.96Y-123.507
X193.04Y-123.507
X194.31Y-126.047
X110.49Y-109.835
X111.76Y-107.295
X116.84Y-107.295
X118.11Y-109.835
X186.69Y-87.947
X187.96Y-85.407
X193.04Y-85.407
X194.31Y-87.947
X148.59Y-83.185
X149.86Y-80.645
X154.94Y-80.645
X156.21Y-83.185
X148.59Y-102.235
X149.86Y-99.695
X154.94Y-99.695
X156.21Y-102.235
X186.69Y-106.997
X187.96Y-104.457
X193.04Y-104.457
X194.31Y-106.997
X167.64Y-126.047
X168.91Y-123.507
X173.99Y-123.507
X175.26Y-126.047
X129.54Y-123.666
X130.81Y-121.126
X135.89Y-121.126
X137.16Y-123.666
X91.44Y-90.785
X92.71Y-88.245
X97.79Y-88.245
X99.06Y-90.785
X129.54Y-104.616
X130.81Y-102.076
X135.89Y-102.076
X137.16Y-104.616
T4
X133.35Y-88.106
X171.45Y-90.487
X190.5Y-128.588
X114.3Y-112.375
X190.5Y-90.487
X152.4Y-85.725
X152.4Y-104.775
X190.5Y-109.537
X171.45Y-128.588
X133.35Y-126.206
X95.25Y-93.325
X133.35Y-107.156
X114.3Y-131.425
X152.4Y-123.825
X171.45Y-109.537
X114.3Y-93.325
X171.45Y-150.019
X95.25Y-112.375
X195.262Y-152.4
X95.25Y-131.425
T5
X104.775Y-121.875
X104.775Y-102.825
X200.026Y-138.113
X180.976Y-80.963
X142.876Y-115.491
T0
M30
