G04 #@! TF.GenerationSoftware,KiCad,Pcbnew,(5.1.0)-1*
G04 #@! TF.CreationDate,2019-05-16T01:00:00+08:00*
G04 #@! TF.ProjectId,Shinkai,5368696e-6b61-4692-9e6b-696361645f70,rev?*
G04 #@! TF.SameCoordinates,Original*
G04 #@! TF.FileFunction,Legend,Top*
G04 #@! TF.FilePolarity,Positive*
%FSLAX46Y46*%
G04 Gerber Fmt 4.6, Leading zero omitted, Abs format (unit mm)*
G04 Created by KiCad (PCBNEW (5.1.0)-1) date 2019-05-16 01:00:00*
%MOMM*%
%LPD*%
G04 APERTURE LIST*
%ADD10C,0.010000*%
%ADD11C,0.400000*%
%ADD12C,0.500000*%
%ADD13C,1.000000*%
%ADD14C,0.150000*%
%ADD15C,3.500000*%
%ADD16C,3.000000*%
%ADD17C,0.800000*%
%ADD18C,0.300000*%
%ADD19C,0.125000*%
G04 APERTURE END LIST*
D10*
G36*
X148098026Y-138617035D02*
G01*
X148101680Y-138617566D01*
X148166852Y-138638662D01*
X148205692Y-138695125D01*
X148228934Y-138811620D01*
X148241380Y-138938600D01*
X148258835Y-139107656D01*
X148282663Y-139198278D01*
X148324043Y-139233517D01*
X148386067Y-139236904D01*
X148451895Y-139238869D01*
X148484056Y-139269608D01*
X148489563Y-139352498D01*
X148475432Y-139510919D01*
X148473561Y-139528512D01*
X148447459Y-139743278D01*
X148416265Y-139876288D01*
X148366771Y-139947064D01*
X148285770Y-139975126D01*
X148168077Y-139980000D01*
X147953246Y-139980000D01*
X147962738Y-139332300D01*
X147966799Y-139045292D01*
X147971093Y-138844865D01*
X147978535Y-138716036D01*
X147992036Y-138643823D01*
X148014510Y-138613240D01*
X148048869Y-138609305D01*
X148098026Y-138617035D01*
X148098026Y-138617035D01*
G37*
X148098026Y-138617035D02*
X148101680Y-138617566D01*
X148166852Y-138638662D01*
X148205692Y-138695125D01*
X148228934Y-138811620D01*
X148241380Y-138938600D01*
X148258835Y-139107656D01*
X148282663Y-139198278D01*
X148324043Y-139233517D01*
X148386067Y-139236904D01*
X148451895Y-139238869D01*
X148484056Y-139269608D01*
X148489563Y-139352498D01*
X148475432Y-139510919D01*
X148473561Y-139528512D01*
X148447459Y-139743278D01*
X148416265Y-139876288D01*
X148366771Y-139947064D01*
X148285770Y-139975126D01*
X148168077Y-139980000D01*
X147953246Y-139980000D01*
X147962738Y-139332300D01*
X147966799Y-139045292D01*
X147971093Y-138844865D01*
X147978535Y-138716036D01*
X147992036Y-138643823D01*
X148014510Y-138613240D01*
X148048869Y-138609305D01*
X148098026Y-138617035D01*
G36*
X144553553Y-143697493D02*
G01*
X144039302Y-144210249D01*
X143464694Y-144642990D01*
X142836416Y-144990890D01*
X142643763Y-145075792D01*
X142525901Y-145121534D01*
X142479331Y-145124773D01*
X142482885Y-145085121D01*
X142487398Y-145072920D01*
X142526633Y-144980937D01*
X142591214Y-144838713D01*
X142628327Y-144759301D01*
X142697645Y-144607555D01*
X142790604Y-144397458D01*
X142891630Y-144164388D01*
X142937092Y-144057859D01*
X143135980Y-143589119D01*
X143893153Y-143587959D01*
X144650326Y-143586800D01*
X144553553Y-143697493D01*
X144553553Y-143697493D01*
G37*
X144553553Y-143697493D02*
X144039302Y-144210249D01*
X143464694Y-144642990D01*
X142836416Y-144990890D01*
X142643763Y-145075792D01*
X142525901Y-145121534D01*
X142479331Y-145124773D01*
X142482885Y-145085121D01*
X142487398Y-145072920D01*
X142526633Y-144980937D01*
X142591214Y-144838713D01*
X142628327Y-144759301D01*
X142697645Y-144607555D01*
X142790604Y-144397458D01*
X142891630Y-144164388D01*
X142937092Y-144057859D01*
X143135980Y-143589119D01*
X143893153Y-143587959D01*
X144650326Y-143586800D01*
X144553553Y-143697493D01*
G36*
X157865633Y-141415100D02*
G01*
X157857063Y-141557456D01*
X157849861Y-141653849D01*
X157848188Y-141669100D01*
X157799752Y-141693099D01*
X157689011Y-141704947D01*
X157554511Y-141704827D01*
X157434795Y-141692921D01*
X157368409Y-141669413D01*
X157366415Y-141666812D01*
X157357149Y-141595194D01*
X157364031Y-141464565D01*
X157370106Y-141412812D01*
X157398757Y-141199200D01*
X157877469Y-141199200D01*
X157865633Y-141415100D01*
X157865633Y-141415100D01*
G37*
X157865633Y-141415100D02*
X157857063Y-141557456D01*
X157849861Y-141653849D01*
X157848188Y-141669100D01*
X157799752Y-141693099D01*
X157689011Y-141704947D01*
X157554511Y-141704827D01*
X157434795Y-141692921D01*
X157368409Y-141669413D01*
X157366415Y-141666812D01*
X157357149Y-141595194D01*
X157364031Y-141464565D01*
X157370106Y-141412812D01*
X157398757Y-141199200D01*
X157877469Y-141199200D01*
X157865633Y-141415100D01*
G36*
X155862906Y-141204810D02*
G01*
X155924159Y-141231057D01*
X155935275Y-141292061D01*
X155933323Y-141313500D01*
X155921810Y-141455712D01*
X155916413Y-141567500D01*
X155905383Y-141654201D01*
X155860464Y-141694828D01*
X155753412Y-141706659D01*
X155688074Y-141707200D01*
X155548314Y-141700515D01*
X155486903Y-141673951D01*
X155480988Y-141618300D01*
X155494348Y-141504574D01*
X155501893Y-141364300D01*
X155510587Y-141261434D01*
X155549296Y-141213682D01*
X155646669Y-141199927D01*
X155725890Y-141199200D01*
X155862906Y-141204810D01*
X155862906Y-141204810D01*
G37*
X155862906Y-141204810D02*
X155924159Y-141231057D01*
X155935275Y-141292061D01*
X155933323Y-141313500D01*
X155921810Y-141455712D01*
X155916413Y-141567500D01*
X155905383Y-141654201D01*
X155860464Y-141694828D01*
X155753412Y-141706659D01*
X155688074Y-141707200D01*
X155548314Y-141700515D01*
X155486903Y-141673951D01*
X155480988Y-141618300D01*
X155494348Y-141504574D01*
X155501893Y-141364300D01*
X155510587Y-141261434D01*
X155549296Y-141213682D01*
X155646669Y-141199927D01*
X155725890Y-141199200D01*
X155862906Y-141204810D01*
G36*
X152372850Y-143840452D02*
G01*
X152616043Y-143994681D01*
X152508052Y-144146340D01*
X152435624Y-144243971D01*
X152393723Y-144292717D01*
X152390820Y-144294066D01*
X152346449Y-144267342D01*
X152243237Y-144203382D01*
X152165680Y-144154939D01*
X152023682Y-144057097D01*
X151963608Y-143979631D01*
X151976562Y-143897367D01*
X152040848Y-143801612D01*
X152129658Y-143686224D01*
X152372850Y-143840452D01*
X152372850Y-143840452D01*
G37*
X152372850Y-143840452D02*
X152616043Y-143994681D01*
X152508052Y-144146340D01*
X152435624Y-144243971D01*
X152393723Y-144292717D01*
X152390820Y-144294066D01*
X152346449Y-144267342D01*
X152243237Y-144203382D01*
X152165680Y-144154939D01*
X152023682Y-144057097D01*
X151963608Y-143979631D01*
X151976562Y-143897367D01*
X152040848Y-143801612D01*
X152129658Y-143686224D01*
X152372850Y-143840452D01*
G36*
X154113991Y-143960516D02*
G01*
X154362780Y-144186493D01*
X154239624Y-144318446D01*
X154150487Y-144405578D01*
X154091799Y-144447896D01*
X154087224Y-144448701D01*
X154037261Y-144416276D01*
X153935747Y-144333337D01*
X153817226Y-144229082D01*
X153576472Y-144011161D01*
X153720837Y-143872850D01*
X153865203Y-143734540D01*
X154113991Y-143960516D01*
X154113991Y-143960516D01*
G37*
X154113991Y-143960516D02*
X154362780Y-144186493D01*
X154239624Y-144318446D01*
X154150487Y-144405578D01*
X154091799Y-144447896D01*
X154087224Y-144448701D01*
X154037261Y-144416276D01*
X153935747Y-144333337D01*
X153817226Y-144229082D01*
X153576472Y-144011161D01*
X153720837Y-143872850D01*
X153865203Y-143734540D01*
X154113991Y-143960516D01*
G36*
X152074290Y-144240152D02*
G01*
X152172879Y-144314103D01*
X152266681Y-144395712D01*
X152289885Y-144455754D01*
X152251826Y-144535377D01*
X152230537Y-144568198D01*
X152159863Y-144662104D01*
X152110587Y-144703493D01*
X152109037Y-144703595D01*
X152051169Y-144677778D01*
X151939058Y-144612758D01*
X151861245Y-144563895D01*
X151738287Y-144479988D01*
X151660615Y-144417998D01*
X151646475Y-144399600D01*
X151674758Y-144345436D01*
X151739722Y-144253941D01*
X151830153Y-144174373D01*
X151935572Y-144168929D01*
X152074290Y-144240152D01*
X152074290Y-144240152D01*
G37*
X152074290Y-144240152D02*
X152172879Y-144314103D01*
X152266681Y-144395712D01*
X152289885Y-144455754D01*
X152251826Y-144535377D01*
X152230537Y-144568198D01*
X152159863Y-144662104D01*
X152110587Y-144703493D01*
X152109037Y-144703595D01*
X152051169Y-144677778D01*
X151939058Y-144612758D01*
X151861245Y-144563895D01*
X151738287Y-144479988D01*
X151660615Y-144417998D01*
X151646475Y-144399600D01*
X151674758Y-144345436D01*
X151739722Y-144253941D01*
X151830153Y-144174373D01*
X151935572Y-144168929D01*
X152074290Y-144240152D01*
G36*
X158607520Y-143792399D02*
G01*
X158769811Y-143924855D01*
X158511559Y-144124127D01*
X158253307Y-144323400D01*
X158251143Y-144833220D01*
X158248980Y-145343041D01*
X157842580Y-145345967D01*
X157842580Y-144561761D01*
X157588035Y-144658480D01*
X157415826Y-144721710D01*
X157312207Y-144745951D01*
X157250845Y-144728436D01*
X157205403Y-144666394D01*
X157179264Y-144615500D01*
X157124593Y-144506719D01*
X157092699Y-144443768D01*
X157124886Y-144414197D01*
X157225459Y-144383864D01*
X157243469Y-144380271D01*
X157472721Y-144311013D01*
X157735579Y-144192050D01*
X157992488Y-144044168D01*
X158203890Y-143888157D01*
X158236741Y-143858273D01*
X158445228Y-143659943D01*
X158607520Y-143792399D01*
X158607520Y-143792399D01*
G37*
X158607520Y-143792399D02*
X158769811Y-143924855D01*
X158511559Y-144124127D01*
X158253307Y-144323400D01*
X158251143Y-144833220D01*
X158248980Y-145343041D01*
X157842580Y-145345967D01*
X157842580Y-144561761D01*
X157588035Y-144658480D01*
X157415826Y-144721710D01*
X157312207Y-144745951D01*
X157250845Y-144728436D01*
X157205403Y-144666394D01*
X157179264Y-144615500D01*
X157124593Y-144506719D01*
X157092699Y-144443768D01*
X157124886Y-144414197D01*
X157225459Y-144383864D01*
X157243469Y-144380271D01*
X157472721Y-144311013D01*
X157735579Y-144192050D01*
X157992488Y-144044168D01*
X158203890Y-143888157D01*
X158236741Y-143858273D01*
X158445228Y-143659943D01*
X158607520Y-143792399D01*
G36*
X156051880Y-143698033D02*
G01*
X156177383Y-143716724D01*
X156231450Y-143762018D01*
X156244244Y-143860272D01*
X156244331Y-143866200D01*
X156254809Y-143968064D01*
X156303417Y-144006760D01*
X156421352Y-144006984D01*
X156422131Y-144006932D01*
X156563110Y-144013535D01*
X156708528Y-144043627D01*
X156824248Y-144087283D01*
X156876134Y-144134575D01*
X156876499Y-144139063D01*
X156871112Y-144200421D01*
X156857373Y-144338856D01*
X156837689Y-144530419D01*
X156825151Y-144650205D01*
X156789958Y-144923318D01*
X156744874Y-145110457D01*
X156679128Y-145227245D01*
X156581945Y-145289305D01*
X156442553Y-145312261D01*
X156367431Y-145314000D01*
X156217007Y-145307025D01*
X156137970Y-145277731D01*
X156100577Y-145213567D01*
X156096598Y-145199700D01*
X156064955Y-145045156D01*
X156083068Y-144965699D01*
X156161118Y-144942841D01*
X156235220Y-144947922D01*
X156349538Y-144944645D01*
X156420622Y-144891569D01*
X156457703Y-144772510D01*
X156470014Y-144571286D01*
X156470286Y-144535925D01*
X156464529Y-144410504D01*
X156432146Y-144359529D01*
X156352312Y-144356011D01*
X156333086Y-144358125D01*
X156224599Y-144396166D01*
X156170618Y-144497041D01*
X156163785Y-144526600D01*
X156089257Y-144753450D01*
X155968549Y-144980516D01*
X155822455Y-145175450D01*
X155671767Y-145305902D01*
X155657742Y-145313889D01*
X155556787Y-145311341D01*
X155439547Y-145233487D01*
X155297990Y-145111725D01*
X155485652Y-144946956D01*
X155625124Y-144796145D01*
X155737796Y-144623279D01*
X155802622Y-144463517D01*
X155810580Y-144404152D01*
X155765288Y-144370622D01*
X155651398Y-144344869D01*
X155594680Y-144339020D01*
X155458996Y-144323352D01*
X155396646Y-144287996D01*
X155379391Y-144210977D01*
X155378780Y-144171000D01*
X155384790Y-144079117D01*
X155420734Y-144034521D01*
X155513480Y-144020339D01*
X155620080Y-144019446D01*
X155765533Y-144016574D01*
X155836302Y-143994107D01*
X155859296Y-143933291D01*
X155861380Y-143851280D01*
X155867888Y-143741403D01*
X155907402Y-143697263D01*
X156009906Y-143694740D01*
X156051880Y-143698033D01*
X156051880Y-143698033D01*
G37*
X156051880Y-143698033D02*
X156177383Y-143716724D01*
X156231450Y-143762018D01*
X156244244Y-143860272D01*
X156244331Y-143866200D01*
X156254809Y-143968064D01*
X156303417Y-144006760D01*
X156421352Y-144006984D01*
X156422131Y-144006932D01*
X156563110Y-144013535D01*
X156708528Y-144043627D01*
X156824248Y-144087283D01*
X156876134Y-144134575D01*
X156876499Y-144139063D01*
X156871112Y-144200421D01*
X156857373Y-144338856D01*
X156837689Y-144530419D01*
X156825151Y-144650205D01*
X156789958Y-144923318D01*
X156744874Y-145110457D01*
X156679128Y-145227245D01*
X156581945Y-145289305D01*
X156442553Y-145312261D01*
X156367431Y-145314000D01*
X156217007Y-145307025D01*
X156137970Y-145277731D01*
X156100577Y-145213567D01*
X156096598Y-145199700D01*
X156064955Y-145045156D01*
X156083068Y-144965699D01*
X156161118Y-144942841D01*
X156235220Y-144947922D01*
X156349538Y-144944645D01*
X156420622Y-144891569D01*
X156457703Y-144772510D01*
X156470014Y-144571286D01*
X156470286Y-144535925D01*
X156464529Y-144410504D01*
X156432146Y-144359529D01*
X156352312Y-144356011D01*
X156333086Y-144358125D01*
X156224599Y-144396166D01*
X156170618Y-144497041D01*
X156163785Y-144526600D01*
X156089257Y-144753450D01*
X155968549Y-144980516D01*
X155822455Y-145175450D01*
X155671767Y-145305902D01*
X155657742Y-145313889D01*
X155556787Y-145311341D01*
X155439547Y-145233487D01*
X155297990Y-145111725D01*
X155485652Y-144946956D01*
X155625124Y-144796145D01*
X155737796Y-144623279D01*
X155802622Y-144463517D01*
X155810580Y-144404152D01*
X155765288Y-144370622D01*
X155651398Y-144344869D01*
X155594680Y-144339020D01*
X155458996Y-144323352D01*
X155396646Y-144287996D01*
X155379391Y-144210977D01*
X155378780Y-144171000D01*
X155384790Y-144079117D01*
X155420734Y-144034521D01*
X155513480Y-144020339D01*
X155620080Y-144019446D01*
X155765533Y-144016574D01*
X155836302Y-143994107D01*
X155859296Y-143933291D01*
X155861380Y-143851280D01*
X155867888Y-143741403D01*
X155907402Y-143697263D01*
X156009906Y-143694740D01*
X156051880Y-143698033D01*
G36*
X155053001Y-144148931D02*
G01*
X155114054Y-144278546D01*
X155146560Y-144376580D01*
X155148050Y-144389076D01*
X155116510Y-144457629D01*
X155032001Y-144572484D01*
X154920919Y-144699850D01*
X154679843Y-144912224D01*
X154384616Y-145105076D01*
X154078394Y-145252219D01*
X153928271Y-145302211D01*
X153807511Y-145326958D01*
X153732051Y-145303930D01*
X153659049Y-145215327D01*
X153636171Y-145180858D01*
X153555615Y-145051825D01*
X153530875Y-144985314D01*
X153558846Y-144961077D01*
X153602049Y-144958400D01*
X153753467Y-144931582D01*
X153954105Y-144861084D01*
X154170192Y-144761838D01*
X154367957Y-144648775D01*
X154472368Y-144573572D01*
X154628976Y-144426477D01*
X154773226Y-144260517D01*
X154829658Y-144181068D01*
X154960082Y-143974463D01*
X155053001Y-144148931D01*
X155053001Y-144148931D01*
G37*
X155053001Y-144148931D02*
X155114054Y-144278546D01*
X155146560Y-144376580D01*
X155148050Y-144389076D01*
X155116510Y-144457629D01*
X155032001Y-144572484D01*
X154920919Y-144699850D01*
X154679843Y-144912224D01*
X154384616Y-145105076D01*
X154078394Y-145252219D01*
X153928271Y-145302211D01*
X153807511Y-145326958D01*
X153732051Y-145303930D01*
X153659049Y-145215327D01*
X153636171Y-145180858D01*
X153555615Y-145051825D01*
X153530875Y-144985314D01*
X153558846Y-144961077D01*
X153602049Y-144958400D01*
X153753467Y-144931582D01*
X153954105Y-144861084D01*
X154170192Y-144761838D01*
X154367957Y-144648775D01*
X154472368Y-144573572D01*
X154628976Y-144426477D01*
X154773226Y-144260517D01*
X154829658Y-144181068D01*
X154960082Y-143974463D01*
X155053001Y-144148931D01*
G36*
X153212839Y-144247571D02*
G01*
X153280782Y-144365449D01*
X153318490Y-144443345D01*
X153321190Y-144454113D01*
X153287868Y-144501597D01*
X153199892Y-144599555D01*
X153075544Y-144727736D01*
X153061808Y-144741440D01*
X152880407Y-144899385D01*
X152672317Y-145045201D01*
X152455625Y-145170408D01*
X152248417Y-145266521D01*
X152068780Y-145325060D01*
X151934800Y-145337541D01*
X151867663Y-145301486D01*
X151811831Y-145210228D01*
X151759074Y-145126501D01*
X151722074Y-145056132D01*
X151739270Y-145013521D01*
X151828474Y-144978075D01*
X151906152Y-144956468D01*
X152304102Y-144806973D01*
X152651709Y-144591440D01*
X152930440Y-144322483D01*
X153022529Y-144196596D01*
X153104678Y-144070143D01*
X153212839Y-144247571D01*
X153212839Y-144247571D01*
G37*
X153212839Y-144247571D02*
X153280782Y-144365449D01*
X153318490Y-144443345D01*
X153321190Y-144454113D01*
X153287868Y-144501597D01*
X153199892Y-144599555D01*
X153075544Y-144727736D01*
X153061808Y-144741440D01*
X152880407Y-144899385D01*
X152672317Y-145045201D01*
X152455625Y-145170408D01*
X152248417Y-145266521D01*
X152068780Y-145325060D01*
X151934800Y-145337541D01*
X151867663Y-145301486D01*
X151811831Y-145210228D01*
X151759074Y-145126501D01*
X151722074Y-145056132D01*
X151739270Y-145013521D01*
X151828474Y-144978075D01*
X151906152Y-144956468D01*
X152304102Y-144806973D01*
X152651709Y-144591440D01*
X152930440Y-144322483D01*
X153022529Y-144196596D01*
X153104678Y-144070143D01*
X153212839Y-144247571D01*
G36*
X150282144Y-136502242D02*
G01*
X150618073Y-136549107D01*
X150962422Y-136600487D01*
X151298582Y-136635477D01*
X151604577Y-136652911D01*
X151858432Y-136651622D01*
X152038172Y-136630443D01*
X152057212Y-136625527D01*
X152247637Y-136584844D01*
X152455824Y-136572572D01*
X152714235Y-136587869D01*
X152864180Y-136604576D01*
X153040723Y-136619726D01*
X153294763Y-136631004D01*
X153630903Y-136638472D01*
X154053744Y-136642191D01*
X154567889Y-136642222D01*
X155177941Y-136638626D01*
X155327980Y-136637331D01*
X155586078Y-136636212D01*
X155864149Y-136636883D01*
X156089980Y-136639050D01*
X156315899Y-136635913D01*
X156589675Y-136622693D01*
X156858369Y-136602082D01*
X156902780Y-136597727D01*
X157551067Y-136566667D01*
X158150839Y-136609656D01*
X158691918Y-136725778D01*
X158831692Y-136771335D01*
X159014046Y-136837216D01*
X159154710Y-136896820D01*
X159270816Y-136964463D01*
X159379497Y-137054460D01*
X159497886Y-137181126D01*
X159643114Y-137358777D01*
X159832315Y-137601726D01*
X159844749Y-137617800D01*
X160052227Y-137898908D01*
X160194883Y-138127344D01*
X160280641Y-138321364D01*
X160317423Y-138499224D01*
X160313152Y-138679179D01*
X160311420Y-138693098D01*
X160273617Y-139054732D01*
X160252285Y-139417758D01*
X160248028Y-139754286D01*
X160261451Y-140036430D01*
X160279294Y-140173904D01*
X160300998Y-140336713D01*
X160322427Y-140573301D01*
X160341518Y-140855864D01*
X160356207Y-141156596D01*
X160359868Y-141259204D01*
X160368179Y-141573836D01*
X160368950Y-141809805D01*
X160360627Y-141989870D01*
X160341656Y-142136790D01*
X160310482Y-142273327D01*
X160284534Y-142362131D01*
X160229913Y-142575446D01*
X160203444Y-142789249D01*
X160200797Y-143046134D01*
X160204497Y-143149531D01*
X160221141Y-143508515D01*
X160238700Y-143847759D01*
X160256260Y-144152844D01*
X160272905Y-144409349D01*
X160287718Y-144602855D01*
X160299785Y-144718943D01*
X160305884Y-144746237D01*
X160294067Y-144796706D01*
X160248013Y-144916297D01*
X160176713Y-145082192D01*
X160151332Y-145138481D01*
X160056891Y-145361305D01*
X159970583Y-145591671D01*
X159910353Y-145781519D01*
X159908248Y-145789470D01*
X159786110Y-146113227D01*
X159609045Y-146380900D01*
X159390053Y-146574952D01*
X159283114Y-146632780D01*
X158831180Y-146802345D01*
X158381533Y-146914190D01*
X157953971Y-146965536D01*
X157568290Y-146953603D01*
X157334580Y-146906330D01*
X157145053Y-146870796D01*
X156878407Y-146848143D01*
X156558258Y-146838046D01*
X156208224Y-146840180D01*
X155851923Y-146854220D01*
X155512973Y-146879839D01*
X155214990Y-146916713D01*
X155099380Y-146937126D01*
X154876168Y-146976690D01*
X154661416Y-147002218D01*
X154427465Y-147015282D01*
X154146657Y-147017449D01*
X153803980Y-147010644D01*
X153383420Y-146999214D01*
X153043113Y-146990851D01*
X152761757Y-146985527D01*
X152518051Y-146983216D01*
X152290695Y-146983892D01*
X152058386Y-146987528D01*
X151799826Y-146994098D01*
X151493711Y-147003575D01*
X151370037Y-147007618D01*
X150999213Y-147017864D01*
X150713197Y-147020659D01*
X150495430Y-147015445D01*
X150329354Y-147001666D01*
X150198412Y-146978762D01*
X150150837Y-146966549D01*
X150020204Y-146945511D01*
X149806229Y-146928993D01*
X149527065Y-146916933D01*
X149200864Y-146909267D01*
X148845783Y-146905933D01*
X148479972Y-146906867D01*
X148121588Y-146912007D01*
X147788782Y-146921288D01*
X147499709Y-146934648D01*
X147272522Y-146952024D01*
X147125376Y-146973352D01*
X147110491Y-146977122D01*
X146971713Y-147001976D01*
X146817834Y-146994342D01*
X146611764Y-146951855D01*
X146577091Y-146943106D01*
X146350087Y-146898382D01*
X146112562Y-146872299D01*
X145955380Y-146869575D01*
X145508087Y-146892586D01*
X145150341Y-146912034D01*
X144870187Y-146928787D01*
X144655669Y-146943712D01*
X144494830Y-146957677D01*
X144375716Y-146971550D01*
X144286369Y-146986198D01*
X144253580Y-146993074D01*
X144078530Y-147024287D01*
X143912181Y-147031112D01*
X143714548Y-147013193D01*
X143542380Y-146986778D01*
X143202543Y-146932553D01*
X142936684Y-146897668D01*
X142719361Y-146880525D01*
X142525132Y-146879527D01*
X142328555Y-146893075D01*
X142226933Y-146904152D01*
X142080451Y-146914810D01*
X141931166Y-146908512D01*
X141760673Y-146881446D01*
X141550563Y-146829800D01*
X141282429Y-146749758D01*
X140937864Y-146637509D01*
X140934697Y-146636453D01*
X140655264Y-146496285D01*
X140392348Y-146276910D01*
X140170341Y-146000413D01*
X140099011Y-145879804D01*
X140014064Y-145673334D01*
X139934319Y-145394559D01*
X139865001Y-145072772D01*
X139811337Y-144737267D01*
X139778552Y-144417338D01*
X139771874Y-144142281D01*
X139776030Y-144069400D01*
X139800281Y-143787112D01*
X139824991Y-143511371D01*
X139848078Y-143264310D01*
X139867460Y-143068063D01*
X139881057Y-142944764D01*
X139883532Y-142926400D01*
X139878599Y-142838196D01*
X139854198Y-142687990D01*
X139824862Y-142549347D01*
X139781171Y-142235398D01*
X139787310Y-141970816D01*
X139811184Y-141700782D01*
X139825535Y-141399527D01*
X139830114Y-141096956D01*
X139827496Y-140965059D01*
X140018754Y-140965059D01*
X140020364Y-140966689D01*
X140073636Y-140991174D01*
X140188652Y-141038164D01*
X140250919Y-141062663D01*
X140642902Y-141231665D01*
X141036144Y-141430723D01*
X141400575Y-141643137D01*
X141706122Y-141852213D01*
X141785192Y-141914566D01*
X141958405Y-142057092D01*
X142237433Y-141615446D01*
X142378701Y-141392001D01*
X142521651Y-141166155D01*
X142643598Y-140973735D01*
X142686809Y-140905661D01*
X142857158Y-140637523D01*
X143008173Y-140809519D01*
X143111092Y-140944731D01*
X143223034Y-141119380D01*
X143328775Y-141305881D01*
X143413087Y-141476647D01*
X143460745Y-141604095D01*
X143466180Y-141639292D01*
X143493437Y-141687942D01*
X143588861Y-141691828D01*
X143631280Y-141685559D01*
X144042998Y-141584417D01*
X144477743Y-141423028D01*
X144901423Y-141217259D01*
X145279949Y-140982981D01*
X145487075Y-140821673D01*
X145658978Y-140630205D01*
X145829088Y-140367177D01*
X145982593Y-140061793D01*
X146104681Y-139743255D01*
X146176897Y-139461624D01*
X146195813Y-139344559D01*
X146220525Y-139175706D01*
X146246219Y-138990140D01*
X146268082Y-138822934D01*
X146281298Y-138709160D01*
X146282970Y-138688833D01*
X146325777Y-138631695D01*
X146347243Y-138621712D01*
X146371801Y-138639378D01*
X146389623Y-138718021D01*
X146401545Y-138867905D01*
X146408400Y-139099292D01*
X146410983Y-139404878D01*
X146420297Y-139866144D01*
X146446806Y-140238117D01*
X146492316Y-140531936D01*
X146558632Y-140758735D01*
X146647558Y-140929651D01*
X146661233Y-140948833D01*
X146732232Y-141050115D01*
X146767366Y-141110531D01*
X146768180Y-141114180D01*
X146720760Y-141122558D01*
X146592018Y-141129635D01*
X146402230Y-141134615D01*
X146196680Y-141136643D01*
X145961600Y-141137779D01*
X145761729Y-141139503D01*
X145620358Y-141141568D01*
X145563586Y-141143406D01*
X145529240Y-141189830D01*
X145504817Y-141326131D01*
X145489484Y-141557478D01*
X145487386Y-141617196D01*
X145472780Y-142085992D01*
X144266280Y-142085770D01*
X143059780Y-142085549D01*
X143059780Y-142556277D01*
X143058535Y-142775096D01*
X143052431Y-142908231D01*
X143037910Y-142971588D01*
X143011415Y-142981074D01*
X142970880Y-142953827D01*
X142894446Y-142893299D01*
X142758553Y-142787884D01*
X142584644Y-142654157D01*
X142450180Y-142551364D01*
X142018380Y-142222080D01*
X141922828Y-142434540D01*
X141791461Y-142718571D01*
X141628483Y-143058495D01*
X141444684Y-143432911D01*
X141250855Y-143820418D01*
X141057785Y-144199619D01*
X140876267Y-144549111D01*
X140717090Y-144847496D01*
X140600366Y-145057241D01*
X140476200Y-145275612D01*
X140372895Y-145462243D01*
X140299933Y-145599631D01*
X140266794Y-145670274D01*
X140265780Y-145674857D01*
X140305509Y-145716127D01*
X140412892Y-145799309D01*
X140570224Y-145911210D01*
X140710280Y-146006001D01*
X140899677Y-146132330D01*
X141059379Y-146240050D01*
X141169084Y-146315396D01*
X141205580Y-146341765D01*
X141331584Y-146435199D01*
X141471005Y-146527572D01*
X141592467Y-146599190D01*
X141664591Y-146630357D01*
X141665507Y-146630449D01*
X141705043Y-146588579D01*
X141778213Y-146470370D01*
X141876082Y-146291735D01*
X141989716Y-146068585D01*
X142046507Y-145951855D01*
X142164760Y-145712462D01*
X142271698Y-145509334D01*
X142358303Y-145358608D01*
X142415560Y-145276418D01*
X142429747Y-145266055D01*
X142496910Y-145301503D01*
X142609642Y-145400188D01*
X142751809Y-145544631D01*
X142907275Y-145717353D01*
X143059905Y-145900874D01*
X143193565Y-146077715D01*
X143236007Y-146139500D01*
X143339272Y-146285476D01*
X143425633Y-146390205D01*
X143476804Y-146431568D01*
X143477524Y-146431600D01*
X143556002Y-146404348D01*
X143696395Y-146331113D01*
X143877736Y-146224675D01*
X144079058Y-146097814D01*
X144279395Y-145963310D01*
X144456780Y-145834707D01*
X144631690Y-145690858D01*
X144840490Y-145503832D01*
X145048346Y-145305282D01*
X145129880Y-145223092D01*
X145498180Y-144844128D01*
X145498180Y-146634800D01*
X147155529Y-146634800D01*
X147151557Y-145720400D01*
X147152187Y-145354008D01*
X147158000Y-145084259D01*
X147169455Y-144906305D01*
X147187009Y-144815299D01*
X147211123Y-144806392D01*
X147233846Y-144850828D01*
X147296329Y-144953863D01*
X147419440Y-145108974D01*
X147588032Y-145300555D01*
X147786959Y-145513001D01*
X148001073Y-145730708D01*
X148215228Y-145938069D01*
X148414277Y-146119479D01*
X148583073Y-146259334D01*
X148644353Y-146304024D01*
X148774615Y-146389619D01*
X148848660Y-146421186D01*
X148892623Y-146404202D01*
X148922006Y-146362178D01*
X149070118Y-146142294D01*
X149266034Y-145889561D01*
X149393152Y-145741230D01*
X150336372Y-145741230D01*
X150382231Y-145770576D01*
X150479950Y-145837488D01*
X150512622Y-145860271D01*
X150621641Y-145933000D01*
X150690364Y-145972199D01*
X150697838Y-145974400D01*
X150747291Y-145999074D01*
X150866417Y-146066472D01*
X151038005Y-146166652D01*
X151244841Y-146289676D01*
X151271395Y-146305612D01*
X151822780Y-146636824D01*
X151914023Y-146419912D01*
X151985024Y-146252235D01*
X152050707Y-146098868D01*
X152066124Y-146063300D01*
X152126981Y-145923600D01*
X156321094Y-145923600D01*
X156367577Y-146045860D01*
X156400953Y-146175300D01*
X156425974Y-146344570D01*
X156429820Y-146388760D01*
X156450343Y-146532502D01*
X156483068Y-146630281D01*
X156496380Y-146646862D01*
X156579195Y-146667420D01*
X156740283Y-146676607D01*
X156957109Y-146675703D01*
X157207137Y-146665992D01*
X157467830Y-146648754D01*
X157716654Y-146625270D01*
X157931072Y-146596822D01*
X158088549Y-146564692D01*
X158121548Y-146554446D01*
X158382456Y-146416566D01*
X158645561Y-146194044D01*
X158800713Y-146047702D01*
X158917095Y-145964438D01*
X159020285Y-145928705D01*
X159090493Y-145923600D01*
X159264980Y-145923600D01*
X159264980Y-145263200D01*
X159955761Y-145263200D01*
X159956735Y-144552000D01*
X159955143Y-144295941D01*
X159950107Y-144080190D01*
X159942339Y-143923070D01*
X159932553Y-143842906D01*
X159928844Y-143836428D01*
X159866376Y-143832813D01*
X159733706Y-143827889D01*
X159595180Y-143823728D01*
X159290380Y-143815400D01*
X159289388Y-143231200D01*
X159683584Y-143231200D01*
X159869881Y-143226673D01*
X160009901Y-143214673D01*
X160078881Y-143197567D01*
X160082101Y-143193100D01*
X160084052Y-143131003D01*
X160086429Y-142986806D01*
X160088971Y-142780006D01*
X160091416Y-142530099D01*
X160092139Y-142443800D01*
X160097855Y-141732600D01*
X159744917Y-141707200D01*
X159391980Y-141681800D01*
X159396547Y-141504000D01*
X159400382Y-141390537D01*
X159407838Y-141198832D01*
X159417972Y-140952141D01*
X159429841Y-140673717D01*
X159434935Y-140557045D01*
X159446663Y-140246614D01*
X159449963Y-140024981D01*
X159444358Y-139879655D01*
X159429375Y-139798146D01*
X159404967Y-139768092D01*
X159342276Y-139764059D01*
X159188600Y-139760488D01*
X158954554Y-139757450D01*
X158650751Y-139755017D01*
X158287806Y-139753262D01*
X157876334Y-139752255D01*
X157426949Y-139752069D01*
X157093280Y-139752469D01*
X156626389Y-139752896D01*
X156192300Y-139752441D01*
X155801236Y-139751177D01*
X155463422Y-139749178D01*
X155189082Y-139746516D01*
X154988440Y-139743263D01*
X154871719Y-139739493D01*
X154845380Y-139736460D01*
X154868562Y-139683542D01*
X154925119Y-139581360D01*
X154932532Y-139568738D01*
X155019685Y-139421200D01*
X159874580Y-139421200D01*
X159874580Y-138690035D01*
X159872001Y-138379994D01*
X159863661Y-138160757D01*
X159848657Y-138021642D01*
X159826085Y-137951967D01*
X159811080Y-137939641D01*
X159747519Y-137935596D01*
X159593883Y-137932387D01*
X159361694Y-137930065D01*
X159062471Y-137928679D01*
X158707737Y-137928279D01*
X158309014Y-137928915D01*
X157877822Y-137930639D01*
X157817180Y-137930961D01*
X157380330Y-137932794D01*
X156972549Y-137933444D01*
X156605691Y-137932972D01*
X156291609Y-137931438D01*
X156042156Y-137928904D01*
X155869185Y-137925431D01*
X155784550Y-137921078D01*
X155780924Y-137920506D01*
X155675069Y-137899503D01*
X155790935Y-137555451D01*
X155843233Y-137382286D01*
X155872473Y-137248387D01*
X155872919Y-137180624D01*
X155871391Y-137178724D01*
X155803774Y-137150870D01*
X155660572Y-137111269D01*
X155466245Y-137065879D01*
X155245252Y-137020655D01*
X155150180Y-137003109D01*
X155033951Y-136979180D01*
X154860422Y-136939882D01*
X154700851Y-136901865D01*
X154469987Y-136855849D01*
X154322299Y-136852793D01*
X154248510Y-136893532D01*
X154235780Y-136943721D01*
X154219159Y-137034899D01*
X154174970Y-137194988D01*
X154111725Y-137397921D01*
X154037932Y-137617631D01*
X153962104Y-137828051D01*
X153892751Y-138003113D01*
X153881168Y-138029863D01*
X153667587Y-138485061D01*
X153458192Y-138865917D01*
X153237179Y-139197705D01*
X152988748Y-139505698D01*
X152889932Y-139615213D01*
X152614374Y-139912848D01*
X152828177Y-140031279D01*
X153076501Y-140178173D01*
X153341544Y-140350223D01*
X153590759Y-140525228D01*
X153791601Y-140680987D01*
X153833751Y-140717251D01*
X153945183Y-140826695D01*
X153994348Y-140920680D01*
X154000335Y-141044599D01*
X153995835Y-141102643D01*
X153979044Y-141265909D01*
X153961677Y-141400280D01*
X153957138Y-141427800D01*
X153939135Y-141560316D01*
X153934754Y-141618300D01*
X153922252Y-141659073D01*
X153876843Y-141685198D01*
X153780420Y-141699821D01*
X153614870Y-141706088D01*
X153422980Y-141707200D01*
X152914980Y-141707200D01*
X152914980Y-142291400D01*
X152913990Y-142542211D01*
X152908956Y-142708655D01*
X152896778Y-142807963D01*
X152874355Y-142857363D01*
X152838588Y-142874085D01*
X152809879Y-142875600D01*
X152725834Y-142847232D01*
X152583210Y-142770747D01*
X152404646Y-142659069D01*
X152275515Y-142570524D01*
X152080586Y-142430294D01*
X151952059Y-142346310D01*
X151869233Y-142322523D01*
X151811404Y-142362880D01*
X151757869Y-142471330D01*
X151687925Y-142651824D01*
X151674840Y-142685100D01*
X151626982Y-142793772D01*
X151573430Y-142850480D01*
X151482475Y-142872123D01*
X151322408Y-142875599D01*
X151317372Y-142875600D01*
X151035380Y-142875600D01*
X151035380Y-144261742D01*
X150679272Y-144999030D01*
X150560240Y-145247364D01*
X150459753Y-145460636D01*
X150384902Y-145623499D01*
X150342778Y-145720606D01*
X150336372Y-145741230D01*
X149393152Y-145741230D01*
X149481347Y-145638318D01*
X149687648Y-145422904D01*
X149739361Y-145374203D01*
X149874428Y-145247033D01*
X149971266Y-145148638D01*
X150013144Y-145096248D01*
X150013058Y-145092352D01*
X149961931Y-145061532D01*
X149849548Y-144996660D01*
X149739980Y-144934313D01*
X149103426Y-144521256D01*
X148523953Y-144031726D01*
X148510240Y-144018600D01*
X148354685Y-143865732D01*
X148231301Y-143737738D01*
X148155789Y-143651304D01*
X148139793Y-143624900D01*
X148187706Y-143611843D01*
X148319941Y-143600714D01*
X148519223Y-143592349D01*
X148768281Y-143587584D01*
X148927180Y-143586800D01*
X149714580Y-143586800D01*
X149714580Y-142084922D01*
X148464969Y-142086561D01*
X148069199Y-142086299D01*
X147763496Y-142083901D01*
X147536336Y-142078699D01*
X147376197Y-142070023D01*
X147271555Y-142057205D01*
X147210889Y-142039576D01*
X147182676Y-142016468D01*
X147180302Y-142012000D01*
X147161663Y-141922081D01*
X147149746Y-141768402D01*
X147147213Y-141631000D01*
X147149180Y-141326200D01*
X147918034Y-141344204D01*
X148260585Y-141349046D01*
X148522135Y-141344520D01*
X148722954Y-141329426D01*
X148883313Y-141302566D01*
X148960845Y-141282566D01*
X149234430Y-141159431D01*
X149452708Y-140962651D01*
X149542795Y-140813266D01*
X150127171Y-140813266D01*
X150598845Y-141046986D01*
X150858306Y-141184326D01*
X151123572Y-141339827D01*
X151373347Y-141499537D01*
X151586335Y-141649506D01*
X151741241Y-141775785D01*
X151793570Y-141829609D01*
X151864194Y-141895743D01*
X151897446Y-141910400D01*
X151938762Y-141871618D01*
X152028513Y-141764653D01*
X152155493Y-141603573D01*
X152308495Y-141402446D01*
X152399226Y-141280467D01*
X152559845Y-141059791D01*
X152696439Y-140866280D01*
X152798543Y-140715226D01*
X152855694Y-140621922D01*
X152864180Y-140601011D01*
X152823699Y-140549758D01*
X152715637Y-140460779D01*
X152560059Y-140347735D01*
X152377031Y-140224283D01*
X152186622Y-140104082D01*
X152008896Y-140000790D01*
X151898980Y-139944047D01*
X151606961Y-139806588D01*
X151392136Y-139709945D01*
X151240684Y-139649775D01*
X151138789Y-139621732D01*
X151072631Y-139621470D01*
X151028393Y-139644644D01*
X151009587Y-139664368D01*
X150952304Y-139736493D01*
X150847739Y-139871112D01*
X150710098Y-140049838D01*
X150553585Y-140254283D01*
X150532179Y-140282333D01*
X150127171Y-140813266D01*
X149542795Y-140813266D01*
X149618578Y-140687603D01*
X149734939Y-140329663D01*
X149798150Y-139947291D01*
X149827143Y-139685982D01*
X149605761Y-139648918D01*
X149461921Y-139613766D01*
X149286280Y-139555220D01*
X149102001Y-139483260D01*
X148932245Y-139407869D01*
X148800175Y-139339026D01*
X148728952Y-139286714D01*
X148723914Y-139268905D01*
X148781916Y-139251790D01*
X148916904Y-139238406D01*
X149104278Y-139230804D01*
X149192870Y-139229828D01*
X149401203Y-139228731D01*
X149573638Y-139226786D01*
X149682637Y-139224344D01*
X149701880Y-139223343D01*
X149724955Y-139196773D01*
X149742151Y-139114712D01*
X149754114Y-138967016D01*
X149761493Y-138743540D01*
X149764932Y-138434138D01*
X149765380Y-138227400D01*
X149765380Y-138094792D01*
X150580734Y-138094792D01*
X150947757Y-138280590D01*
X151193660Y-138413433D01*
X151458000Y-138570106D01*
X151718671Y-138736087D01*
X151953568Y-138896852D01*
X152140585Y-139037878D01*
X152249748Y-139135981D01*
X152371916Y-139266698D01*
X152604198Y-138950249D01*
X152718051Y-138796498D01*
X152808694Y-138676598D01*
X152859465Y-138612532D01*
X152863319Y-138608400D01*
X152907468Y-138554595D01*
X152991380Y-138444413D01*
X153095704Y-138304108D01*
X153201091Y-138159934D01*
X153288189Y-138038147D01*
X153337650Y-137965002D01*
X153338272Y-137963965D01*
X153320130Y-137900790D01*
X153223160Y-137803221D01*
X153060691Y-137679638D01*
X152846054Y-137538420D01*
X152592578Y-137387945D01*
X152313592Y-137236592D01*
X152022428Y-137092739D01*
X151780468Y-136984790D01*
X151640112Y-136926601D01*
X151544764Y-136889019D01*
X151520879Y-136881200D01*
X151486865Y-136919352D01*
X151402489Y-137024474D01*
X151278761Y-137182566D01*
X151126687Y-137379628D01*
X151043768Y-137487996D01*
X150580734Y-138094792D01*
X149765380Y-138094792D01*
X149765380Y-137236800D01*
X143008980Y-137236800D01*
X143008980Y-137800480D01*
X142790426Y-137650111D01*
X142643298Y-137558021D01*
X142442303Y-137444340D01*
X142210662Y-137320841D01*
X141971594Y-137199296D01*
X141748320Y-137091478D01*
X141564061Y-137009160D01*
X141442037Y-136964115D01*
X141432818Y-136961804D01*
X141377947Y-136958348D01*
X141319618Y-136981491D01*
X141246201Y-137042532D01*
X141146064Y-137152772D01*
X141007575Y-137323510D01*
X140843796Y-137534003D01*
X140380413Y-138134825D01*
X140716796Y-138303569D01*
X141094929Y-138509059D01*
X141474006Y-138743237D01*
X141818457Y-138983180D01*
X142025367Y-139146906D01*
X142286354Y-139368495D01*
X142634967Y-138911004D01*
X142983580Y-138453514D01*
X143008980Y-139001233D01*
X143034380Y-139548953D01*
X143745580Y-139548576D01*
X144456780Y-139548200D01*
X144482180Y-139091000D01*
X144495838Y-138873886D01*
X144511579Y-138738063D01*
X144535635Y-138663305D01*
X144574238Y-138629387D01*
X144628289Y-138616820D01*
X144699419Y-138612863D01*
X144730017Y-138643731D01*
X144729276Y-138733674D01*
X144714944Y-138845420D01*
X144635422Y-139240994D01*
X144513317Y-139555536D01*
X144339848Y-139803827D01*
X144106235Y-140000647D01*
X143985805Y-140072754D01*
X143861270Y-140137261D01*
X143739223Y-140190564D01*
X143595975Y-140240719D01*
X143407832Y-140295781D01*
X143151105Y-140363805D01*
X143063848Y-140386235D01*
X142686916Y-140482749D01*
X142396189Y-140312358D01*
X142117850Y-140158526D01*
X141827093Y-140018761D01*
X141491813Y-139878369D01*
X141222779Y-139775335D01*
X140833579Y-139630273D01*
X140479973Y-140173436D01*
X140291063Y-140466344D01*
X140155204Y-140683817D01*
X140067678Y-140833999D01*
X140023768Y-140925032D01*
X140018754Y-140965059D01*
X139827496Y-140965059D01*
X139824674Y-140822973D01*
X139808965Y-140607483D01*
X139799173Y-140541226D01*
X139783365Y-140414637D01*
X139766570Y-140208939D01*
X139750238Y-139946593D01*
X139735824Y-139650061D01*
X139727742Y-139436837D01*
X139718051Y-139101567D01*
X139715149Y-138848643D01*
X139720022Y-138658977D01*
X139733655Y-138513479D01*
X139757033Y-138393063D01*
X139786871Y-138291411D01*
X139933568Y-137932943D01*
X140125044Y-137592377D01*
X140346167Y-137290420D01*
X140581802Y-137047782D01*
X140813168Y-136887021D01*
X140982398Y-136826977D01*
X141216137Y-136779400D01*
X141409889Y-136756883D01*
X141628352Y-136732486D01*
X141906849Y-136691511D01*
X142206386Y-136640099D01*
X142438076Y-136594935D01*
X142804563Y-136527196D01*
X143084685Y-136494019D01*
X143274077Y-136495916D01*
X143276276Y-136496225D01*
X143467469Y-136517323D01*
X143734561Y-136538411D01*
X144051859Y-136558191D01*
X144393670Y-136575361D01*
X144734301Y-136588623D01*
X145048059Y-136596676D01*
X145294980Y-136598340D01*
X145512779Y-136596489D01*
X145802642Y-136593613D01*
X146135043Y-136590025D01*
X146480454Y-136586039D01*
X146691980Y-136583460D01*
X147166043Y-136583499D01*
X147547453Y-136596490D01*
X147832929Y-136622284D01*
X147936580Y-136639507D01*
X148113873Y-136671872D01*
X148249545Y-136680519D01*
X148384340Y-136662533D01*
X148558998Y-136614997D01*
X148643167Y-136588933D01*
X148976940Y-136514935D01*
X149379403Y-136475456D01*
X149823491Y-136471044D01*
X150282144Y-136502242D01*
X150282144Y-136502242D01*
G37*
X150282144Y-136502242D02*
X150618073Y-136549107D01*
X150962422Y-136600487D01*
X151298582Y-136635477D01*
X151604577Y-136652911D01*
X151858432Y-136651622D01*
X152038172Y-136630443D01*
X152057212Y-136625527D01*
X152247637Y-136584844D01*
X152455824Y-136572572D01*
X152714235Y-136587869D01*
X152864180Y-136604576D01*
X153040723Y-136619726D01*
X153294763Y-136631004D01*
X153630903Y-136638472D01*
X154053744Y-136642191D01*
X154567889Y-136642222D01*
X155177941Y-136638626D01*
X155327980Y-136637331D01*
X155586078Y-136636212D01*
X155864149Y-136636883D01*
X156089980Y-136639050D01*
X156315899Y-136635913D01*
X156589675Y-136622693D01*
X156858369Y-136602082D01*
X156902780Y-136597727D01*
X157551067Y-136566667D01*
X158150839Y-136609656D01*
X158691918Y-136725778D01*
X158831692Y-136771335D01*
X159014046Y-136837216D01*
X159154710Y-136896820D01*
X159270816Y-136964463D01*
X159379497Y-137054460D01*
X159497886Y-137181126D01*
X159643114Y-137358777D01*
X159832315Y-137601726D01*
X159844749Y-137617800D01*
X160052227Y-137898908D01*
X160194883Y-138127344D01*
X160280641Y-138321364D01*
X160317423Y-138499224D01*
X160313152Y-138679179D01*
X160311420Y-138693098D01*
X160273617Y-139054732D01*
X160252285Y-139417758D01*
X160248028Y-139754286D01*
X160261451Y-140036430D01*
X160279294Y-140173904D01*
X160300998Y-140336713D01*
X160322427Y-140573301D01*
X160341518Y-140855864D01*
X160356207Y-141156596D01*
X160359868Y-141259204D01*
X160368179Y-141573836D01*
X160368950Y-141809805D01*
X160360627Y-141989870D01*
X160341656Y-142136790D01*
X160310482Y-142273327D01*
X160284534Y-142362131D01*
X160229913Y-142575446D01*
X160203444Y-142789249D01*
X160200797Y-143046134D01*
X160204497Y-143149531D01*
X160221141Y-143508515D01*
X160238700Y-143847759D01*
X160256260Y-144152844D01*
X160272905Y-144409349D01*
X160287718Y-144602855D01*
X160299785Y-144718943D01*
X160305884Y-144746237D01*
X160294067Y-144796706D01*
X160248013Y-144916297D01*
X160176713Y-145082192D01*
X160151332Y-145138481D01*
X160056891Y-145361305D01*
X159970583Y-145591671D01*
X159910353Y-145781519D01*
X159908248Y-145789470D01*
X159786110Y-146113227D01*
X159609045Y-146380900D01*
X159390053Y-146574952D01*
X159283114Y-146632780D01*
X158831180Y-146802345D01*
X158381533Y-146914190D01*
X157953971Y-146965536D01*
X157568290Y-146953603D01*
X157334580Y-146906330D01*
X157145053Y-146870796D01*
X156878407Y-146848143D01*
X156558258Y-146838046D01*
X156208224Y-146840180D01*
X155851923Y-146854220D01*
X155512973Y-146879839D01*
X155214990Y-146916713D01*
X155099380Y-146937126D01*
X154876168Y-146976690D01*
X154661416Y-147002218D01*
X154427465Y-147015282D01*
X154146657Y-147017449D01*
X153803980Y-147010644D01*
X153383420Y-146999214D01*
X153043113Y-146990851D01*
X152761757Y-146985527D01*
X152518051Y-146983216D01*
X152290695Y-146983892D01*
X152058386Y-146987528D01*
X151799826Y-146994098D01*
X151493711Y-147003575D01*
X151370037Y-147007618D01*
X150999213Y-147017864D01*
X150713197Y-147020659D01*
X150495430Y-147015445D01*
X150329354Y-147001666D01*
X150198412Y-146978762D01*
X150150837Y-146966549D01*
X150020204Y-146945511D01*
X149806229Y-146928993D01*
X149527065Y-146916933D01*
X149200864Y-146909267D01*
X148845783Y-146905933D01*
X148479972Y-146906867D01*
X148121588Y-146912007D01*
X147788782Y-146921288D01*
X147499709Y-146934648D01*
X147272522Y-146952024D01*
X147125376Y-146973352D01*
X147110491Y-146977122D01*
X146971713Y-147001976D01*
X146817834Y-146994342D01*
X146611764Y-146951855D01*
X146577091Y-146943106D01*
X146350087Y-146898382D01*
X146112562Y-146872299D01*
X145955380Y-146869575D01*
X145508087Y-146892586D01*
X145150341Y-146912034D01*
X144870187Y-146928787D01*
X144655669Y-146943712D01*
X144494830Y-146957677D01*
X144375716Y-146971550D01*
X144286369Y-146986198D01*
X144253580Y-146993074D01*
X144078530Y-147024287D01*
X143912181Y-147031112D01*
X143714548Y-147013193D01*
X143542380Y-146986778D01*
X143202543Y-146932553D01*
X142936684Y-146897668D01*
X142719361Y-146880525D01*
X142525132Y-146879527D01*
X142328555Y-146893075D01*
X142226933Y-146904152D01*
X142080451Y-146914810D01*
X141931166Y-146908512D01*
X141760673Y-146881446D01*
X141550563Y-146829800D01*
X141282429Y-146749758D01*
X140937864Y-146637509D01*
X140934697Y-146636453D01*
X140655264Y-146496285D01*
X140392348Y-146276910D01*
X140170341Y-146000413D01*
X140099011Y-145879804D01*
X140014064Y-145673334D01*
X139934319Y-145394559D01*
X139865001Y-145072772D01*
X139811337Y-144737267D01*
X139778552Y-144417338D01*
X139771874Y-144142281D01*
X139776030Y-144069400D01*
X139800281Y-143787112D01*
X139824991Y-143511371D01*
X139848078Y-143264310D01*
X139867460Y-143068063D01*
X139881057Y-142944764D01*
X139883532Y-142926400D01*
X139878599Y-142838196D01*
X139854198Y-142687990D01*
X139824862Y-142549347D01*
X139781171Y-142235398D01*
X139787310Y-141970816D01*
X139811184Y-141700782D01*
X139825535Y-141399527D01*
X139830114Y-141096956D01*
X139827496Y-140965059D01*
X140018754Y-140965059D01*
X140020364Y-140966689D01*
X140073636Y-140991174D01*
X140188652Y-141038164D01*
X140250919Y-141062663D01*
X140642902Y-141231665D01*
X141036144Y-141430723D01*
X141400575Y-141643137D01*
X141706122Y-141852213D01*
X141785192Y-141914566D01*
X141958405Y-142057092D01*
X142237433Y-141615446D01*
X142378701Y-141392001D01*
X142521651Y-141166155D01*
X142643598Y-140973735D01*
X142686809Y-140905661D01*
X142857158Y-140637523D01*
X143008173Y-140809519D01*
X143111092Y-140944731D01*
X143223034Y-141119380D01*
X143328775Y-141305881D01*
X143413087Y-141476647D01*
X143460745Y-141604095D01*
X143466180Y-141639292D01*
X143493437Y-141687942D01*
X143588861Y-141691828D01*
X143631280Y-141685559D01*
X144042998Y-141584417D01*
X144477743Y-141423028D01*
X144901423Y-141217259D01*
X145279949Y-140982981D01*
X145487075Y-140821673D01*
X145658978Y-140630205D01*
X145829088Y-140367177D01*
X145982593Y-140061793D01*
X146104681Y-139743255D01*
X146176897Y-139461624D01*
X146195813Y-139344559D01*
X146220525Y-139175706D01*
X146246219Y-138990140D01*
X146268082Y-138822934D01*
X146281298Y-138709160D01*
X146282970Y-138688833D01*
X146325777Y-138631695D01*
X146347243Y-138621712D01*
X146371801Y-138639378D01*
X146389623Y-138718021D01*
X146401545Y-138867905D01*
X146408400Y-139099292D01*
X146410983Y-139404878D01*
X146420297Y-139866144D01*
X146446806Y-140238117D01*
X146492316Y-140531936D01*
X146558632Y-140758735D01*
X146647558Y-140929651D01*
X146661233Y-140948833D01*
X146732232Y-141050115D01*
X146767366Y-141110531D01*
X146768180Y-141114180D01*
X146720760Y-141122558D01*
X146592018Y-141129635D01*
X146402230Y-141134615D01*
X146196680Y-141136643D01*
X145961600Y-141137779D01*
X145761729Y-141139503D01*
X145620358Y-141141568D01*
X145563586Y-141143406D01*
X145529240Y-141189830D01*
X145504817Y-141326131D01*
X145489484Y-141557478D01*
X145487386Y-141617196D01*
X145472780Y-142085992D01*
X144266280Y-142085770D01*
X143059780Y-142085549D01*
X143059780Y-142556277D01*
X143058535Y-142775096D01*
X143052431Y-142908231D01*
X143037910Y-142971588D01*
X143011415Y-142981074D01*
X142970880Y-142953827D01*
X142894446Y-142893299D01*
X142758553Y-142787884D01*
X142584644Y-142654157D01*
X142450180Y-142551364D01*
X142018380Y-142222080D01*
X141922828Y-142434540D01*
X141791461Y-142718571D01*
X141628483Y-143058495D01*
X141444684Y-143432911D01*
X141250855Y-143820418D01*
X141057785Y-144199619D01*
X140876267Y-144549111D01*
X140717090Y-144847496D01*
X140600366Y-145057241D01*
X140476200Y-145275612D01*
X140372895Y-145462243D01*
X140299933Y-145599631D01*
X140266794Y-145670274D01*
X140265780Y-145674857D01*
X140305509Y-145716127D01*
X140412892Y-145799309D01*
X140570224Y-145911210D01*
X140710280Y-146006001D01*
X140899677Y-146132330D01*
X141059379Y-146240050D01*
X141169084Y-146315396D01*
X141205580Y-146341765D01*
X141331584Y-146435199D01*
X141471005Y-146527572D01*
X141592467Y-146599190D01*
X141664591Y-146630357D01*
X141665507Y-146630449D01*
X141705043Y-146588579D01*
X141778213Y-146470370D01*
X141876082Y-146291735D01*
X141989716Y-146068585D01*
X142046507Y-145951855D01*
X142164760Y-145712462D01*
X142271698Y-145509334D01*
X142358303Y-145358608D01*
X142415560Y-145276418D01*
X142429747Y-145266055D01*
X142496910Y-145301503D01*
X142609642Y-145400188D01*
X142751809Y-145544631D01*
X142907275Y-145717353D01*
X143059905Y-145900874D01*
X143193565Y-146077715D01*
X143236007Y-146139500D01*
X143339272Y-146285476D01*
X143425633Y-146390205D01*
X143476804Y-146431568D01*
X143477524Y-146431600D01*
X143556002Y-146404348D01*
X143696395Y-146331113D01*
X143877736Y-146224675D01*
X144079058Y-146097814D01*
X144279395Y-145963310D01*
X144456780Y-145834707D01*
X144631690Y-145690858D01*
X144840490Y-145503832D01*
X145048346Y-145305282D01*
X145129880Y-145223092D01*
X145498180Y-144844128D01*
X145498180Y-146634800D01*
X147155529Y-146634800D01*
X147151557Y-145720400D01*
X147152187Y-145354008D01*
X147158000Y-145084259D01*
X147169455Y-144906305D01*
X147187009Y-144815299D01*
X147211123Y-144806392D01*
X147233846Y-144850828D01*
X147296329Y-144953863D01*
X147419440Y-145108974D01*
X147588032Y-145300555D01*
X147786959Y-145513001D01*
X148001073Y-145730708D01*
X148215228Y-145938069D01*
X148414277Y-146119479D01*
X148583073Y-146259334D01*
X148644353Y-146304024D01*
X148774615Y-146389619D01*
X148848660Y-146421186D01*
X148892623Y-146404202D01*
X148922006Y-146362178D01*
X149070118Y-146142294D01*
X149266034Y-145889561D01*
X149393152Y-145741230D01*
X150336372Y-145741230D01*
X150382231Y-145770576D01*
X150479950Y-145837488D01*
X150512622Y-145860271D01*
X150621641Y-145933000D01*
X150690364Y-145972199D01*
X150697838Y-145974400D01*
X150747291Y-145999074D01*
X150866417Y-146066472D01*
X151038005Y-146166652D01*
X151244841Y-146289676D01*
X151271395Y-146305612D01*
X151822780Y-146636824D01*
X151914023Y-146419912D01*
X151985024Y-146252235D01*
X152050707Y-146098868D01*
X152066124Y-146063300D01*
X152126981Y-145923600D01*
X156321094Y-145923600D01*
X156367577Y-146045860D01*
X156400953Y-146175300D01*
X156425974Y-146344570D01*
X156429820Y-146388760D01*
X156450343Y-146532502D01*
X156483068Y-146630281D01*
X156496380Y-146646862D01*
X156579195Y-146667420D01*
X156740283Y-146676607D01*
X156957109Y-146675703D01*
X157207137Y-146665992D01*
X157467830Y-146648754D01*
X157716654Y-146625270D01*
X157931072Y-146596822D01*
X158088549Y-146564692D01*
X158121548Y-146554446D01*
X158382456Y-146416566D01*
X158645561Y-146194044D01*
X158800713Y-146047702D01*
X158917095Y-145964438D01*
X159020285Y-145928705D01*
X159090493Y-145923600D01*
X159264980Y-145923600D01*
X159264980Y-145263200D01*
X159955761Y-145263200D01*
X159956735Y-144552000D01*
X159955143Y-144295941D01*
X159950107Y-144080190D01*
X159942339Y-143923070D01*
X159932553Y-143842906D01*
X159928844Y-143836428D01*
X159866376Y-143832813D01*
X159733706Y-143827889D01*
X159595180Y-143823728D01*
X159290380Y-143815400D01*
X159289388Y-143231200D01*
X159683584Y-143231200D01*
X159869881Y-143226673D01*
X160009901Y-143214673D01*
X160078881Y-143197567D01*
X160082101Y-143193100D01*
X160084052Y-143131003D01*
X160086429Y-142986806D01*
X160088971Y-142780006D01*
X160091416Y-142530099D01*
X160092139Y-142443800D01*
X160097855Y-141732600D01*
X159744917Y-141707200D01*
X159391980Y-141681800D01*
X159396547Y-141504000D01*
X159400382Y-141390537D01*
X159407838Y-141198832D01*
X159417972Y-140952141D01*
X159429841Y-140673717D01*
X159434935Y-140557045D01*
X159446663Y-140246614D01*
X159449963Y-140024981D01*
X159444358Y-139879655D01*
X159429375Y-139798146D01*
X159404967Y-139768092D01*
X159342276Y-139764059D01*
X159188600Y-139760488D01*
X158954554Y-139757450D01*
X158650751Y-139755017D01*
X158287806Y-139753262D01*
X157876334Y-139752255D01*
X157426949Y-139752069D01*
X157093280Y-139752469D01*
X156626389Y-139752896D01*
X156192300Y-139752441D01*
X155801236Y-139751177D01*
X155463422Y-139749178D01*
X155189082Y-139746516D01*
X154988440Y-139743263D01*
X154871719Y-139739493D01*
X154845380Y-139736460D01*
X154868562Y-139683542D01*
X154925119Y-139581360D01*
X154932532Y-139568738D01*
X155019685Y-139421200D01*
X159874580Y-139421200D01*
X159874580Y-138690035D01*
X159872001Y-138379994D01*
X159863661Y-138160757D01*
X159848657Y-138021642D01*
X159826085Y-137951967D01*
X159811080Y-137939641D01*
X159747519Y-137935596D01*
X159593883Y-137932387D01*
X159361694Y-137930065D01*
X159062471Y-137928679D01*
X158707737Y-137928279D01*
X158309014Y-137928915D01*
X157877822Y-137930639D01*
X157817180Y-137930961D01*
X157380330Y-137932794D01*
X156972549Y-137933444D01*
X156605691Y-137932972D01*
X156291609Y-137931438D01*
X156042156Y-137928904D01*
X155869185Y-137925431D01*
X155784550Y-137921078D01*
X155780924Y-137920506D01*
X155675069Y-137899503D01*
X155790935Y-137555451D01*
X155843233Y-137382286D01*
X155872473Y-137248387D01*
X155872919Y-137180624D01*
X155871391Y-137178724D01*
X155803774Y-137150870D01*
X155660572Y-137111269D01*
X155466245Y-137065879D01*
X155245252Y-137020655D01*
X155150180Y-137003109D01*
X155033951Y-136979180D01*
X154860422Y-136939882D01*
X154700851Y-136901865D01*
X154469987Y-136855849D01*
X154322299Y-136852793D01*
X154248510Y-136893532D01*
X154235780Y-136943721D01*
X154219159Y-137034899D01*
X154174970Y-137194988D01*
X154111725Y-137397921D01*
X154037932Y-137617631D01*
X153962104Y-137828051D01*
X153892751Y-138003113D01*
X153881168Y-138029863D01*
X153667587Y-138485061D01*
X153458192Y-138865917D01*
X153237179Y-139197705D01*
X152988748Y-139505698D01*
X152889932Y-139615213D01*
X152614374Y-139912848D01*
X152828177Y-140031279D01*
X153076501Y-140178173D01*
X153341544Y-140350223D01*
X153590759Y-140525228D01*
X153791601Y-140680987D01*
X153833751Y-140717251D01*
X153945183Y-140826695D01*
X153994348Y-140920680D01*
X154000335Y-141044599D01*
X153995835Y-141102643D01*
X153979044Y-141265909D01*
X153961677Y-141400280D01*
X153957138Y-141427800D01*
X153939135Y-141560316D01*
X153934754Y-141618300D01*
X153922252Y-141659073D01*
X153876843Y-141685198D01*
X153780420Y-141699821D01*
X153614870Y-141706088D01*
X153422980Y-141707200D01*
X152914980Y-141707200D01*
X152914980Y-142291400D01*
X152913990Y-142542211D01*
X152908956Y-142708655D01*
X152896778Y-142807963D01*
X152874355Y-142857363D01*
X152838588Y-142874085D01*
X152809879Y-142875600D01*
X152725834Y-142847232D01*
X152583210Y-142770747D01*
X152404646Y-142659069D01*
X152275515Y-142570524D01*
X152080586Y-142430294D01*
X151952059Y-142346310D01*
X151869233Y-142322523D01*
X151811404Y-142362880D01*
X151757869Y-142471330D01*
X151687925Y-142651824D01*
X151674840Y-142685100D01*
X151626982Y-142793772D01*
X151573430Y-142850480D01*
X151482475Y-142872123D01*
X151322408Y-142875599D01*
X151317372Y-142875600D01*
X151035380Y-142875600D01*
X151035380Y-144261742D01*
X150679272Y-144999030D01*
X150560240Y-145247364D01*
X150459753Y-145460636D01*
X150384902Y-145623499D01*
X150342778Y-145720606D01*
X150336372Y-145741230D01*
X149393152Y-145741230D01*
X149481347Y-145638318D01*
X149687648Y-145422904D01*
X149739361Y-145374203D01*
X149874428Y-145247033D01*
X149971266Y-145148638D01*
X150013144Y-145096248D01*
X150013058Y-145092352D01*
X149961931Y-145061532D01*
X149849548Y-144996660D01*
X149739980Y-144934313D01*
X149103426Y-144521256D01*
X148523953Y-144031726D01*
X148510240Y-144018600D01*
X148354685Y-143865732D01*
X148231301Y-143737738D01*
X148155789Y-143651304D01*
X148139793Y-143624900D01*
X148187706Y-143611843D01*
X148319941Y-143600714D01*
X148519223Y-143592349D01*
X148768281Y-143587584D01*
X148927180Y-143586800D01*
X149714580Y-143586800D01*
X149714580Y-142084922D01*
X148464969Y-142086561D01*
X148069199Y-142086299D01*
X147763496Y-142083901D01*
X147536336Y-142078699D01*
X147376197Y-142070023D01*
X147271555Y-142057205D01*
X147210889Y-142039576D01*
X147182676Y-142016468D01*
X147180302Y-142012000D01*
X147161663Y-141922081D01*
X147149746Y-141768402D01*
X147147213Y-141631000D01*
X147149180Y-141326200D01*
X147918034Y-141344204D01*
X148260585Y-141349046D01*
X148522135Y-141344520D01*
X148722954Y-141329426D01*
X148883313Y-141302566D01*
X148960845Y-141282566D01*
X149234430Y-141159431D01*
X149452708Y-140962651D01*
X149542795Y-140813266D01*
X150127171Y-140813266D01*
X150598845Y-141046986D01*
X150858306Y-141184326D01*
X151123572Y-141339827D01*
X151373347Y-141499537D01*
X151586335Y-141649506D01*
X151741241Y-141775785D01*
X151793570Y-141829609D01*
X151864194Y-141895743D01*
X151897446Y-141910400D01*
X151938762Y-141871618D01*
X152028513Y-141764653D01*
X152155493Y-141603573D01*
X152308495Y-141402446D01*
X152399226Y-141280467D01*
X152559845Y-141059791D01*
X152696439Y-140866280D01*
X152798543Y-140715226D01*
X152855694Y-140621922D01*
X152864180Y-140601011D01*
X152823699Y-140549758D01*
X152715637Y-140460779D01*
X152560059Y-140347735D01*
X152377031Y-140224283D01*
X152186622Y-140104082D01*
X152008896Y-140000790D01*
X151898980Y-139944047D01*
X151606961Y-139806588D01*
X151392136Y-139709945D01*
X151240684Y-139649775D01*
X151138789Y-139621732D01*
X151072631Y-139621470D01*
X151028393Y-139644644D01*
X151009587Y-139664368D01*
X150952304Y-139736493D01*
X150847739Y-139871112D01*
X150710098Y-140049838D01*
X150553585Y-140254283D01*
X150532179Y-140282333D01*
X150127171Y-140813266D01*
X149542795Y-140813266D01*
X149618578Y-140687603D01*
X149734939Y-140329663D01*
X149798150Y-139947291D01*
X149827143Y-139685982D01*
X149605761Y-139648918D01*
X149461921Y-139613766D01*
X149286280Y-139555220D01*
X149102001Y-139483260D01*
X148932245Y-139407869D01*
X148800175Y-139339026D01*
X148728952Y-139286714D01*
X148723914Y-139268905D01*
X148781916Y-139251790D01*
X148916904Y-139238406D01*
X149104278Y-139230804D01*
X149192870Y-139229828D01*
X149401203Y-139228731D01*
X149573638Y-139226786D01*
X149682637Y-139224344D01*
X149701880Y-139223343D01*
X149724955Y-139196773D01*
X149742151Y-139114712D01*
X149754114Y-138967016D01*
X149761493Y-138743540D01*
X149764932Y-138434138D01*
X149765380Y-138227400D01*
X149765380Y-138094792D01*
X150580734Y-138094792D01*
X150947757Y-138280590D01*
X151193660Y-138413433D01*
X151458000Y-138570106D01*
X151718671Y-138736087D01*
X151953568Y-138896852D01*
X152140585Y-139037878D01*
X152249748Y-139135981D01*
X152371916Y-139266698D01*
X152604198Y-138950249D01*
X152718051Y-138796498D01*
X152808694Y-138676598D01*
X152859465Y-138612532D01*
X152863319Y-138608400D01*
X152907468Y-138554595D01*
X152991380Y-138444413D01*
X153095704Y-138304108D01*
X153201091Y-138159934D01*
X153288189Y-138038147D01*
X153337650Y-137965002D01*
X153338272Y-137963965D01*
X153320130Y-137900790D01*
X153223160Y-137803221D01*
X153060691Y-137679638D01*
X152846054Y-137538420D01*
X152592578Y-137387945D01*
X152313592Y-137236592D01*
X152022428Y-137092739D01*
X151780468Y-136984790D01*
X151640112Y-136926601D01*
X151544764Y-136889019D01*
X151520879Y-136881200D01*
X151486865Y-136919352D01*
X151402489Y-137024474D01*
X151278761Y-137182566D01*
X151126687Y-137379628D01*
X151043768Y-137487996D01*
X150580734Y-138094792D01*
X149765380Y-138094792D01*
X149765380Y-137236800D01*
X143008980Y-137236800D01*
X143008980Y-137800480D01*
X142790426Y-137650111D01*
X142643298Y-137558021D01*
X142442303Y-137444340D01*
X142210662Y-137320841D01*
X141971594Y-137199296D01*
X141748320Y-137091478D01*
X141564061Y-137009160D01*
X141442037Y-136964115D01*
X141432818Y-136961804D01*
X141377947Y-136958348D01*
X141319618Y-136981491D01*
X141246201Y-137042532D01*
X141146064Y-137152772D01*
X141007575Y-137323510D01*
X140843796Y-137534003D01*
X140380413Y-138134825D01*
X140716796Y-138303569D01*
X141094929Y-138509059D01*
X141474006Y-138743237D01*
X141818457Y-138983180D01*
X142025367Y-139146906D01*
X142286354Y-139368495D01*
X142634967Y-138911004D01*
X142983580Y-138453514D01*
X143008980Y-139001233D01*
X143034380Y-139548953D01*
X143745580Y-139548576D01*
X144456780Y-139548200D01*
X144482180Y-139091000D01*
X144495838Y-138873886D01*
X144511579Y-138738063D01*
X144535635Y-138663305D01*
X144574238Y-138629387D01*
X144628289Y-138616820D01*
X144699419Y-138612863D01*
X144730017Y-138643731D01*
X144729276Y-138733674D01*
X144714944Y-138845420D01*
X144635422Y-139240994D01*
X144513317Y-139555536D01*
X144339848Y-139803827D01*
X144106235Y-140000647D01*
X143985805Y-140072754D01*
X143861270Y-140137261D01*
X143739223Y-140190564D01*
X143595975Y-140240719D01*
X143407832Y-140295781D01*
X143151105Y-140363805D01*
X143063848Y-140386235D01*
X142686916Y-140482749D01*
X142396189Y-140312358D01*
X142117850Y-140158526D01*
X141827093Y-140018761D01*
X141491813Y-139878369D01*
X141222779Y-139775335D01*
X140833579Y-139630273D01*
X140479973Y-140173436D01*
X140291063Y-140466344D01*
X140155204Y-140683817D01*
X140067678Y-140833999D01*
X140023768Y-140925032D01*
X140018754Y-140965059D01*
X139827496Y-140965059D01*
X139824674Y-140822973D01*
X139808965Y-140607483D01*
X139799173Y-140541226D01*
X139783365Y-140414637D01*
X139766570Y-140208939D01*
X139750238Y-139946593D01*
X139735824Y-139650061D01*
X139727742Y-139436837D01*
X139718051Y-139101567D01*
X139715149Y-138848643D01*
X139720022Y-138658977D01*
X139733655Y-138513479D01*
X139757033Y-138393063D01*
X139786871Y-138291411D01*
X139933568Y-137932943D01*
X140125044Y-137592377D01*
X140346167Y-137290420D01*
X140581802Y-137047782D01*
X140813168Y-136887021D01*
X140982398Y-136826977D01*
X141216137Y-136779400D01*
X141409889Y-136756883D01*
X141628352Y-136732486D01*
X141906849Y-136691511D01*
X142206386Y-136640099D01*
X142438076Y-136594935D01*
X142804563Y-136527196D01*
X143084685Y-136494019D01*
X143274077Y-136495916D01*
X143276276Y-136496225D01*
X143467469Y-136517323D01*
X143734561Y-136538411D01*
X144051859Y-136558191D01*
X144393670Y-136575361D01*
X144734301Y-136588623D01*
X145048059Y-136596676D01*
X145294980Y-136598340D01*
X145512779Y-136596489D01*
X145802642Y-136593613D01*
X146135043Y-136590025D01*
X146480454Y-136586039D01*
X146691980Y-136583460D01*
X147166043Y-136583499D01*
X147547453Y-136596490D01*
X147832929Y-136622284D01*
X147936580Y-136639507D01*
X148113873Y-136671872D01*
X148249545Y-136680519D01*
X148384340Y-136662533D01*
X148558998Y-136614997D01*
X148643167Y-136588933D01*
X148976940Y-136514935D01*
X149379403Y-136475456D01*
X149823491Y-136471044D01*
X150282144Y-136502242D01*
D11*
X191606574Y-147795198D02*
X191485020Y-148484563D01*
X192040694Y-145333178D02*
X193419425Y-145576286D01*
D12*
X201101647Y-152109545D02*
X198442666Y-151640694D01*
D13*
X198497194Y-151425422D02*
G75*
G03X196640750Y-149190572I-2169248J86530D01*
G01*
D14*
X191817685Y-145446170D02*
X191878462Y-145101487D01*
X201889013Y-148795928D02*
G75*
G03X200150848Y-146560131I-1986981J248816D01*
G01*
X198033812Y-151749886D02*
G75*
G03X196177368Y-149515036I-2169248J86530D01*
G01*
X191878462Y-145101487D02*
X200150848Y-146560131D01*
X196177368Y-149515036D02*
X191253329Y-148646795D01*
X201263879Y-152341236D02*
X198033709Y-151771670D01*
X201889012Y-148795928D02*
X201715364Y-149780736D01*
X201263879Y-152341236D02*
X201326392Y-151986705D01*
X201129431Y-151951975D02*
X201326392Y-151986705D01*
X201488858Y-149740796D02*
X201099886Y-151946766D01*
X201715364Y-149780736D02*
X201518402Y-149746006D01*
X192014647Y-145480900D02*
X191817685Y-145446170D01*
X191643635Y-147700190D02*
X192034343Y-145484373D01*
X191426977Y-147661987D02*
X191623939Y-147696717D01*
X191253329Y-148646795D02*
X191426977Y-147661987D01*
D15*
X193535511Y-147221438D02*
X200133723Y-148384880D01*
D13*
X192463639Y-145813926D02*
X192029518Y-148275945D01*
D12*
X191600866Y-148403447D02*
X192979597Y-148646555D01*
D16*
X200254754Y-148101593D02*
X199865782Y-150307563D01*
D17*
X200759818Y-151744643D02*
X201072385Y-149971989D01*
D18*
X201634247Y-149664890D02*
X201790531Y-148778564D01*
D14*
X86475360Y-90169140D02*
X84975360Y-90169140D01*
X86475360Y-95569140D02*
X86475360Y-90169140D01*
X84975360Y-95569140D02*
X86475360Y-95569140D01*
X84975360Y-90169140D02*
X84975360Y-95569140D01*
X85225360Y-93369140D02*
X86225360Y-93369140D01*
X86225360Y-92369140D02*
X85725360Y-93269140D01*
X85225360Y-92369140D02*
X86225360Y-92369140D01*
X85725360Y-93269140D02*
X85225360Y-92369140D01*
X86475360Y-109219220D02*
X84975360Y-109219220D01*
X86475360Y-114619220D02*
X86475360Y-109219220D01*
X84975360Y-114619220D02*
X86475360Y-114619220D01*
X84975360Y-109219220D02*
X84975360Y-114619220D01*
X85225360Y-112419220D02*
X86225360Y-112419220D01*
X86225360Y-111419220D02*
X85725360Y-112319220D01*
X85225360Y-111419220D02*
X86225360Y-111419220D01*
X85725360Y-112319220D02*
X85225360Y-111419220D01*
X86475360Y-128269300D02*
X84975360Y-128269300D01*
X86475360Y-133669300D02*
X86475360Y-128269300D01*
X84975360Y-133669300D02*
X86475360Y-133669300D01*
X84975360Y-128269300D02*
X84975360Y-133669300D01*
X85225360Y-131469300D02*
X86225360Y-131469300D01*
X86225360Y-130469300D02*
X85725360Y-131369300D01*
X85225360Y-130469300D02*
X86225360Y-130469300D01*
X85725360Y-131369300D02*
X85225360Y-130469300D01*
X105525440Y-90407250D02*
X104025440Y-90407250D01*
X105525440Y-95807250D02*
X105525440Y-90407250D01*
X104025440Y-95807250D02*
X105525440Y-95807250D01*
X104025440Y-90407250D02*
X104025440Y-95807250D01*
X104275440Y-93607250D02*
X105275440Y-93607250D01*
X105275440Y-92607250D02*
X104775440Y-93507250D01*
X104275440Y-92607250D02*
X105275440Y-92607250D01*
X104775440Y-93507250D02*
X104275440Y-92607250D01*
X104775440Y-112319220D02*
X104275440Y-111419220D01*
X104275440Y-111419220D02*
X105275440Y-111419220D01*
X105275440Y-111419220D02*
X104775440Y-112319220D01*
X104275440Y-112419220D02*
X105275440Y-112419220D01*
X104025440Y-109219220D02*
X104025440Y-114619220D01*
X104025440Y-114619220D02*
X105525440Y-114619220D01*
X105525440Y-114619220D02*
X105525440Y-109219220D01*
X105525440Y-109219220D02*
X104025440Y-109219220D01*
X104775440Y-131369300D02*
X104275440Y-130469300D01*
X104275440Y-130469300D02*
X105275440Y-130469300D01*
X105275440Y-130469300D02*
X104775440Y-131369300D01*
X104275440Y-131469300D02*
X105275440Y-131469300D01*
X104025440Y-128269300D02*
X104025440Y-133669300D01*
X104025440Y-133669300D02*
X105525440Y-133669300D01*
X105525440Y-133669300D02*
X105525440Y-128269300D01*
X105525440Y-128269300D02*
X104025440Y-128269300D01*
X142875600Y-88506620D02*
X142375600Y-87606620D01*
X142375600Y-87606620D02*
X143375600Y-87606620D01*
X143375600Y-87606620D02*
X142875600Y-88506620D01*
X142375600Y-88606620D02*
X143375600Y-88606620D01*
X142125600Y-85406620D02*
X142125600Y-90806620D01*
X142125600Y-90806620D02*
X143625600Y-90806620D01*
X143625600Y-90806620D02*
X143625600Y-85406620D01*
X143625600Y-85406620D02*
X142125600Y-85406620D01*
X143625600Y-104456700D02*
X142125600Y-104456700D01*
X143625600Y-109856700D02*
X143625600Y-104456700D01*
X142125600Y-109856700D02*
X143625600Y-109856700D01*
X142125600Y-104456700D02*
X142125600Y-109856700D01*
X142375600Y-107656700D02*
X143375600Y-107656700D01*
X143375600Y-106656700D02*
X142875600Y-107556700D01*
X142375600Y-106656700D02*
X143375600Y-106656700D01*
X142875600Y-107556700D02*
X142375600Y-106656700D01*
X143625600Y-123506780D02*
X142125600Y-123506780D01*
X143625600Y-128906780D02*
X143625600Y-123506780D01*
X142125600Y-128906780D02*
X143625600Y-128906780D01*
X142125600Y-123506780D02*
X142125600Y-128906780D01*
X142375600Y-126706780D02*
X143375600Y-126706780D01*
X143375600Y-125706780D02*
X142875600Y-126606780D01*
X142375600Y-125706780D02*
X143375600Y-125706780D01*
X142875600Y-126606780D02*
X142375600Y-125706780D01*
X161925680Y-86125360D02*
X161425680Y-85225360D01*
X161425680Y-85225360D02*
X162425680Y-85225360D01*
X162425680Y-85225360D02*
X161925680Y-86125360D01*
X161425680Y-86225360D02*
X162425680Y-86225360D01*
X161175680Y-83025360D02*
X161175680Y-88425360D01*
X161175680Y-88425360D02*
X162675680Y-88425360D01*
X162675680Y-88425360D02*
X162675680Y-83025360D01*
X162675680Y-83025360D02*
X161175680Y-83025360D01*
X161925680Y-105175440D02*
X161425680Y-104275440D01*
X161425680Y-104275440D02*
X162425680Y-104275440D01*
X162425680Y-104275440D02*
X161925680Y-105175440D01*
X161425680Y-105275440D02*
X162425680Y-105275440D01*
X161175680Y-102075440D02*
X161175680Y-107475440D01*
X161175680Y-107475440D02*
X162675680Y-107475440D01*
X162675680Y-107475440D02*
X162675680Y-102075440D01*
X162675680Y-102075440D02*
X161175680Y-102075440D01*
X161925680Y-124225520D02*
X161425680Y-123325520D01*
X161425680Y-123325520D02*
X162425680Y-123325520D01*
X162425680Y-123325520D02*
X161925680Y-124225520D01*
X161425680Y-124325520D02*
X162425680Y-124325520D01*
X161175680Y-121125520D02*
X161175680Y-126525520D01*
X161175680Y-126525520D02*
X162675680Y-126525520D01*
X162675680Y-126525520D02*
X162675680Y-121125520D01*
X162675680Y-121125520D02*
X161175680Y-121125520D01*
X181725760Y-87787880D02*
X180225760Y-87787880D01*
X181725760Y-93187880D02*
X181725760Y-87787880D01*
X180225760Y-93187880D02*
X181725760Y-93187880D01*
X180225760Y-87787880D02*
X180225760Y-93187880D01*
X180475760Y-90987880D02*
X181475760Y-90987880D01*
X181475760Y-89987880D02*
X180975760Y-90887880D01*
X180475760Y-89987880D02*
X181475760Y-89987880D01*
X180975760Y-90887880D02*
X180475760Y-89987880D01*
X181725760Y-106837960D02*
X180225760Y-106837960D01*
X181725760Y-112237960D02*
X181725760Y-106837960D01*
X180225760Y-112237960D02*
X181725760Y-112237960D01*
X180225760Y-106837960D02*
X180225760Y-112237960D01*
X180475760Y-110037960D02*
X181475760Y-110037960D01*
X181475760Y-109037960D02*
X180975760Y-109937960D01*
X180475760Y-109037960D02*
X181475760Y-109037960D01*
X180975760Y-109937960D02*
X180475760Y-109037960D01*
X181725760Y-125888040D02*
X180225760Y-125888040D01*
X181725760Y-131288040D02*
X181725760Y-125888040D01*
X180225760Y-131288040D02*
X181725760Y-131288040D01*
X180225760Y-125888040D02*
X180225760Y-131288040D01*
X180475760Y-129088040D02*
X181475760Y-129088040D01*
X181475760Y-128088040D02*
X180975760Y-128988040D01*
X180475760Y-128088040D02*
X181475760Y-128088040D01*
X180975760Y-128988040D02*
X180475760Y-128088040D01*
X181866039Y-147362332D02*
X180368095Y-147283828D01*
X181583425Y-152754932D02*
X181866039Y-147362332D01*
X180085481Y-152676428D02*
X181583425Y-152754932D01*
X180368095Y-147283828D02*
X180085481Y-152676428D01*
X180450277Y-150492527D02*
X181448907Y-150544863D01*
X181501243Y-149546233D02*
X180954826Y-150418832D01*
X180502613Y-149493897D02*
X181501243Y-149546233D01*
X180954826Y-150418832D02*
X180502613Y-149493897D01*
X200025840Y-90887880D02*
X199525840Y-89987880D01*
X199525840Y-89987880D02*
X200525840Y-89987880D01*
X200525840Y-89987880D02*
X200025840Y-90887880D01*
X199525840Y-90987880D02*
X200525840Y-90987880D01*
X199275840Y-87787880D02*
X199275840Y-93187880D01*
X199275840Y-93187880D02*
X200775840Y-93187880D01*
X200775840Y-93187880D02*
X200775840Y-87787880D01*
X200775840Y-87787880D02*
X199275840Y-87787880D01*
X200025840Y-109937960D02*
X199525840Y-109037960D01*
X199525840Y-109037960D02*
X200525840Y-109037960D01*
X200525840Y-109037960D02*
X200025840Y-109937960D01*
X199525840Y-110037960D02*
X200525840Y-110037960D01*
X199275840Y-106837960D02*
X199275840Y-112237960D01*
X199275840Y-112237960D02*
X200775840Y-112237960D01*
X200775840Y-112237960D02*
X200775840Y-106837960D01*
X200775840Y-106837960D02*
X199275840Y-106837960D01*
X200025840Y-128381780D02*
X199525840Y-127481780D01*
X199525840Y-127481780D02*
X200525840Y-127481780D01*
X200525840Y-127481780D02*
X200025840Y-128381780D01*
X199525840Y-128481780D02*
X200525840Y-128481780D01*
X199275840Y-125281780D02*
X199275840Y-130681780D01*
X199275840Y-130681780D02*
X200775840Y-130681780D01*
X200775840Y-130681780D02*
X200775840Y-125281780D01*
X200775840Y-125281780D02*
X199275840Y-125281780D01*
X207100161Y-156366453D02*
X206764040Y-155393302D01*
X206764040Y-155393302D02*
X207748848Y-155566950D01*
X207748848Y-155566950D02*
X207100161Y-156366453D01*
X206590392Y-156378110D02*
X207575200Y-156551758D01*
X206899864Y-153183313D02*
X205962164Y-158501275D01*
X205962164Y-158501275D02*
X207439376Y-158761747D01*
X207439376Y-158761747D02*
X208377076Y-153443785D01*
X208377076Y-153443785D02*
X206899864Y-153183313D01*
X229791590Y-125588040D02*
X229791590Y-131588040D01*
X229791590Y-131588040D02*
X217791590Y-131588040D01*
X217791590Y-131588040D02*
X217791590Y-125588040D01*
X217791590Y-125588040D02*
X229791590Y-125588040D01*
D11*
X90850000Y-89425000D02*
X90850000Y-90125000D01*
X90850000Y-86925000D02*
X92250000Y-86925000D01*
D12*
X100950000Y-92025000D02*
X98250000Y-92025000D01*
D13*
X98266318Y-91803529D02*
G75*
G03X96050000Y-89925000I-2151318J-291471D01*
G01*
D14*
X90650000Y-87075000D02*
X90650000Y-86725000D01*
X101150001Y-88625000D02*
G75*
G03X99050000Y-86724999I-2000001J-100000D01*
G01*
X97866318Y-92203529D02*
G75*
G03X95650000Y-90325000I-2151318J-291471D01*
G01*
X90650000Y-86725000D02*
X99050000Y-86724999D01*
X95650000Y-90325000D02*
X90650000Y-90325000D01*
X101150000Y-92225000D02*
X97870000Y-92225000D01*
X101150000Y-88625000D02*
X101150000Y-89625000D01*
X101150000Y-92225000D02*
X101150000Y-91865000D01*
X100950000Y-91865000D02*
X101150000Y-91865000D01*
X100920000Y-89625000D02*
X100920000Y-91865000D01*
X101150000Y-89625000D02*
X100950000Y-89625000D01*
X90850000Y-87075000D02*
X90650000Y-87075000D01*
X90870000Y-89325000D02*
X90870000Y-87075000D01*
X90650000Y-89325000D02*
X90850000Y-89325000D01*
X90650000Y-90325000D02*
X90650000Y-89325000D01*
D15*
X92650000Y-88525000D02*
X99350000Y-88525000D01*
D13*
X91350000Y-87325000D02*
X91350000Y-89825000D01*
D12*
X90950000Y-90025000D02*
X92350000Y-90025000D01*
D16*
X99420000Y-88225000D02*
X99420000Y-90465000D01*
D17*
X100550000Y-91725000D02*
X100550000Y-89925000D01*
D18*
X101049999Y-89525000D02*
X101050000Y-88625001D01*
X101049999Y-108575000D02*
X101050000Y-107675001D01*
D17*
X100550000Y-110775000D02*
X100550000Y-108975000D01*
D16*
X99420000Y-107275000D02*
X99420000Y-109515000D01*
D12*
X90950000Y-109075000D02*
X92350000Y-109075000D01*
D13*
X91350000Y-106375000D02*
X91350000Y-108875000D01*
D15*
X92650000Y-107575000D02*
X99350000Y-107575000D01*
D14*
X90650000Y-109375000D02*
X90650000Y-108375000D01*
X90650000Y-108375000D02*
X90850000Y-108375000D01*
X90870000Y-108375000D02*
X90870000Y-106125000D01*
X90850000Y-106125000D02*
X90650000Y-106125000D01*
X101150000Y-108675000D02*
X100950000Y-108675000D01*
X100920000Y-108675000D02*
X100920000Y-110915000D01*
X100950000Y-110915000D02*
X101150000Y-110915000D01*
X101150000Y-111275000D02*
X101150000Y-110915000D01*
X101150000Y-107675000D02*
X101150000Y-108675000D01*
X101150000Y-111275000D02*
X97870000Y-111275000D01*
X95650000Y-109375000D02*
X90650000Y-109375000D01*
X90650000Y-105775000D02*
X99050000Y-105774999D01*
X97866318Y-111253529D02*
G75*
G03X95650000Y-109375000I-2151318J-291471D01*
G01*
X101150001Y-107675000D02*
G75*
G03X99050000Y-105774999I-2000001J-100000D01*
G01*
X90650000Y-106125000D02*
X90650000Y-105775000D01*
D13*
X98266318Y-110853529D02*
G75*
G03X96050000Y-108975000I-2151318J-291471D01*
G01*
D12*
X100950000Y-111075000D02*
X98250000Y-111075000D01*
D11*
X90850000Y-105975000D02*
X92250000Y-105975000D01*
X90850000Y-108475000D02*
X90850000Y-109175000D01*
X90850000Y-127525000D02*
X90850000Y-128225000D01*
X90850000Y-125025000D02*
X92250000Y-125025000D01*
D12*
X100950000Y-130125000D02*
X98250000Y-130125000D01*
D13*
X98266318Y-129903529D02*
G75*
G03X96050000Y-128025000I-2151318J-291471D01*
G01*
D14*
X90650000Y-125175000D02*
X90650000Y-124825000D01*
X101150001Y-126725000D02*
G75*
G03X99050000Y-124824999I-2000001J-100000D01*
G01*
X97866318Y-130303529D02*
G75*
G03X95650000Y-128425000I-2151318J-291471D01*
G01*
X90650000Y-124825000D02*
X99050000Y-124824999D01*
X95650000Y-128425000D02*
X90650000Y-128425000D01*
X101150000Y-130325000D02*
X97870000Y-130325000D01*
X101150000Y-126725000D02*
X101150000Y-127725000D01*
X101150000Y-130325000D02*
X101150000Y-129965000D01*
X100950000Y-129965000D02*
X101150000Y-129965000D01*
X100920000Y-127725000D02*
X100920000Y-129965000D01*
X101150000Y-127725000D02*
X100950000Y-127725000D01*
X90850000Y-125175000D02*
X90650000Y-125175000D01*
X90870000Y-127425000D02*
X90870000Y-125175000D01*
X90650000Y-127425000D02*
X90850000Y-127425000D01*
X90650000Y-128425000D02*
X90650000Y-127425000D01*
D15*
X92650000Y-126625000D02*
X99350000Y-126625000D01*
D13*
X91350000Y-125425000D02*
X91350000Y-127925000D01*
D12*
X90950000Y-128125000D02*
X92350000Y-128125000D01*
D16*
X99420000Y-126325000D02*
X99420000Y-128565000D01*
D17*
X100550000Y-129825000D02*
X100550000Y-128025000D01*
D18*
X101049999Y-127625000D02*
X101050000Y-126725001D01*
D11*
X109900000Y-89425000D02*
X109900000Y-90125000D01*
X109900000Y-86925000D02*
X111300000Y-86925000D01*
D12*
X120000000Y-92025000D02*
X117300000Y-92025000D01*
D13*
X117316318Y-91803529D02*
G75*
G03X115100000Y-89925000I-2151318J-291471D01*
G01*
D14*
X109700000Y-87075000D02*
X109700000Y-86725000D01*
X120200001Y-88625000D02*
G75*
G03X118100000Y-86724999I-2000001J-100000D01*
G01*
X116916318Y-92203529D02*
G75*
G03X114700000Y-90325000I-2151318J-291471D01*
G01*
X109700000Y-86725000D02*
X118100000Y-86724999D01*
X114700000Y-90325000D02*
X109700000Y-90325000D01*
X120200000Y-92225000D02*
X116920000Y-92225000D01*
X120200000Y-88625000D02*
X120200000Y-89625000D01*
X120200000Y-92225000D02*
X120200000Y-91865000D01*
X120000000Y-91865000D02*
X120200000Y-91865000D01*
X119970000Y-89625000D02*
X119970000Y-91865000D01*
X120200000Y-89625000D02*
X120000000Y-89625000D01*
X109900000Y-87075000D02*
X109700000Y-87075000D01*
X109920000Y-89325000D02*
X109920000Y-87075000D01*
X109700000Y-89325000D02*
X109900000Y-89325000D01*
X109700000Y-90325000D02*
X109700000Y-89325000D01*
D15*
X111700000Y-88525000D02*
X118400000Y-88525000D01*
D13*
X110400000Y-87325000D02*
X110400000Y-89825000D01*
D12*
X110000000Y-90025000D02*
X111400000Y-90025000D01*
D16*
X118470000Y-88225000D02*
X118470000Y-90465000D01*
D17*
X119600000Y-91725000D02*
X119600000Y-89925000D01*
D18*
X120099999Y-89525000D02*
X120100000Y-88625001D01*
D11*
X109900000Y-108475000D02*
X109900000Y-109175000D01*
X109900000Y-105975000D02*
X111300000Y-105975000D01*
D12*
X120000000Y-111075000D02*
X117300000Y-111075000D01*
D13*
X117316318Y-110853529D02*
G75*
G03X115100000Y-108975000I-2151318J-291471D01*
G01*
D14*
X109700000Y-106125000D02*
X109700000Y-105775000D01*
X120200001Y-107675000D02*
G75*
G03X118100000Y-105774999I-2000001J-100000D01*
G01*
X116916318Y-111253529D02*
G75*
G03X114700000Y-109375000I-2151318J-291471D01*
G01*
X109700000Y-105775000D02*
X118100000Y-105774999D01*
X114700000Y-109375000D02*
X109700000Y-109375000D01*
X120200000Y-111275000D02*
X116920000Y-111275000D01*
X120200000Y-107675000D02*
X120200000Y-108675000D01*
X120200000Y-111275000D02*
X120200000Y-110915000D01*
X120000000Y-110915000D02*
X120200000Y-110915000D01*
X119970000Y-108675000D02*
X119970000Y-110915000D01*
X120200000Y-108675000D02*
X120000000Y-108675000D01*
X109900000Y-106125000D02*
X109700000Y-106125000D01*
X109920000Y-108375000D02*
X109920000Y-106125000D01*
X109700000Y-108375000D02*
X109900000Y-108375000D01*
X109700000Y-109375000D02*
X109700000Y-108375000D01*
D15*
X111700000Y-107575000D02*
X118400000Y-107575000D01*
D13*
X110400000Y-106375000D02*
X110400000Y-108875000D01*
D12*
X110000000Y-109075000D02*
X111400000Y-109075000D01*
D16*
X118470000Y-107275000D02*
X118470000Y-109515000D01*
D17*
X119600000Y-110775000D02*
X119600000Y-108975000D01*
D18*
X120099999Y-108575000D02*
X120100000Y-107675001D01*
X120099999Y-127625000D02*
X120100000Y-126725001D01*
D17*
X119600000Y-129825000D02*
X119600000Y-128025000D01*
D16*
X118470000Y-126325000D02*
X118470000Y-128565000D01*
D12*
X110000000Y-128125000D02*
X111400000Y-128125000D01*
D13*
X110400000Y-125425000D02*
X110400000Y-127925000D01*
D15*
X111700000Y-126625000D02*
X118400000Y-126625000D01*
D14*
X109700000Y-128425000D02*
X109700000Y-127425000D01*
X109700000Y-127425000D02*
X109900000Y-127425000D01*
X109920000Y-127425000D02*
X109920000Y-125175000D01*
X109900000Y-125175000D02*
X109700000Y-125175000D01*
X120200000Y-127725000D02*
X120000000Y-127725000D01*
X119970000Y-127725000D02*
X119970000Y-129965000D01*
X120000000Y-129965000D02*
X120200000Y-129965000D01*
X120200000Y-130325000D02*
X120200000Y-129965000D01*
X120200000Y-126725000D02*
X120200000Y-127725000D01*
X120200000Y-130325000D02*
X116920000Y-130325000D01*
X114700000Y-128425000D02*
X109700000Y-128425000D01*
X109700000Y-124825000D02*
X118100000Y-124824999D01*
X116916318Y-130303529D02*
G75*
G03X114700000Y-128425000I-2151318J-291471D01*
G01*
X120200001Y-126725000D02*
G75*
G03X118100000Y-124824999I-2000001J-100000D01*
G01*
X109700000Y-125175000D02*
X109700000Y-124825000D01*
D13*
X117316318Y-129903529D02*
G75*
G03X115100000Y-128025000I-2151318J-291471D01*
G01*
D12*
X120000000Y-130125000D02*
X117300000Y-130125000D01*
D11*
X109900000Y-125025000D02*
X111300000Y-125025000D01*
X109900000Y-127525000D02*
X109900000Y-128225000D01*
D18*
X139149999Y-84306250D02*
X139150000Y-83406251D01*
D17*
X138650000Y-86506250D02*
X138650000Y-84706250D01*
D16*
X137520000Y-83006250D02*
X137520000Y-85246250D01*
D12*
X129050000Y-84806250D02*
X130450000Y-84806250D01*
D13*
X129450000Y-82106250D02*
X129450000Y-84606250D01*
D15*
X130750000Y-83306250D02*
X137450000Y-83306250D01*
D14*
X128750000Y-85106250D02*
X128750000Y-84106250D01*
X128750000Y-84106250D02*
X128950000Y-84106250D01*
X128970000Y-84106250D02*
X128970000Y-81856250D01*
X128950000Y-81856250D02*
X128750000Y-81856250D01*
X139250000Y-84406250D02*
X139050000Y-84406250D01*
X139020000Y-84406250D02*
X139020000Y-86646250D01*
X139050000Y-86646250D02*
X139250000Y-86646250D01*
X139250000Y-87006250D02*
X139250000Y-86646250D01*
X139250000Y-83406250D02*
X139250000Y-84406250D01*
X139250000Y-87006250D02*
X135970000Y-87006250D01*
X133750000Y-85106250D02*
X128750000Y-85106250D01*
X128750000Y-81506250D02*
X137150000Y-81506249D01*
X135966318Y-86984779D02*
G75*
G03X133750000Y-85106250I-2151318J-291471D01*
G01*
X139250001Y-83406250D02*
G75*
G03X137150000Y-81506249I-2000001J-100000D01*
G01*
X128750000Y-81856250D02*
X128750000Y-81506250D01*
D13*
X136366318Y-86584779D02*
G75*
G03X134150000Y-84706250I-2151318J-291471D01*
G01*
D12*
X139050000Y-86806250D02*
X136350000Y-86806250D01*
D11*
X128950000Y-81706250D02*
X130350000Y-81706250D01*
X128950000Y-84206250D02*
X128950000Y-84906250D01*
D18*
X139149999Y-103356250D02*
X139150000Y-102456251D01*
D17*
X138650000Y-105556250D02*
X138650000Y-103756250D01*
D16*
X137520000Y-102056250D02*
X137520000Y-104296250D01*
D12*
X129050000Y-103856250D02*
X130450000Y-103856250D01*
D13*
X129450000Y-101156250D02*
X129450000Y-103656250D01*
D15*
X130750000Y-102356250D02*
X137450000Y-102356250D01*
D14*
X128750000Y-104156250D02*
X128750000Y-103156250D01*
X128750000Y-103156250D02*
X128950000Y-103156250D01*
X128970000Y-103156250D02*
X128970000Y-100906250D01*
X128950000Y-100906250D02*
X128750000Y-100906250D01*
X139250000Y-103456250D02*
X139050000Y-103456250D01*
X139020000Y-103456250D02*
X139020000Y-105696250D01*
X139050000Y-105696250D02*
X139250000Y-105696250D01*
X139250000Y-106056250D02*
X139250000Y-105696250D01*
X139250000Y-102456250D02*
X139250000Y-103456250D01*
X139250000Y-106056250D02*
X135970000Y-106056250D01*
X133750000Y-104156250D02*
X128750000Y-104156250D01*
X128750000Y-100556250D02*
X137150000Y-100556249D01*
X135966318Y-106034779D02*
G75*
G03X133750000Y-104156250I-2151318J-291471D01*
G01*
X139250001Y-102456250D02*
G75*
G03X137150000Y-100556249I-2000001J-100000D01*
G01*
X128750000Y-100906250D02*
X128750000Y-100556250D01*
D13*
X136366318Y-105634779D02*
G75*
G03X134150000Y-103756250I-2151318J-291471D01*
G01*
D12*
X139050000Y-105856250D02*
X136350000Y-105856250D01*
D11*
X128950000Y-100756250D02*
X130350000Y-100756250D01*
X128950000Y-103256250D02*
X128950000Y-103956250D01*
X128950000Y-122306250D02*
X128950000Y-123006250D01*
X128950000Y-119806250D02*
X130350000Y-119806250D01*
D12*
X139050000Y-124906250D02*
X136350000Y-124906250D01*
D13*
X136366318Y-124684779D02*
G75*
G03X134150000Y-122806250I-2151318J-291471D01*
G01*
D14*
X128750000Y-119956250D02*
X128750000Y-119606250D01*
X139250001Y-121506250D02*
G75*
G03X137150000Y-119606249I-2000001J-100000D01*
G01*
X135966318Y-125084779D02*
G75*
G03X133750000Y-123206250I-2151318J-291471D01*
G01*
X128750000Y-119606250D02*
X137150000Y-119606249D01*
X133750000Y-123206250D02*
X128750000Y-123206250D01*
X139250000Y-125106250D02*
X135970000Y-125106250D01*
X139250000Y-121506250D02*
X139250000Y-122506250D01*
X139250000Y-125106250D02*
X139250000Y-124746250D01*
X139050000Y-124746250D02*
X139250000Y-124746250D01*
X139020000Y-122506250D02*
X139020000Y-124746250D01*
X139250000Y-122506250D02*
X139050000Y-122506250D01*
X128950000Y-119956250D02*
X128750000Y-119956250D01*
X128970000Y-122206250D02*
X128970000Y-119956250D01*
X128750000Y-122206250D02*
X128950000Y-122206250D01*
X128750000Y-123206250D02*
X128750000Y-122206250D01*
D15*
X130750000Y-121406250D02*
X137450000Y-121406250D01*
D13*
X129450000Y-120206250D02*
X129450000Y-122706250D01*
D12*
X129050000Y-122906250D02*
X130450000Y-122906250D01*
D16*
X137520000Y-121106250D02*
X137520000Y-123346250D01*
D17*
X138650000Y-124606250D02*
X138650000Y-122806250D01*
D18*
X139149999Y-122406250D02*
X139150000Y-121506251D01*
D11*
X148000000Y-81825000D02*
X148000000Y-82525000D01*
X148000000Y-79325000D02*
X149400000Y-79325000D01*
D12*
X158100000Y-84425000D02*
X155400000Y-84425000D01*
D13*
X155416318Y-84203529D02*
G75*
G03X153200000Y-82325000I-2151318J-291471D01*
G01*
D14*
X147800000Y-79475000D02*
X147800000Y-79125000D01*
X158300001Y-81025000D02*
G75*
G03X156200000Y-79124999I-2000001J-100000D01*
G01*
X155016318Y-84603529D02*
G75*
G03X152800000Y-82725000I-2151318J-291471D01*
G01*
X147800000Y-79125000D02*
X156200000Y-79124999D01*
X152800000Y-82725000D02*
X147800000Y-82725000D01*
X158300000Y-84625000D02*
X155020000Y-84625000D01*
X158300000Y-81025000D02*
X158300000Y-82025000D01*
X158300000Y-84625000D02*
X158300000Y-84265000D01*
X158100000Y-84265000D02*
X158300000Y-84265000D01*
X158070000Y-82025000D02*
X158070000Y-84265000D01*
X158300000Y-82025000D02*
X158100000Y-82025000D01*
X148000000Y-79475000D02*
X147800000Y-79475000D01*
X148020000Y-81725000D02*
X148020000Y-79475000D01*
X147800000Y-81725000D02*
X148000000Y-81725000D01*
X147800000Y-82725000D02*
X147800000Y-81725000D01*
D15*
X149800000Y-80925000D02*
X156500000Y-80925000D01*
D13*
X148500000Y-79725000D02*
X148500000Y-82225000D01*
D12*
X148100000Y-82425000D02*
X149500000Y-82425000D01*
D16*
X156570000Y-80625000D02*
X156570000Y-82865000D01*
D17*
X157700000Y-84125000D02*
X157700000Y-82325000D01*
D18*
X158199999Y-81925000D02*
X158200000Y-81025001D01*
D11*
X148000000Y-100875000D02*
X148000000Y-101575000D01*
X148000000Y-98375000D02*
X149400000Y-98375000D01*
D12*
X158100000Y-103475000D02*
X155400000Y-103475000D01*
D13*
X155416318Y-103253529D02*
G75*
G03X153200000Y-101375000I-2151318J-291471D01*
G01*
D14*
X147800000Y-98525000D02*
X147800000Y-98175000D01*
X158300001Y-100075000D02*
G75*
G03X156200000Y-98174999I-2000001J-100000D01*
G01*
X155016318Y-103653529D02*
G75*
G03X152800000Y-101775000I-2151318J-291471D01*
G01*
X147800000Y-98175000D02*
X156200000Y-98174999D01*
X152800000Y-101775000D02*
X147800000Y-101775000D01*
X158300000Y-103675000D02*
X155020000Y-103675000D01*
X158300000Y-100075000D02*
X158300000Y-101075000D01*
X158300000Y-103675000D02*
X158300000Y-103315000D01*
X158100000Y-103315000D02*
X158300000Y-103315000D01*
X158070000Y-101075000D02*
X158070000Y-103315000D01*
X158300000Y-101075000D02*
X158100000Y-101075000D01*
X148000000Y-98525000D02*
X147800000Y-98525000D01*
X148020000Y-100775000D02*
X148020000Y-98525000D01*
X147800000Y-100775000D02*
X148000000Y-100775000D01*
X147800000Y-101775000D02*
X147800000Y-100775000D01*
D15*
X149800000Y-99975000D02*
X156500000Y-99975000D01*
D13*
X148500000Y-98775000D02*
X148500000Y-101275000D01*
D12*
X148100000Y-101475000D02*
X149500000Y-101475000D01*
D16*
X156570000Y-99675000D02*
X156570000Y-101915000D01*
D17*
X157700000Y-103175000D02*
X157700000Y-101375000D01*
D18*
X158199999Y-100975000D02*
X158200000Y-100075001D01*
X158199999Y-120025000D02*
X158200000Y-119125001D01*
D17*
X157700000Y-122225000D02*
X157700000Y-120425000D01*
D16*
X156570000Y-118725000D02*
X156570000Y-120965000D01*
D12*
X148100000Y-120525000D02*
X149500000Y-120525000D01*
D13*
X148500000Y-117825000D02*
X148500000Y-120325000D01*
D15*
X149800000Y-119025000D02*
X156500000Y-119025000D01*
D14*
X147800000Y-120825000D02*
X147800000Y-119825000D01*
X147800000Y-119825000D02*
X148000000Y-119825000D01*
X148020000Y-119825000D02*
X148020000Y-117575000D01*
X148000000Y-117575000D02*
X147800000Y-117575000D01*
X158300000Y-120125000D02*
X158100000Y-120125000D01*
X158070000Y-120125000D02*
X158070000Y-122365000D01*
X158100000Y-122365000D02*
X158300000Y-122365000D01*
X158300000Y-122725000D02*
X158300000Y-122365000D01*
X158300000Y-119125000D02*
X158300000Y-120125000D01*
X158300000Y-122725000D02*
X155020000Y-122725000D01*
X152800000Y-120825000D02*
X147800000Y-120825000D01*
X147800000Y-117225000D02*
X156200000Y-117224999D01*
X155016318Y-122703529D02*
G75*
G03X152800000Y-120825000I-2151318J-291471D01*
G01*
X158300001Y-119125000D02*
G75*
G03X156200000Y-117224999I-2000001J-100000D01*
G01*
X147800000Y-117575000D02*
X147800000Y-117225000D01*
D13*
X155416318Y-122303529D02*
G75*
G03X153200000Y-120425000I-2151318J-291471D01*
G01*
D12*
X158100000Y-122525000D02*
X155400000Y-122525000D01*
D11*
X148000000Y-117425000D02*
X149400000Y-117425000D01*
X148000000Y-119925000D02*
X148000000Y-120625000D01*
D18*
X177249999Y-86687500D02*
X177250000Y-85787501D01*
D17*
X176750000Y-88887500D02*
X176750000Y-87087500D01*
D16*
X175620000Y-85387500D02*
X175620000Y-87627500D01*
D12*
X167150000Y-87187500D02*
X168550000Y-87187500D01*
D13*
X167550000Y-84487500D02*
X167550000Y-86987500D01*
D15*
X168850000Y-85687500D02*
X175550000Y-85687500D01*
D14*
X166850000Y-87487500D02*
X166850000Y-86487500D01*
X166850000Y-86487500D02*
X167050000Y-86487500D01*
X167070000Y-86487500D02*
X167070000Y-84237500D01*
X167050000Y-84237500D02*
X166850000Y-84237500D01*
X177350000Y-86787500D02*
X177150000Y-86787500D01*
X177120000Y-86787500D02*
X177120000Y-89027500D01*
X177150000Y-89027500D02*
X177350000Y-89027500D01*
X177350000Y-89387500D02*
X177350000Y-89027500D01*
X177350000Y-85787500D02*
X177350000Y-86787500D01*
X177350000Y-89387500D02*
X174070000Y-89387500D01*
X171850000Y-87487500D02*
X166850000Y-87487500D01*
X166850000Y-83887500D02*
X175250000Y-83887499D01*
X174066318Y-89366029D02*
G75*
G03X171850000Y-87487500I-2151318J-291471D01*
G01*
X177350001Y-85787500D02*
G75*
G03X175250000Y-83887499I-2000001J-100000D01*
G01*
X166850000Y-84237500D02*
X166850000Y-83887500D01*
D13*
X174466318Y-88966029D02*
G75*
G03X172250000Y-87087500I-2151318J-291471D01*
G01*
D12*
X177150000Y-89187500D02*
X174450000Y-89187500D01*
D11*
X167050000Y-84087500D02*
X168450000Y-84087500D01*
X167050000Y-86587500D02*
X167050000Y-87287500D01*
D18*
X177249999Y-105737500D02*
X177250000Y-104837501D01*
D17*
X176750000Y-107937500D02*
X176750000Y-106137500D01*
D16*
X175620000Y-104437500D02*
X175620000Y-106677500D01*
D12*
X167150000Y-106237500D02*
X168550000Y-106237500D01*
D13*
X167550000Y-103537500D02*
X167550000Y-106037500D01*
D15*
X168850000Y-104737500D02*
X175550000Y-104737500D01*
D14*
X166850000Y-106537500D02*
X166850000Y-105537500D01*
X166850000Y-105537500D02*
X167050000Y-105537500D01*
X167070000Y-105537500D02*
X167070000Y-103287500D01*
X167050000Y-103287500D02*
X166850000Y-103287500D01*
X177350000Y-105837500D02*
X177150000Y-105837500D01*
X177120000Y-105837500D02*
X177120000Y-108077500D01*
X177150000Y-108077500D02*
X177350000Y-108077500D01*
X177350000Y-108437500D02*
X177350000Y-108077500D01*
X177350000Y-104837500D02*
X177350000Y-105837500D01*
X177350000Y-108437500D02*
X174070000Y-108437500D01*
X171850000Y-106537500D02*
X166850000Y-106537500D01*
X166850000Y-102937500D02*
X175250000Y-102937499D01*
X174066318Y-108416029D02*
G75*
G03X171850000Y-106537500I-2151318J-291471D01*
G01*
X177350001Y-104837500D02*
G75*
G03X175250000Y-102937499I-2000001J-100000D01*
G01*
X166850000Y-103287500D02*
X166850000Y-102937500D01*
D13*
X174466318Y-108016029D02*
G75*
G03X172250000Y-106137500I-2151318J-291471D01*
G01*
D12*
X177150000Y-108237500D02*
X174450000Y-108237500D01*
D11*
X167050000Y-103137500D02*
X168450000Y-103137500D01*
X167050000Y-105637500D02*
X167050000Y-106337500D01*
X167050000Y-124687500D02*
X167050000Y-125387500D01*
X167050000Y-122187500D02*
X168450000Y-122187500D01*
D12*
X177150000Y-127287500D02*
X174450000Y-127287500D01*
D13*
X174466318Y-127066029D02*
G75*
G03X172250000Y-125187500I-2151318J-291471D01*
G01*
D14*
X166850000Y-122337500D02*
X166850000Y-121987500D01*
X177350001Y-123887500D02*
G75*
G03X175250000Y-121987499I-2000001J-100000D01*
G01*
X174066318Y-127466029D02*
G75*
G03X171850000Y-125587500I-2151318J-291471D01*
G01*
X166850000Y-121987500D02*
X175250000Y-121987499D01*
X171850000Y-125587500D02*
X166850000Y-125587500D01*
X177350000Y-127487500D02*
X174070000Y-127487500D01*
X177350000Y-123887500D02*
X177350000Y-124887500D01*
X177350000Y-127487500D02*
X177350000Y-127127500D01*
X177150000Y-127127500D02*
X177350000Y-127127500D01*
X177120000Y-124887500D02*
X177120000Y-127127500D01*
X177350000Y-124887500D02*
X177150000Y-124887500D01*
X167050000Y-122337500D02*
X166850000Y-122337500D01*
X167070000Y-124587500D02*
X167070000Y-122337500D01*
X166850000Y-124587500D02*
X167050000Y-124587500D01*
X166850000Y-125587500D02*
X166850000Y-124587500D01*
D15*
X168850000Y-123787500D02*
X175550000Y-123787500D01*
D13*
X167550000Y-122587500D02*
X167550000Y-125087500D01*
D12*
X167150000Y-125287500D02*
X168550000Y-125287500D01*
D16*
X175620000Y-123487500D02*
X175620000Y-125727500D01*
D17*
X176750000Y-126987500D02*
X176750000Y-125187500D01*
D18*
X177249999Y-124787500D02*
X177250000Y-123887501D01*
D11*
X167260140Y-145893817D02*
X167223505Y-146592857D01*
X167390980Y-143397243D02*
X168789062Y-143470513D01*
D12*
X177210225Y-149018847D02*
X174513925Y-148877539D01*
D13*
X174541812Y-148657226D02*
G75*
G03X172426846Y-146665278I-2163624J-178480D01*
G01*
D14*
X167183404Y-143536570D02*
X167201721Y-143187050D01*
X177587894Y-145633973D02*
G75*
G03X175590210Y-143626671I-2002493J4809D01*
G01*
X174121426Y-149035744D02*
G75*
G03X172006460Y-147043796I-2163624J-178480D01*
G01*
X167201721Y-143187050D02*
X175590210Y-143626671D01*
X172006460Y-147043796D02*
X167013312Y-146782116D01*
X177399484Y-149229040D02*
X174123979Y-149057378D01*
X177587893Y-145633973D02*
X177535557Y-146632603D01*
X177399484Y-149229040D02*
X177418325Y-148869533D01*
X177218599Y-148859066D02*
X177418325Y-148869533D01*
X177305873Y-146620566D02*
X177188640Y-148857496D01*
X177535557Y-146632603D02*
X177335831Y-146622136D01*
X167383130Y-143547037D02*
X167183404Y-143536570D01*
X167285346Y-145795000D02*
X167403102Y-143548084D01*
X167065648Y-145783486D02*
X167265374Y-145793954D01*
X167013312Y-146782116D02*
X167065648Y-145783486D01*
D15*
X169104776Y-145089255D02*
X175795594Y-145439906D01*
D13*
X167869361Y-143822863D02*
X167738521Y-146319436D01*
D12*
X167328602Y-146498228D02*
X168726683Y-146571498D01*
D16*
X175881199Y-145143980D02*
X175763966Y-147380910D01*
D17*
X176826474Y-148698323D02*
X176920679Y-146900790D01*
D18*
X177440927Y-146527506D02*
X177488030Y-145628741D01*
D11*
X186100000Y-86587500D02*
X186100000Y-87287500D01*
X186100000Y-84087500D02*
X187500000Y-84087500D01*
D12*
X196200000Y-89187500D02*
X193500000Y-89187500D01*
D13*
X193516318Y-88966029D02*
G75*
G03X191300000Y-87087500I-2151318J-291471D01*
G01*
D14*
X185900000Y-84237500D02*
X185900000Y-83887500D01*
X196400001Y-85787500D02*
G75*
G03X194300000Y-83887499I-2000001J-100000D01*
G01*
X193116318Y-89366029D02*
G75*
G03X190900000Y-87487500I-2151318J-291471D01*
G01*
X185900000Y-83887500D02*
X194300000Y-83887499D01*
X190900000Y-87487500D02*
X185900000Y-87487500D01*
X196400000Y-89387500D02*
X193120000Y-89387500D01*
X196400000Y-85787500D02*
X196400000Y-86787500D01*
X196400000Y-89387500D02*
X196400000Y-89027500D01*
X196200000Y-89027500D02*
X196400000Y-89027500D01*
X196170000Y-86787500D02*
X196170000Y-89027500D01*
X196400000Y-86787500D02*
X196200000Y-86787500D01*
X186100000Y-84237500D02*
X185900000Y-84237500D01*
X186120000Y-86487500D02*
X186120000Y-84237500D01*
X185900000Y-86487500D02*
X186100000Y-86487500D01*
X185900000Y-87487500D02*
X185900000Y-86487500D01*
D15*
X187900000Y-85687500D02*
X194600000Y-85687500D01*
D13*
X186600000Y-84487500D02*
X186600000Y-86987500D01*
D12*
X186200000Y-87187500D02*
X187600000Y-87187500D01*
D16*
X194670000Y-85387500D02*
X194670000Y-87627500D01*
D17*
X195800000Y-88887500D02*
X195800000Y-87087500D01*
D18*
X196299999Y-86687500D02*
X196300000Y-85787501D01*
X196299999Y-105737500D02*
X196300000Y-104837501D01*
D17*
X195800000Y-107937500D02*
X195800000Y-106137500D01*
D16*
X194670000Y-104437500D02*
X194670000Y-106677500D01*
D12*
X186200000Y-106237500D02*
X187600000Y-106237500D01*
D13*
X186600000Y-103537500D02*
X186600000Y-106037500D01*
D15*
X187900000Y-104737500D02*
X194600000Y-104737500D01*
D14*
X185900000Y-106537500D02*
X185900000Y-105537500D01*
X185900000Y-105537500D02*
X186100000Y-105537500D01*
X186120000Y-105537500D02*
X186120000Y-103287500D01*
X186100000Y-103287500D02*
X185900000Y-103287500D01*
X196400000Y-105837500D02*
X196200000Y-105837500D01*
X196170000Y-105837500D02*
X196170000Y-108077500D01*
X196200000Y-108077500D02*
X196400000Y-108077500D01*
X196400000Y-108437500D02*
X196400000Y-108077500D01*
X196400000Y-104837500D02*
X196400000Y-105837500D01*
X196400000Y-108437500D02*
X193120000Y-108437500D01*
X190900000Y-106537500D02*
X185900000Y-106537500D01*
X185900000Y-102937500D02*
X194300000Y-102937499D01*
X193116318Y-108416029D02*
G75*
G03X190900000Y-106537500I-2151318J-291471D01*
G01*
X196400001Y-104837500D02*
G75*
G03X194300000Y-102937499I-2000001J-100000D01*
G01*
X185900000Y-103287500D02*
X185900000Y-102937500D01*
D13*
X193516318Y-108016029D02*
G75*
G03X191300000Y-106137500I-2151318J-291471D01*
G01*
D12*
X196200000Y-108237500D02*
X193500000Y-108237500D01*
D11*
X186100000Y-103137500D02*
X187500000Y-103137500D01*
X186100000Y-105637500D02*
X186100000Y-106337500D01*
D18*
X196299999Y-124787500D02*
X196300000Y-123887501D01*
D17*
X195800000Y-126987500D02*
X195800000Y-125187500D01*
D16*
X194670000Y-123487500D02*
X194670000Y-125727500D01*
D12*
X186200000Y-125287500D02*
X187600000Y-125287500D01*
D13*
X186600000Y-122587500D02*
X186600000Y-125087500D01*
D15*
X187900000Y-123787500D02*
X194600000Y-123787500D01*
D14*
X185900000Y-125587500D02*
X185900000Y-124587500D01*
X185900000Y-124587500D02*
X186100000Y-124587500D01*
X186120000Y-124587500D02*
X186120000Y-122337500D01*
X186100000Y-122337500D02*
X185900000Y-122337500D01*
X196400000Y-124887500D02*
X196200000Y-124887500D01*
X196170000Y-124887500D02*
X196170000Y-127127500D01*
X196200000Y-127127500D02*
X196400000Y-127127500D01*
X196400000Y-127487500D02*
X196400000Y-127127500D01*
X196400000Y-123887500D02*
X196400000Y-124887500D01*
X196400000Y-127487500D02*
X193120000Y-127487500D01*
X190900000Y-125587500D02*
X185900000Y-125587500D01*
X185900000Y-121987500D02*
X194300000Y-121987499D01*
X193116318Y-127466029D02*
G75*
G03X190900000Y-125587500I-2151318J-291471D01*
G01*
X196400001Y-123887500D02*
G75*
G03X194300000Y-121987499I-2000001J-100000D01*
G01*
X185900000Y-122337500D02*
X185900000Y-121987500D01*
D13*
X193516318Y-127066029D02*
G75*
G03X191300000Y-125187500I-2151318J-291471D01*
G01*
D12*
X196200000Y-127287500D02*
X193500000Y-127287500D01*
D11*
X186100000Y-122187500D02*
X187500000Y-122187500D01*
X186100000Y-124687500D02*
X186100000Y-125387500D01*
D14*
X219694660Y-112550480D02*
X213694660Y-112550480D01*
X213694660Y-112550480D02*
X213694660Y-112800480D01*
X219694660Y-112550480D02*
X219694660Y-112800480D01*
X219694660Y-116050480D02*
X219694660Y-115800480D01*
X219694660Y-116050480D02*
X213694660Y-116050480D01*
X213694660Y-116050480D02*
X213694660Y-115800480D01*
X224271690Y-106410510D02*
X224271690Y-75930510D01*
X226811690Y-106410510D02*
X224271690Y-106410510D01*
X226811690Y-75930510D02*
X226811690Y-106410510D01*
X224271690Y-75930510D02*
X226811690Y-75930510D01*
X209051690Y-106410510D02*
X209051690Y-75930510D01*
X211591690Y-106410510D02*
X209051690Y-106410510D01*
X211591690Y-75930510D02*
X211591690Y-106410510D01*
X209051690Y-75930510D02*
X211591690Y-75930510D01*
X222793970Y-129599944D02*
X222793970Y-129028516D01*
X223793970Y-129314230D02*
X222793970Y-129314230D01*
X223793970Y-128123754D02*
X223317780Y-128457087D01*
X223793970Y-128695182D02*
X222793970Y-128695182D01*
X222793970Y-128314230D01*
X222841590Y-128218992D01*
X222889209Y-128171373D01*
X222984447Y-128123754D01*
X223127304Y-128123754D01*
X223222542Y-128171373D01*
X223270161Y-128218992D01*
X223317780Y-128314230D01*
X223317780Y-128695182D01*
X223793970Y-127123754D02*
X223317780Y-127457087D01*
X223793970Y-127695182D02*
X222793970Y-127695182D01*
X222793970Y-127314230D01*
X222841590Y-127218992D01*
X222889209Y-127171373D01*
X222984447Y-127123754D01*
X223127304Y-127123754D01*
X223222542Y-127171373D01*
X223270161Y-127218992D01*
X223317780Y-127314230D01*
X223317780Y-127695182D01*
X223746351Y-126742801D02*
X223793970Y-126599944D01*
X223793970Y-126361849D01*
X223746351Y-126266611D01*
X223698732Y-126218992D01*
X223603494Y-126171373D01*
X223508256Y-126171373D01*
X223413018Y-126218992D01*
X223365399Y-126266611D01*
X223317780Y-126361849D01*
X223270161Y-126552325D01*
X223222542Y-126647563D01*
X223174923Y-126695182D01*
X223079685Y-126742801D01*
X222984447Y-126742801D01*
X222889209Y-126695182D01*
X222841590Y-126647563D01*
X222793970Y-126552325D01*
X222793970Y-126314230D01*
X222841590Y-126171373D01*
X215242279Y-114752860D02*
X214908945Y-114276670D01*
X214670850Y-114752860D02*
X214670850Y-113752860D01*
X215051802Y-113752860D01*
X215147040Y-113800480D01*
X215194660Y-113848099D01*
X215242279Y-113943337D01*
X215242279Y-114086194D01*
X215194660Y-114181432D01*
X215147040Y-114229051D01*
X215051802Y-114276670D01*
X214670850Y-114276670D01*
X215670850Y-114229051D02*
X216004183Y-114229051D01*
X216147040Y-114752860D02*
X215670850Y-114752860D01*
X215670850Y-113752860D01*
X216147040Y-113752860D01*
X216527993Y-114705241D02*
X216670850Y-114752860D01*
X216908945Y-114752860D01*
X217004183Y-114705241D01*
X217051802Y-114657622D01*
X217099421Y-114562384D01*
X217099421Y-114467146D01*
X217051802Y-114371908D01*
X217004183Y-114324289D01*
X216908945Y-114276670D01*
X216718469Y-114229051D01*
X216623231Y-114181432D01*
X216575612Y-114133813D01*
X216527993Y-114038575D01*
X216527993Y-113943337D01*
X216575612Y-113848099D01*
X216623231Y-113800480D01*
X216718469Y-113752860D01*
X216956564Y-113752860D01*
X217099421Y-113800480D01*
X217527993Y-114229051D02*
X217861326Y-114229051D01*
X218004183Y-114752860D02*
X217527993Y-114752860D01*
X217527993Y-113752860D01*
X218004183Y-113752860D01*
X218289898Y-113752860D02*
X218861326Y-113752860D01*
X218575612Y-114752860D02*
X218575612Y-113752860D01*
D19*
X222504337Y-95319795D02*
X222337670Y-94962652D01*
X222218623Y-95319795D02*
X222218623Y-94569795D01*
X222409099Y-94569795D01*
X222456718Y-94605510D01*
X222480528Y-94641224D01*
X222504337Y-94712652D01*
X222504337Y-94819795D01*
X222480528Y-94891224D01*
X222456718Y-94926938D01*
X222409099Y-94962652D01*
X222218623Y-94962652D01*
X222813861Y-94569795D02*
X222909099Y-94569795D01*
X222956718Y-94605510D01*
X223004337Y-94676938D01*
X223028147Y-94819795D01*
X223028147Y-95069795D01*
X223004337Y-95212652D01*
X222956718Y-95284081D01*
X222909099Y-95319795D01*
X222813861Y-95319795D01*
X222766242Y-95284081D01*
X222718623Y-95212652D01*
X222694813Y-95069795D01*
X222694813Y-94819795D01*
X222718623Y-94676938D01*
X222766242Y-94605510D01*
X222813861Y-94569795D01*
X223194813Y-94569795D02*
X223313861Y-95319795D01*
X223409099Y-94784081D01*
X223504337Y-95319795D01*
X223623385Y-94569795D01*
X224075766Y-95319795D02*
X223790051Y-95319795D01*
X223932909Y-95319795D02*
X223932909Y-94569795D01*
X223885290Y-94676938D01*
X223837670Y-94748367D01*
X223790051Y-94784081D01*
X207387670Y-97796367D02*
X207363861Y-97832081D01*
X207292432Y-97867795D01*
X207244813Y-97867795D01*
X207173385Y-97832081D01*
X207125766Y-97760652D01*
X207101956Y-97689224D01*
X207078147Y-97546367D01*
X207078147Y-97439224D01*
X207101956Y-97296367D01*
X207125766Y-97224938D01*
X207173385Y-97153510D01*
X207244813Y-97117795D01*
X207292432Y-97117795D01*
X207363861Y-97153510D01*
X207387670Y-97189224D01*
X207697194Y-97117795D02*
X207792432Y-97117795D01*
X207840051Y-97153510D01*
X207887670Y-97224938D01*
X207911480Y-97367795D01*
X207911480Y-97617795D01*
X207887670Y-97760652D01*
X207840051Y-97832081D01*
X207792432Y-97867795D01*
X207697194Y-97867795D01*
X207649575Y-97832081D01*
X207601956Y-97760652D01*
X207578147Y-97617795D01*
X207578147Y-97367795D01*
X207601956Y-97224938D01*
X207649575Y-97153510D01*
X207697194Y-97117795D01*
X208363861Y-97867795D02*
X208125766Y-97867795D01*
X208125766Y-97117795D01*
X208744813Y-97367795D02*
X208744813Y-97867795D01*
X208625766Y-97082081D02*
X208506718Y-97617795D01*
X208816242Y-97617795D01*
X222454337Y-97867795D02*
X222287670Y-97510652D01*
X222168623Y-97867795D02*
X222168623Y-97117795D01*
X222359099Y-97117795D01*
X222406718Y-97153510D01*
X222430528Y-97189224D01*
X222454337Y-97260652D01*
X222454337Y-97367795D01*
X222430528Y-97439224D01*
X222406718Y-97474938D01*
X222359099Y-97510652D01*
X222168623Y-97510652D01*
X222763861Y-97117795D02*
X222859099Y-97117795D01*
X222906718Y-97153510D01*
X222954337Y-97224938D01*
X222978147Y-97367795D01*
X222978147Y-97617795D01*
X222954337Y-97760652D01*
X222906718Y-97832081D01*
X222859099Y-97867795D01*
X222763861Y-97867795D01*
X222716242Y-97832081D01*
X222668623Y-97760652D01*
X222644813Y-97617795D01*
X222644813Y-97367795D01*
X222668623Y-97224938D01*
X222716242Y-97153510D01*
X222763861Y-97117795D01*
X223144813Y-97117795D02*
X223263861Y-97867795D01*
X223359099Y-97332081D01*
X223454337Y-97867795D01*
X223573385Y-97117795D01*
X223740051Y-97189224D02*
X223763861Y-97153510D01*
X223811480Y-97117795D01*
X223930528Y-97117795D01*
X223978147Y-97153510D01*
X224001956Y-97189224D01*
X224025766Y-97260652D01*
X224025766Y-97332081D01*
X224001956Y-97439224D01*
X223716242Y-97867795D01*
X224025766Y-97867795D01*
X207387670Y-100391867D02*
X207363861Y-100427581D01*
X207292432Y-100463295D01*
X207244813Y-100463295D01*
X207173385Y-100427581D01*
X207125766Y-100356152D01*
X207101956Y-100284724D01*
X207078147Y-100141867D01*
X207078147Y-100034724D01*
X207101956Y-99891867D01*
X207125766Y-99820438D01*
X207173385Y-99749010D01*
X207244813Y-99713295D01*
X207292432Y-99713295D01*
X207363861Y-99749010D01*
X207387670Y-99784724D01*
X207697194Y-99713295D02*
X207792432Y-99713295D01*
X207840051Y-99749010D01*
X207887670Y-99820438D01*
X207911480Y-99963295D01*
X207911480Y-100213295D01*
X207887670Y-100356152D01*
X207840051Y-100427581D01*
X207792432Y-100463295D01*
X207697194Y-100463295D01*
X207649575Y-100427581D01*
X207601956Y-100356152D01*
X207578147Y-100213295D01*
X207578147Y-99963295D01*
X207601956Y-99820438D01*
X207649575Y-99749010D01*
X207697194Y-99713295D01*
X208363861Y-100463295D02*
X208125766Y-100463295D01*
X208125766Y-99713295D01*
X208768623Y-99713295D02*
X208530528Y-99713295D01*
X208506718Y-100070438D01*
X208530528Y-100034724D01*
X208578147Y-99999010D01*
X208697194Y-99999010D01*
X208744813Y-100034724D01*
X208768623Y-100070438D01*
X208792432Y-100141867D01*
X208792432Y-100320438D01*
X208768623Y-100391867D01*
X208744813Y-100427581D01*
X208697194Y-100463295D01*
X208578147Y-100463295D01*
X208530528Y-100427581D01*
X208506718Y-100391867D01*
X222454337Y-100463295D02*
X222287670Y-100106152D01*
X222168623Y-100463295D02*
X222168623Y-99713295D01*
X222359099Y-99713295D01*
X222406718Y-99749010D01*
X222430528Y-99784724D01*
X222454337Y-99856152D01*
X222454337Y-99963295D01*
X222430528Y-100034724D01*
X222406718Y-100070438D01*
X222359099Y-100106152D01*
X222168623Y-100106152D01*
X222763861Y-99713295D02*
X222859099Y-99713295D01*
X222906718Y-99749010D01*
X222954337Y-99820438D01*
X222978147Y-99963295D01*
X222978147Y-100213295D01*
X222954337Y-100356152D01*
X222906718Y-100427581D01*
X222859099Y-100463295D01*
X222763861Y-100463295D01*
X222716242Y-100427581D01*
X222668623Y-100356152D01*
X222644813Y-100213295D01*
X222644813Y-99963295D01*
X222668623Y-99820438D01*
X222716242Y-99749010D01*
X222763861Y-99713295D01*
X223144813Y-99713295D02*
X223263861Y-100463295D01*
X223359099Y-99927581D01*
X223454337Y-100463295D01*
X223573385Y-99713295D01*
X223716242Y-99713295D02*
X224025766Y-99713295D01*
X223859099Y-99999010D01*
X223930528Y-99999010D01*
X223978147Y-100034724D01*
X224001956Y-100070438D01*
X224025766Y-100141867D01*
X224025766Y-100320438D01*
X224001956Y-100391867D01*
X223978147Y-100427581D01*
X223930528Y-100463295D01*
X223787670Y-100463295D01*
X223740051Y-100427581D01*
X223716242Y-100391867D01*
X207732909Y-102574938D02*
X207804337Y-102610652D01*
X207828147Y-102646367D01*
X207851956Y-102717795D01*
X207851956Y-102824938D01*
X207828147Y-102896367D01*
X207804337Y-102932081D01*
X207756718Y-102967795D01*
X207566242Y-102967795D01*
X207566242Y-102217795D01*
X207732909Y-102217795D01*
X207780528Y-102253510D01*
X207804337Y-102289224D01*
X207828147Y-102360652D01*
X207828147Y-102432081D01*
X207804337Y-102503510D01*
X207780528Y-102539224D01*
X207732909Y-102574938D01*
X207566242Y-102574938D01*
X208042432Y-102289224D02*
X208066242Y-102253510D01*
X208113861Y-102217795D01*
X208232909Y-102217795D01*
X208280528Y-102253510D01*
X208304337Y-102289224D01*
X208328147Y-102360652D01*
X208328147Y-102432081D01*
X208304337Y-102539224D01*
X208018623Y-102967795D01*
X208328147Y-102967795D01*
X222882909Y-102546938D02*
X222954337Y-102582652D01*
X222978147Y-102618367D01*
X223001956Y-102689795D01*
X223001956Y-102796938D01*
X222978147Y-102868367D01*
X222954337Y-102904081D01*
X222906718Y-102939795D01*
X222716242Y-102939795D01*
X222716242Y-102189795D01*
X222882909Y-102189795D01*
X222930528Y-102225510D01*
X222954337Y-102261224D01*
X222978147Y-102332652D01*
X222978147Y-102404081D01*
X222954337Y-102475510D01*
X222930528Y-102511224D01*
X222882909Y-102546938D01*
X222716242Y-102546938D01*
X223430528Y-102439795D02*
X223430528Y-102939795D01*
X223311480Y-102154081D02*
X223192432Y-102689795D01*
X223501956Y-102689795D01*
X222882909Y-105150438D02*
X222954337Y-105186152D01*
X222978147Y-105221867D01*
X223001956Y-105293295D01*
X223001956Y-105400438D01*
X222978147Y-105471867D01*
X222954337Y-105507581D01*
X222906718Y-105543295D01*
X222716242Y-105543295D01*
X222716242Y-104793295D01*
X222882909Y-104793295D01*
X222930528Y-104829010D01*
X222954337Y-104864724D01*
X222978147Y-104936152D01*
X222978147Y-105007581D01*
X222954337Y-105079010D01*
X222930528Y-105114724D01*
X222882909Y-105150438D01*
X222716242Y-105150438D01*
X223454337Y-104793295D02*
X223216242Y-104793295D01*
X223192432Y-105150438D01*
X223216242Y-105114724D01*
X223263861Y-105079010D01*
X223382909Y-105079010D01*
X223430528Y-105114724D01*
X223454337Y-105150438D01*
X223478147Y-105221867D01*
X223478147Y-105400438D01*
X223454337Y-105471867D01*
X223430528Y-105507581D01*
X223382909Y-105543295D01*
X223263861Y-105543295D01*
X223216242Y-105507581D01*
X223192432Y-105471867D01*
X207632909Y-105124938D02*
X207704337Y-105160652D01*
X207728147Y-105196367D01*
X207751956Y-105267795D01*
X207751956Y-105374938D01*
X207728147Y-105446367D01*
X207704337Y-105482081D01*
X207656718Y-105517795D01*
X207466242Y-105517795D01*
X207466242Y-104767795D01*
X207632909Y-104767795D01*
X207680528Y-104803510D01*
X207704337Y-104839224D01*
X207728147Y-104910652D01*
X207728147Y-104982081D01*
X207704337Y-105053510D01*
X207680528Y-105089224D01*
X207632909Y-105124938D01*
X207466242Y-105124938D01*
X208180528Y-104767795D02*
X208085290Y-104767795D01*
X208037670Y-104803510D01*
X208013861Y-104839224D01*
X207966242Y-104946367D01*
X207942432Y-105089224D01*
X207942432Y-105374938D01*
X207966242Y-105446367D01*
X207990051Y-105482081D01*
X208037670Y-105517795D01*
X208132909Y-105517795D01*
X208180528Y-105482081D01*
X208204337Y-105446367D01*
X208228147Y-105374938D01*
X208228147Y-105196367D01*
X208204337Y-105124938D01*
X208180528Y-105089224D01*
X208132909Y-105053510D01*
X208037670Y-105053510D01*
X207990051Y-105089224D01*
X207966242Y-105124938D01*
X207942432Y-105196367D01*
X207437670Y-87646367D02*
X207413861Y-87682081D01*
X207342432Y-87717795D01*
X207294813Y-87717795D01*
X207223385Y-87682081D01*
X207175766Y-87610652D01*
X207151956Y-87539224D01*
X207128147Y-87396367D01*
X207128147Y-87289224D01*
X207151956Y-87146367D01*
X207175766Y-87074938D01*
X207223385Y-87003510D01*
X207294813Y-86967795D01*
X207342432Y-86967795D01*
X207413861Y-87003510D01*
X207437670Y-87039224D01*
X207747194Y-86967795D02*
X207842432Y-86967795D01*
X207890051Y-87003510D01*
X207937670Y-87074938D01*
X207961480Y-87217795D01*
X207961480Y-87467795D01*
X207937670Y-87610652D01*
X207890051Y-87682081D01*
X207842432Y-87717795D01*
X207747194Y-87717795D01*
X207699575Y-87682081D01*
X207651956Y-87610652D01*
X207628147Y-87467795D01*
X207628147Y-87217795D01*
X207651956Y-87074938D01*
X207699575Y-87003510D01*
X207747194Y-86967795D01*
X208413861Y-87717795D02*
X208175766Y-87717795D01*
X208175766Y-86967795D01*
X208675766Y-86967795D02*
X208723385Y-86967795D01*
X208771004Y-87003510D01*
X208794813Y-87039224D01*
X208818623Y-87110652D01*
X208842432Y-87253510D01*
X208842432Y-87432081D01*
X208818623Y-87574938D01*
X208794813Y-87646367D01*
X208771004Y-87682081D01*
X208723385Y-87717795D01*
X208675766Y-87717795D01*
X208628147Y-87682081D01*
X208604337Y-87646367D01*
X208580528Y-87574938D01*
X208556718Y-87432081D01*
X208556718Y-87253510D01*
X208580528Y-87110652D01*
X208604337Y-87039224D01*
X208628147Y-87003510D01*
X208675766Y-86967795D01*
X222739147Y-87664081D02*
X222810575Y-87699795D01*
X222929623Y-87699795D01*
X222977242Y-87664081D01*
X223001051Y-87628367D01*
X223024861Y-87556938D01*
X223024861Y-87485510D01*
X223001051Y-87414081D01*
X222977242Y-87378367D01*
X222929623Y-87342652D01*
X222834385Y-87306938D01*
X222786766Y-87271224D01*
X222762956Y-87235510D01*
X222739147Y-87164081D01*
X222739147Y-87092652D01*
X222762956Y-87021224D01*
X222786766Y-86985510D01*
X222834385Y-86949795D01*
X222953432Y-86949795D01*
X223024861Y-86985510D01*
X223239147Y-87699795D02*
X223239147Y-86949795D01*
X223358194Y-86949795D01*
X223429623Y-86985510D01*
X223477242Y-87056938D01*
X223501051Y-87128367D01*
X223524861Y-87271224D01*
X223524861Y-87378367D01*
X223501051Y-87521224D01*
X223477242Y-87592652D01*
X223429623Y-87664081D01*
X223358194Y-87699795D01*
X223239147Y-87699795D01*
X223715337Y-87485510D02*
X223953432Y-87485510D01*
X223667718Y-87699795D02*
X223834385Y-86949795D01*
X224001051Y-87699795D01*
X207487670Y-90168367D02*
X207463861Y-90204081D01*
X207392432Y-90239795D01*
X207344813Y-90239795D01*
X207273385Y-90204081D01*
X207225766Y-90132652D01*
X207201956Y-90061224D01*
X207178147Y-89918367D01*
X207178147Y-89811224D01*
X207201956Y-89668367D01*
X207225766Y-89596938D01*
X207273385Y-89525510D01*
X207344813Y-89489795D01*
X207392432Y-89489795D01*
X207463861Y-89525510D01*
X207487670Y-89561224D01*
X207797194Y-89489795D02*
X207892432Y-89489795D01*
X207940051Y-89525510D01*
X207987670Y-89596938D01*
X208011480Y-89739795D01*
X208011480Y-89989795D01*
X207987670Y-90132652D01*
X207940051Y-90204081D01*
X207892432Y-90239795D01*
X207797194Y-90239795D01*
X207749575Y-90204081D01*
X207701956Y-90132652D01*
X207678147Y-89989795D01*
X207678147Y-89739795D01*
X207701956Y-89596938D01*
X207749575Y-89525510D01*
X207797194Y-89489795D01*
X208463861Y-90239795D02*
X208225766Y-90239795D01*
X208225766Y-89489795D01*
X208892432Y-90239795D02*
X208606718Y-90239795D01*
X208749575Y-90239795D02*
X208749575Y-89489795D01*
X208701956Y-89596938D01*
X208654337Y-89668367D01*
X208606718Y-89704081D01*
X222751051Y-90204081D02*
X222822480Y-90239795D01*
X222941528Y-90239795D01*
X222989147Y-90204081D01*
X223012956Y-90168367D01*
X223036766Y-90096938D01*
X223036766Y-90025510D01*
X223012956Y-89954081D01*
X222989147Y-89918367D01*
X222941528Y-89882652D01*
X222846290Y-89846938D01*
X222798670Y-89811224D01*
X222774861Y-89775510D01*
X222751051Y-89704081D01*
X222751051Y-89632652D01*
X222774861Y-89561224D01*
X222798670Y-89525510D01*
X222846290Y-89489795D01*
X222965337Y-89489795D01*
X223036766Y-89525510D01*
X223536766Y-90168367D02*
X223512956Y-90204081D01*
X223441528Y-90239795D01*
X223393909Y-90239795D01*
X223322480Y-90204081D01*
X223274861Y-90132652D01*
X223251051Y-90061224D01*
X223227242Y-89918367D01*
X223227242Y-89811224D01*
X223251051Y-89668367D01*
X223274861Y-89596938D01*
X223322480Y-89525510D01*
X223393909Y-89489795D01*
X223441528Y-89489795D01*
X223512956Y-89525510D01*
X223536766Y-89561224D01*
X223989147Y-90239795D02*
X223751051Y-90239795D01*
X223751051Y-89489795D01*
X207437670Y-92708367D02*
X207413861Y-92744081D01*
X207342432Y-92779795D01*
X207294813Y-92779795D01*
X207223385Y-92744081D01*
X207175766Y-92672652D01*
X207151956Y-92601224D01*
X207128147Y-92458367D01*
X207128147Y-92351224D01*
X207151956Y-92208367D01*
X207175766Y-92136938D01*
X207223385Y-92065510D01*
X207294813Y-92029795D01*
X207342432Y-92029795D01*
X207413861Y-92065510D01*
X207437670Y-92101224D01*
X207747194Y-92029795D02*
X207842432Y-92029795D01*
X207890051Y-92065510D01*
X207937670Y-92136938D01*
X207961480Y-92279795D01*
X207961480Y-92529795D01*
X207937670Y-92672652D01*
X207890051Y-92744081D01*
X207842432Y-92779795D01*
X207747194Y-92779795D01*
X207699575Y-92744081D01*
X207651956Y-92672652D01*
X207628147Y-92529795D01*
X207628147Y-92279795D01*
X207651956Y-92136938D01*
X207699575Y-92065510D01*
X207747194Y-92029795D01*
X208413861Y-92779795D02*
X208175766Y-92779795D01*
X208175766Y-92029795D01*
X208556718Y-92101224D02*
X208580528Y-92065510D01*
X208628147Y-92029795D01*
X208747194Y-92029795D01*
X208794813Y-92065510D01*
X208818623Y-92101224D01*
X208842432Y-92172652D01*
X208842432Y-92244081D01*
X208818623Y-92351224D01*
X208532909Y-92779795D01*
X208842432Y-92779795D01*
X222454337Y-92817795D02*
X222287670Y-92460652D01*
X222168623Y-92817795D02*
X222168623Y-92067795D01*
X222359099Y-92067795D01*
X222406718Y-92103510D01*
X222430528Y-92139224D01*
X222454337Y-92210652D01*
X222454337Y-92317795D01*
X222430528Y-92389224D01*
X222406718Y-92424938D01*
X222359099Y-92460652D01*
X222168623Y-92460652D01*
X222763861Y-92067795D02*
X222859099Y-92067795D01*
X222906718Y-92103510D01*
X222954337Y-92174938D01*
X222978147Y-92317795D01*
X222978147Y-92567795D01*
X222954337Y-92710652D01*
X222906718Y-92782081D01*
X222859099Y-92817795D01*
X222763861Y-92817795D01*
X222716242Y-92782081D01*
X222668623Y-92710652D01*
X222644813Y-92567795D01*
X222644813Y-92317795D01*
X222668623Y-92174938D01*
X222716242Y-92103510D01*
X222763861Y-92067795D01*
X223144813Y-92067795D02*
X223263861Y-92817795D01*
X223359099Y-92282081D01*
X223454337Y-92817795D01*
X223573385Y-92067795D01*
X223859099Y-92067795D02*
X223906718Y-92067795D01*
X223954337Y-92103510D01*
X223978147Y-92139224D01*
X224001956Y-92210652D01*
X224025766Y-92353510D01*
X224025766Y-92532081D01*
X224001956Y-92674938D01*
X223978147Y-92746367D01*
X223954337Y-92782081D01*
X223906718Y-92817795D01*
X223859099Y-92817795D01*
X223811480Y-92782081D01*
X223787670Y-92746367D01*
X223763861Y-92674938D01*
X223740051Y-92532081D01*
X223740051Y-92353510D01*
X223763861Y-92210652D01*
X223787670Y-92139224D01*
X223811480Y-92103510D01*
X223859099Y-92067795D01*
X207337670Y-95296367D02*
X207313861Y-95332081D01*
X207242432Y-95367795D01*
X207194813Y-95367795D01*
X207123385Y-95332081D01*
X207075766Y-95260652D01*
X207051956Y-95189224D01*
X207028147Y-95046367D01*
X207028147Y-94939224D01*
X207051956Y-94796367D01*
X207075766Y-94724938D01*
X207123385Y-94653510D01*
X207194813Y-94617795D01*
X207242432Y-94617795D01*
X207313861Y-94653510D01*
X207337670Y-94689224D01*
X207647194Y-94617795D02*
X207742432Y-94617795D01*
X207790051Y-94653510D01*
X207837670Y-94724938D01*
X207861480Y-94867795D01*
X207861480Y-95117795D01*
X207837670Y-95260652D01*
X207790051Y-95332081D01*
X207742432Y-95367795D01*
X207647194Y-95367795D01*
X207599575Y-95332081D01*
X207551956Y-95260652D01*
X207528147Y-95117795D01*
X207528147Y-94867795D01*
X207551956Y-94724938D01*
X207599575Y-94653510D01*
X207647194Y-94617795D01*
X208313861Y-95367795D02*
X208075766Y-95367795D01*
X208075766Y-94617795D01*
X208432909Y-94617795D02*
X208742432Y-94617795D01*
X208575766Y-94903510D01*
X208647194Y-94903510D01*
X208694813Y-94939224D01*
X208718623Y-94974938D01*
X208742432Y-95046367D01*
X208742432Y-95224938D01*
X208718623Y-95296367D01*
X208694813Y-95332081D01*
X208647194Y-95367795D01*
X208504337Y-95367795D01*
X208456718Y-95332081D01*
X208432909Y-95296367D01*
X222965337Y-84509010D02*
X222917718Y-84473295D01*
X222846290Y-84473295D01*
X222774861Y-84509010D01*
X222727242Y-84580438D01*
X222703432Y-84651867D01*
X222679623Y-84794724D01*
X222679623Y-84901867D01*
X222703432Y-85044724D01*
X222727242Y-85116152D01*
X222774861Y-85187581D01*
X222846290Y-85223295D01*
X222893909Y-85223295D01*
X222965337Y-85187581D01*
X222989147Y-85151867D01*
X222989147Y-84901867D01*
X222893909Y-84901867D01*
X223203432Y-85223295D02*
X223203432Y-84473295D01*
X223489147Y-85223295D01*
X223489147Y-84473295D01*
X223727242Y-85223295D02*
X223727242Y-84473295D01*
X223846290Y-84473295D01*
X223917718Y-84509010D01*
X223965337Y-84580438D01*
X223989147Y-84651867D01*
X224012956Y-84794724D01*
X224012956Y-84901867D01*
X223989147Y-85044724D01*
X223965337Y-85116152D01*
X223917718Y-85187581D01*
X223846290Y-85223295D01*
X223727242Y-85223295D01*
X207503123Y-84409795D02*
X207669790Y-85159795D01*
X207836456Y-84409795D01*
X208288837Y-85088367D02*
X208265028Y-85124081D01*
X208193599Y-85159795D01*
X208145980Y-85159795D01*
X208074551Y-85124081D01*
X208026932Y-85052652D01*
X208003123Y-84981224D01*
X207979313Y-84838367D01*
X207979313Y-84731224D01*
X208003123Y-84588367D01*
X208026932Y-84516938D01*
X208074551Y-84445510D01*
X208145980Y-84409795D01*
X208193599Y-84409795D01*
X208265028Y-84445510D01*
X208288837Y-84481224D01*
X208788837Y-85088367D02*
X208765028Y-85124081D01*
X208693599Y-85159795D01*
X208645980Y-85159795D01*
X208574551Y-85124081D01*
X208526932Y-85052652D01*
X208503123Y-84981224D01*
X208479313Y-84838367D01*
X208479313Y-84731224D01*
X208503123Y-84588367D01*
X208526932Y-84516938D01*
X208574551Y-84445510D01*
X208645980Y-84409795D01*
X208693599Y-84409795D01*
X208765028Y-84445510D01*
X208788837Y-84481224D01*
X223028837Y-81969010D02*
X222981218Y-81933295D01*
X222909790Y-81933295D01*
X222838361Y-81969010D01*
X222790742Y-82040438D01*
X222766932Y-82111867D01*
X222743123Y-82254724D01*
X222743123Y-82361867D01*
X222766932Y-82504724D01*
X222790742Y-82576152D01*
X222838361Y-82647581D01*
X222909790Y-82683295D01*
X222957409Y-82683295D01*
X223028837Y-82647581D01*
X223052647Y-82611867D01*
X223052647Y-82361867D01*
X222957409Y-82361867D01*
X223266932Y-82683295D02*
X223266932Y-81933295D01*
X223552647Y-82683295D01*
X223552647Y-81933295D01*
X223790742Y-82683295D02*
X223790742Y-81933295D01*
X223909790Y-81933295D01*
X223981218Y-81969010D01*
X224028837Y-82040438D01*
X224052647Y-82111867D01*
X224076456Y-82254724D01*
X224076456Y-82361867D01*
X224052647Y-82504724D01*
X224028837Y-82576152D01*
X223981218Y-82647581D01*
X223909790Y-82683295D01*
X223790742Y-82683295D01*
X207895980Y-82683295D02*
X207729313Y-82326152D01*
X207610266Y-82683295D02*
X207610266Y-81933295D01*
X207800742Y-81933295D01*
X207848361Y-81969010D01*
X207872170Y-82004724D01*
X207895980Y-82076152D01*
X207895980Y-82183295D01*
X207872170Y-82254724D01*
X207848361Y-82290438D01*
X207800742Y-82326152D01*
X207610266Y-82326152D01*
X208086456Y-82647581D02*
X208157885Y-82683295D01*
X208276932Y-82683295D01*
X208324551Y-82647581D01*
X208348361Y-82611867D01*
X208372170Y-82540438D01*
X208372170Y-82469010D01*
X208348361Y-82397581D01*
X208324551Y-82361867D01*
X208276932Y-82326152D01*
X208181694Y-82290438D01*
X208134075Y-82254724D01*
X208110266Y-82219010D01*
X208086456Y-82147581D01*
X208086456Y-82076152D01*
X208110266Y-82004724D01*
X208134075Y-81969010D01*
X208181694Y-81933295D01*
X208300742Y-81933295D01*
X208372170Y-81969010D01*
X208515028Y-81933295D02*
X208800742Y-81933295D01*
X208657885Y-82683295D02*
X208657885Y-81933295D01*
X222485290Y-80067795D02*
X222485290Y-79317795D01*
X222604337Y-79317795D01*
X222675766Y-79353510D01*
X222723385Y-79424938D01*
X222747194Y-79496367D01*
X222771004Y-79639224D01*
X222771004Y-79746367D01*
X222747194Y-79889224D01*
X222723385Y-79960652D01*
X222675766Y-80032081D01*
X222604337Y-80067795D01*
X222485290Y-80067795D01*
X222961480Y-79853510D02*
X223199575Y-79853510D01*
X222913861Y-80067795D02*
X223080528Y-79317795D01*
X223247194Y-80067795D01*
X223342432Y-79317795D02*
X223628147Y-79317795D01*
X223485290Y-80067795D02*
X223485290Y-79317795D01*
X223771004Y-79853510D02*
X224009099Y-79853510D01*
X223723385Y-80067795D02*
X223890051Y-79317795D01*
X224056718Y-80067795D01*
X207788837Y-79365510D02*
X207741218Y-79329795D01*
X207669790Y-79329795D01*
X207598361Y-79365510D01*
X207550742Y-79436938D01*
X207526932Y-79508367D01*
X207503123Y-79651224D01*
X207503123Y-79758367D01*
X207526932Y-79901224D01*
X207550742Y-79972652D01*
X207598361Y-80044081D01*
X207669790Y-80079795D01*
X207717409Y-80079795D01*
X207788837Y-80044081D01*
X207812647Y-80008367D01*
X207812647Y-79758367D01*
X207717409Y-79758367D01*
X208026932Y-80079795D02*
X208026932Y-79329795D01*
X208312647Y-80079795D01*
X208312647Y-79329795D01*
X208550742Y-80079795D02*
X208550742Y-79329795D01*
X208669790Y-79329795D01*
X208741218Y-79365510D01*
X208788837Y-79436938D01*
X208812647Y-79508367D01*
X208836456Y-79651224D01*
X208836456Y-79758367D01*
X208812647Y-79901224D01*
X208788837Y-79972652D01*
X208741218Y-80044081D01*
X208669790Y-80079795D01*
X208550742Y-80079795D01*
X223063861Y-77539795D02*
X222825766Y-77539795D01*
X222825766Y-76789795D01*
X223230528Y-77146938D02*
X223397194Y-77146938D01*
X223468623Y-77539795D02*
X223230528Y-77539795D01*
X223230528Y-76789795D01*
X223468623Y-76789795D01*
X223682909Y-77539795D02*
X223682909Y-76789795D01*
X223801956Y-76789795D01*
X223873385Y-76825510D01*
X223921004Y-76896938D01*
X223944813Y-76968367D01*
X223968623Y-77111224D01*
X223968623Y-77218367D01*
X223944813Y-77361224D01*
X223921004Y-77432652D01*
X223873385Y-77504081D01*
X223801956Y-77539795D01*
X223682909Y-77539795D01*
X207824551Y-77539795D02*
X207657885Y-77182652D01*
X207538837Y-77539795D02*
X207538837Y-76789795D01*
X207729313Y-76789795D01*
X207776932Y-76825510D01*
X207800742Y-76861224D01*
X207824551Y-76932652D01*
X207824551Y-77039795D01*
X207800742Y-77111224D01*
X207776932Y-77146938D01*
X207729313Y-77182652D01*
X207538837Y-77182652D01*
X208015028Y-77325510D02*
X208253123Y-77325510D01*
X207967409Y-77539795D02*
X208134075Y-76789795D01*
X208300742Y-77539795D01*
X208419790Y-76789795D02*
X208538837Y-77539795D01*
X208634075Y-77004081D01*
X208729313Y-77539795D01*
X208848361Y-76789795D01*
D14*
M02*
