M48
; DRILL file {KiCad (5.1.0)-1} date 5/16/2019 1:00:05 AM
; FORMAT={-:-/ absolute / metric / decimal}
; #@! TF.CreationDate,2019-05-16T01:00:05+08:00
; #@! TF.GenerationSoftware,Kicad,Pcbnew,(5.1.0)-1
; #@! TF.FileFunction,Plated,1,2,PTH
FMAT,2
METRIC
T1C0.400
T2C0.813
T3C1.000
T4C1.300
%
G90
G05
T1
X95.25Y-84.535
X95.25Y-96.441
X95.25Y-103.585
X95.25Y-115.491
X95.25Y-122.635
X95.25Y-134.541
X100.013Y-80.963
X101.204Y-102.394
X101.204Y-121.444
X114.3Y-84.535
X114.3Y-96.441
X114.3Y-103.585
X114.3Y-115.491
X114.3Y-122.635
X114.3Y-134.541
X121.444Y-103.585
X121.444Y-122.635
X133.351Y-79.772
X133.351Y-91.679
X133.351Y-98.822
X133.351Y-110.729
X133.351Y-117.872
X133.351Y-129.779
X136.922Y-76.2
X140.494Y-78.582
X140.494Y-98.822
X140.494Y-117.872
X152.401Y-77.391
X152.401Y-89.297
X152.401Y-96.441
X152.401Y-108.347
X152.401Y-115.491
X152.401Y-127.397
X159.544Y-96.441
X159.544Y-115.491
X164.307Y-77.391
X171.451Y-82.153
X171.451Y-94.06
X171.451Y-101.204
X171.451Y-113.11
X171.451Y-120.254
X171.451Y-132.16
X171.451Y-141.685
X171.451Y-153.591
X176.213Y-136.922
X178.594Y-101.204
X178.594Y-120.254
X188.12Y-98.822
X190.501Y-82.153
X190.501Y-94.06
X190.501Y-101.204
X190.501Y-113.11
X190.501Y-120.254
X190.501Y-132.16
X195.263Y-155.973
X196.454Y-144.066
X197.645Y-101.204
X197.645Y-120.254
X202.407Y-94.742
X204.788Y-77.391
X204.992Y-93.856
X205.979Y-128.588
X207.373Y-96.237
X211.932Y-87.906
X211.932Y-90.446
X211.932Y-92.869
X211.932Y-95.25
X211.932Y-97.632
X212.052Y-105.686
X212.147Y-103.146
X212.271Y-100.606
T2
X161.926Y-100.965
X161.926Y-108.585
X180.976Y-105.728
X180.976Y-113.348
X85.725Y-127.159
X85.725Y-134.779
X180.976Y-124.778
X180.976Y-132.398
X104.775Y-108.109
X104.775Y-115.729
X200.026Y-105.728
X200.026Y-113.348
X104.775Y-89.297
X104.775Y-96.917
X206.508Y-159.725
X207.831Y-152.22
X85.725Y-89.059
X85.725Y-96.679
X142.876Y-122.397
X142.876Y-130.017
X180.976Y-86.678
X180.976Y-94.298
X180.776Y-153.824
X181.175Y-146.215
X142.876Y-84.297
X142.876Y-91.917
X104.775Y-127.159
X104.775Y-134.779
X200.026Y-86.678
X200.026Y-94.298
X200.026Y-124.172
X200.026Y-131.792
X85.725Y-108.109
X85.725Y-115.729
X161.926Y-81.915
X161.926Y-89.535
X161.926Y-120.016
X161.926Y-127.636
X142.876Y-103.347
X142.876Y-110.967
X208.995Y-78.471
X208.995Y-81.011
X208.995Y-83.551
X208.995Y-86.091
X208.995Y-88.631
X208.995Y-91.171
X208.995Y-93.711
X208.995Y-96.251
X208.995Y-98.791
X208.995Y-101.331
X208.995Y-103.871
X208.995Y-106.411
X210.322Y-77.201
X210.322Y-79.741
X210.322Y-82.281
X210.322Y-84.821
X210.322Y-87.361
X210.322Y-89.901
X210.322Y-92.441
X210.322Y-94.981
X210.322Y-97.521
X210.322Y-100.061
X210.322Y-102.601
X210.322Y-105.141
X224.235Y-78.471
X224.235Y-81.011
X224.235Y-83.551
X224.235Y-86.091
X224.235Y-88.631
X224.235Y-91.171
X224.235Y-93.711
X224.235Y-96.251
X224.235Y-98.791
X224.235Y-101.331
X224.235Y-103.871
X224.235Y-106.411
X225.542Y-77.201
X225.542Y-79.741
X225.542Y-82.281
X225.542Y-84.821
X225.542Y-87.361
X225.542Y-89.901
X225.542Y-92.441
X225.542Y-94.981
X225.542Y-97.521
X225.542Y-100.061
X225.542Y-102.601
X225.542Y-105.141
T4
X213.445Y-114.3
X219.945Y-114.3
T3
G00X218.242Y-126.488
M15
G01X217.742Y-126.488
M16
G05
G00X218.242Y-128.938
M15
G01X217.742Y-128.938
M16
G05
G00X219.742Y-124.738
M15
G01X219.242Y-124.738
M16
G05
G00X219.742Y-130.688
M15
G01X219.242Y-130.688
M16
G05
G00X223.742Y-124.738
M15
G01X223.242Y-124.738
M16
G05
G00X223.742Y-130.688
M15
G01X223.242Y-130.688
M16
G05
G00X226.742Y-124.738
M15
G01X226.242Y-124.738
M16
G05
G00X226.742Y-130.688
M15
G01X226.242Y-130.688
M16
G05
T0
M30
